<?xml version="1.0" encoding="UTF-8"?><svg id="Layer_2" xmlns="http://www.w3.org/2000/svg" viewBox="0 0 749.55 118.21"><defs><style>.cls-1{fill:#c2e119;}.cls-1,.cls-2{fill-rule:evenodd;}.cls-1,.cls-2,.cls-3{stroke-width:0px;}.cls-2{fill:#fff;}.cls-3{fill:#010054;}</style></defs><g id="Layer_1-2"><path class="cls-3" d="m346.09,26.15c-2.7-1.75-7.71-3.65-11.6-3.65s-5.24,1.59-5.24,3.42c0,1.27,1.27,2.62,3.5,3.89l6.12,3.5c7.15,4.13,10.09,9.13,10.09,15.41,0,8.9-5.72,16.92-18.83,16.92-5.16,0-10.25-1.11-13.82-2.54v-14.7c2.94,2.3,8.5,4.61,13.27,4.61,3.18,0,5-1.19,5-3.5,0-1.27-1.03-2.46-3.57-3.89l-6.43-3.65c-7.55-4.29-9.77-9.13-9.77-15.57,0-7.86,4.85-16.52,19.78-16.52,3.73,0,8.02.79,11.52,2.22v14.06Z"/><path class="cls-3" d="m373.41,10.74h19.7c10.8,0,18.27,6.59,18.27,17.56s-7.47,17.56-18.27,17.56h-6.2v18.91h-13.5V10.74Zm19.54,13.03h-6.04v9.06h6.04c2.62,0,4.53-1.59,4.53-4.53s-1.91-4.53-4.53-4.53Z"/><path class="cls-3" d="m459.92,9.86c15.81,0,27.8,12.08,27.8,27.88s-12,27.88-27.8,27.88-27.8-12.07-27.8-27.88,12-27.88,27.8-27.88Zm0,42.26c7.86,0,13.9-6.43,13.9-14.38s-6.04-14.38-13.9-14.38-13.9,6.51-13.9,14.38,5.96,14.38,13.9,14.38Z"/><path class="cls-3" d="m511.95,10.74h13.5v19.54l10.8-19.54h15.65l-13.58,22.16,14.38,31.85h-15.73l-8.42-20.26-3.1,5v15.25h-13.5V10.74Z"/><path class="cls-3" d="m604.97,54.98h-18.03l-3.26,9.77h-15.09l19.86-54.02h15.09l19.86,54.02h-15.09l-3.34-9.77Zm-13.58-13.03h9.21l-4.61-13.58-4.61,13.58Z"/><path class="cls-3" d="m658.35,37.27v27.49h-13.5V17.81l-3.73-6.2v-.87h15.89l20.02,30.5V10.74h13.5v54.02h-13.5l-18.67-27.49Z"/><path class="cls-3" d="m717.93,64.75V10.74h31.62v13.03h-18.11v7.23h16.52v13.03h-16.52v7.71h18.11v13.03h-31.62Z"/><path class="cls-3" d="m314.79,77.29h10.62c6.29,0,10.67,3.51,10.67,9.45,0,4.78-2.88,7.51-6.43,8.48,4.09,2,7.02,7.7,7.99,15.2h-5.75c-1.32-7.75-4.82-13.11-9.02-13.11h-2.53v13.11h-5.55v-33.14Zm10.57,5.31h-5.02v9.41h5.02c2.88,0,4.97-1.66,4.97-4.68s-2.09-4.73-4.97-4.73Z"/><path class="cls-3" d="m371.36,102.24h-12.62l-2.97,8.19h-6.19l12.38-33.14h6.19l12.38,33.14h-6.19l-2.97-8.19Zm-10.82-5.31h9.02l-4.48-12.38-4.53,12.38Z"/><path class="cls-3" d="m416.92,108.92c-2.34,1.27-5.12,2.05-8.09,2.05-9.7,0-17.05-7.41-17.05-17.11s7.36-17.1,17.05-17.1c2.97,0,5.75.78,8.09,2.05v6.43c-2-1.75-4.87-2.92-8.09-2.92-6.48,0-11.35,5.12-11.35,11.55s4.87,11.55,11.35,11.55c3.22,0,6.14-1.17,8.09-2.88v6.38Z"/><path class="cls-3" d="m447.62,76.75c9.7,0,17.06,7.41,17.06,17.1,0,4.04-1.32,7.7-3.56,10.53l3.41,3.36-3.8,3.8-3.51-3.51c-2.68,1.85-5.99,2.92-9.6,2.92-9.7,0-17.05-7.41-17.05-17.11s7.36-17.1,17.05-17.1Zm0,28.65c2,0,3.85-.58,5.31-1.66l-5.8-5.8,3.8-3.85,5.99,5.99c1.27-1.66,2-3.85,2-6.24,0-6.43-4.92-11.55-11.31-11.55s-11.35,5.12-11.35,11.55,4.87,11.55,11.35,11.55Z"/><path class="cls-3" d="m505.51,77.29v21c0,7.85-4.78,12.67-12.33,12.67s-12.33-4.82-12.33-12.67v-21h5.56v21.39c0,4.09,2.68,6.87,6.82,6.87s6.72-2.78,6.72-6.87v-21.39h5.55Z"/><path class="cls-3" d="m523.3,110.43v-33.14h18.32v5.31h-12.77v8.48h11.79v5.31h-11.79v8.72h12.77v5.31h-18.32Z"/><path class="cls-3" d="m564.08,82.6h-8.43v-5.31h22.42v5.31h-8.43v27.83h-5.56v-27.83Z"/><path class="cls-3" d="m636.3,108.92c-2.34,1.27-5.12,2.05-8.09,2.05-9.7,0-17.05-7.41-17.05-17.11s7.36-17.1,17.05-17.1c2.97,0,5.75.78,8.09,2.05v6.43c-2-1.75-4.87-2.92-8.09-2.92-6.48,0-11.35,5.12-11.35,11.55s4.87,11.55,11.35,11.55c3.22,0,6.14-1.17,8.09-2.88v6.38Z"/><path class="cls-3" d="m652.72,110.43v-33.14h5.55v27.83h12.77v5.31h-18.32Z"/><path class="cls-3" d="m710.03,77.29v21c0,7.85-4.78,12.67-12.33,12.67s-12.33-4.82-12.33-12.67v-21h5.56v21.39c0,4.09,2.68,6.87,6.82,6.87s6.72-2.78,6.72-6.87v-21.39h5.55Z"/><path class="cls-3" d="m727.81,77.29h10.62c5.85,0,10.14,3.41,10.14,8.72,0,3.65-1.71,6.09-4.34,7.36,3.17,1.32,5.31,3.95,5.31,7.99,0,5.55-4.53,9.06-10.72,9.06h-11.01v-33.14Zm10.62,5.31h-5.07v8.14h5.07c2.44,0,4.43-1.22,4.43-4.04s-2-4.09-4.43-4.09Zm.39,13.5h-5.46v9.02h5.46c2.78,0,5.02-1.41,5.02-4.48s-2.24-4.53-5.02-4.53Z"/><path class="cls-3" d="m257.73,75.2c-5.41,4.21-12.29,6.91-19.3,6.91-5.71,0-11.14-1.8-14.96-5.63l-.75-.86c-3.23-3.71-4.48-8.35-4.13-13.07.05-.66,4.64-1.44,4.75-2.11l-48.83,1.11,47.93-5.41c.11-.3-2.3-.31-2.18-.6.19-.47.4-.95.61-1.41l-37.32,1.15,41.29-5.01c.23-.35-1.45-.46-1.2-.81.32-.44.66-.88,1.01-1.31l-59.44,2.79,70.88-9.06c.19-.14-3.8-.56-3.05-1.01,4.82-2.93,10.44-4.7,16.16-4.7,6.11,0,11.87,2.09,15.71,6.49l2.36,2.71,3.01-2.25,26.96-20.98-2.35-2.69c-9.76-11.21-24.4-16.76-40.01-16.76-16.73,0-33.05,6.31-45.99,16.34l-.07.05c-4.78,3.7-9.09,7.93-12.79,12.56-.19-3.68-.95-7.13-2.31-10.34-2.52-5.96-6.78-10.61-12.75-13.95-5.98-3.35-13.21-5.02-21.7-5.02h-54.47l-12.64,63.94c-.17-.52-.35-1.02-.56-1.52-1.87-4.53-5.14-8.45-9.79-11.71-4.65-3.26-10.78-6.29-18.37-9.09l-2.35-.89c-3.68-1.4-6.32-2.48-7.95-3.21-1.63-.73-2.84-1.4-3.61-2.05-.77-.65-1-1.36-.94-2.19.16-2.17,1.09-2.86,2.28-3.73,1.19-.86,3.11-1.3,5.78-1.3,4.42,0,8.69.95,12.77,2.83.47.22,2.77,1.36,4.72,2.34l20.96-26.52c-2.9-1.94-5.99-3.6-9.25-4.96-6.82-2.86-15.07-4.29-24.73-4.29s-18.36,1.62-25.26,4.86c-6.9,3.24-12.24,7.45-16.02,12.63-3.79,5.18-6.29,10.79-7.49,16.84-2.07,10.47-.17,18.51,5.68,24.13,5.84,5.61,13.14,9.77,21.92,12.47,5.11,1.51,8.83,2.89,11.14,4.16,2.31,1.27,3.31,1.76,4.12,3.29.47.89.52,1.94.29,3.08-.72,3.67-4.61,5.51-11.65,5.51-4.71,0-9.09-1-13.15-2.97-1.52-.74-5.82-3.1-8.86-4.93L0,105.91c10.5,8.2,23.38,12.3,38.65,12.3,9.43,0,17.97-1.57,25.63-4.7,7.66-3.13,13.93-7.5,18.8-13.12,1.15-1.32,2.2-2.7,3.15-4.12l-3.92,19.82h14.07l7.09-12.27h-3.9l7.8-13.52,7.8,13.52h-3.9l5.1,8.83,10.35-17.92h-7.81l11.51-19.93h-6.01l12.02-20.82,12.02,20.82h-6.01l11.51,19.93h-7.81l12.34,21.37h29.02l-15.35-43.8c3.68-2.02,6.99-4.37,9.92-7.06-.96,12.12,2.37,24.05,10.66,33.57l1.11,1.28h.1c9.73,10.34,23.8,15.49,38.79,15.49,16.75,0,33.11-6.28,46.05-16.35l2.95-2.29-20.98-24.1-3.03,2.35Zm-99.44-33.42c-.33,1.67-1.08,3.27-2.28,4.78-1.2,1.51-2.69,2.73-4.44,3.64-1.75.92-3.56,1.38-5.42,1.38l-14.45-1.09,3.5-17.69h15.01c2.56,0,4.71.78,6.4,2.35,1.7,1.57,2.25,3.78,1.68,6.64Z"/><path class="cls-2" d="m246.53,75.31c-2.93.9-5.88,1.19-8.63.9-.03,0-.06,0-.08-.01-.29-.03-.58-.07-.87-.12-.31-.05-.62-.11-.93-.17-.03,0-.06-.01-.1-.02-2.3-.52-4.4-1.47-6.14-2.85,1.08-.29,2.13-.7,3.12-1.1,3.42-1.41,6.82-2.29,9.36-1.67,2.01.5,3.56,2,4.27,5.04Z"/><path class="cls-2" d="m262.63,59.12c-.08.37-.18.74-.29,1.11-.09.3-.19.59-.29.88-1.58,4.42-4.96,8.62-9.73,11.56-.66.41-1.33.78-2,1.11l-.81.39c-.9-4.04-3.04-5.9-5.91-6.6-3.29-.81-7.37.21-11.4,1.86-1.17.48-2.43.96-3.58,1.14-.33.05-.87.3-1.12.13-.02-.01-.04-.03-.06-.06-.12-.17-.25-.35-.36-.52-.1-.14-.19-.28-.28-.42-.1-.15-.19-.31-.26-.47-.17-.32-.34-.64-.49-.96-.07-.17-.14-.33-.21-.5-.14-.33-.26-.66-.36-.99-.06-.17-.11-.34-.15-.51-.02-.04-.03-.08-.03-.12-.08-.28-.14-.56-.19-.85-.47-2.48-.24-5.13.61-7.73.08-.24.17-.49.26-.73.07-.21.16-.42.24-.62.13-.3.26-.59.4-.88,1.47-3.12,3.85-6.06,7-8.43.24-.19.49-.38.74-.55.4-.28.82-.55,1.24-.81.45-.28.91-.54,1.37-.78.16-.1.33-.19.5-.26.33-.17.67-.33,1-.48,1-.46,2.01-.84,3.03-1.14,2.14,2.09,2.4,4.72,2.67,7.75l.13,1.39c.44,4.27,2.25,7.1,4.68,8.67,1.68,1.07,3.66,1.55,5.7,1.48,2.05-.06,4.16-.68,6.1-1.78.6-.34,1.18-.73,1.74-1.16l.11-.12Z"/><path class="cls-2" d="m263.05,55.05v.07c-.04,1.51-2.2,2.29-3.43,2.99-1.39.79-2.91,1.24-4.39,1.29-1.49.05-2.93-.31-4.17-1.1-1.93-1.24-3.37-3.55-3.74-7.11l-.12-1.37c-.27-2.91-.5-5.47-2.1-7.72,6.65-.89,12.9,1.36,16.03,6.43,1.15,1.86,1.76,3.92,1.9,6.06.01.15.02.3.02.46Z"/><path class="cls-1" d="m263.03,54.59c-.02-.27-.04-.53-.07-.8-.28-2.59-1.32-4.97-3.07-7.01-3.42-4.02-9.01-5.57-14.81-4.7,0,.01.01.01.02.02,1.6,2.25,1.83,4.81,2.1,7.72l.12,1.37c.37,3.56,1.81,5.87,3.74,7.11,1.24.79,2.68,1.15,4.17,1.1,1.48-.05,3-.5,4.39-1.29,1.23-.7,3.39-1.48,3.43-2.99v-.07c0-.16-.01-.31-.02-.46Zm-.4,4.53l-.11.12c-.56.43-1.14.82-1.74,1.16-1.94,1.1-4.05,1.72-6.1,1.78-2.04.07-4.02-.41-5.7-1.48-2.43-1.57-4.24-4.4-4.68-8.67l-.13-1.39c-.27-3.03-.53-5.66-2.67-7.75-1.01.32-2.02.7-3.03,1.14-.33.15-.67.31-1,.48-.17.07-.34.16-.5.26-.9.45-1.77.98-2.61,1.59-.25.17-.5.36-.74.55-3.11,2.45-5.5,5.36-7,8.43-.14.29-.27.58-.4.88-.08.2-.17.41-.24.62-.09.24-.18.49-.26.73-.88,2.58-1.12,5.21-.61,7.73.05.29.11.57.19.85,0,.04.01.08.03.12.04.17.09.34.15.51.1.33.22.66.36.99.07.17.14.33.21.5.15.32.32.64.49.96.17.3.35.6.54.89.11.17.24.35.36.52.02.03.04.05.06.06.25.17.79-.08,1.12-.13,1.15-.18,2.41-.66,3.58-1.14,4.03-1.65,8.11-2.67,11.4-1.86,2.87.7,5.01,2.56,5.91,6.6l.81-.39c1.42-.68,2.81-1.45,4.12-2.47,3.63-2.86,6.31-6.44,7.61-10.2.1-.29.2-.58.29-.88.12-.37.22-.75.3-1.12h-.01Zm-20.37,11.15c-2.54-.62-5.94.26-9.36,1.67-.99.4-2.04.81-3.12,1.1-.01,0-.03,0-.04,0,1.63,1.4,3.83,2.33,6.18,2.84.04.01.07.02.1.02.31.06.62.12.93.17.29.05.58.09.87.12.02.01.05.01.08.01,3.12.38,6.31.04,8.63-.9-.71-3.04-2.26-4.54-4.27-5.04Z"/></g></svg>