<?xml version="1.0" encoding="UTF-8"?><svg id="Layer_2" xmlns="http://www.w3.org/2000/svg" viewBox="0 0 523.16 348.11"><defs><style>.cls-1{fill:#c2e119;}.cls-1,.cls-2{fill-rule:evenodd;}.cls-1,.cls-2,.cls-3{stroke-width:0px;}.cls-2,.cls-3{fill:#fff;}</style></defs><g id="Layer_1-2"><path class="cls-3" d="m453.63,132.36c-9.53,7.41-21.62,12.15-33.97,12.15-10.05,0-19.6-3.17-26.33-9.91l-1.32-1.52c-5.69-6.53-7.89-14.7-7.27-23,.09-1.17,8.16-2.53,8.36-3.71l-85.95,1.95,84.36-9.53c.19-.52-4.04-.54-3.84-1.06.33-.83.7-1.66,1.08-2.48l-65.69,2.02,72.68-8.82c.41-.62-2.55-.81-2.1-1.42.57-.78,1.16-1.55,1.77-2.3l-102.54,10.31,122.68-21.34c.34-.25-6.68-.98-5.38-1.77,8.48-5.16,18.38-8.27,28.44-8.27,10.76,0,20.9,3.68,27.65,11.43l4.15,4.77,5.3-3.95,47.46-36.92-4.13-4.74c-17.18-19.73-42.94-29.5-70.41-29.5-29.45,0-58.18,11.11-80.95,28.77l-.12.09c-8.41,6.52-16,13.96-22.52,22.1-.33-6.48-1.68-12.55-4.06-18.19-4.43-10.5-11.93-18.67-22.44-24.56-10.52-5.89-23.25-8.84-38.2-8.84h-95.87l-22.24,112.55c-.29-.91-.62-1.8-.98-2.67-3.29-7.98-9.05-14.87-17.23-20.62-8.19-5.75-18.97-11.07-32.33-16.01l-4.14-1.57c-6.48-2.47-11.12-4.37-13.99-5.65-2.87-1.28-4.99-2.47-6.36-3.61-1.36-1.14-1.75-2.4-1.65-3.85.27-3.82,1.92-5.04,4.01-6.56,2.09-1.52,5.47-2.28,10.18-2.28,7.78,0,15.29,1.67,22.47,4.99.83.38,4.88,2.4,8.31,4.11l36.9-46.68c-5.11-3.42-10.54-6.33-16.27-8.74-12.01-5.03-26.52-7.55-43.52-7.55s-32.31,2.85-44.45,8.55c-12.14,5.7-21.54,13.11-28.2,22.23-6.67,9.12-11.08,19-13.18,29.64-3.64,18.43-.3,32.59,9.99,42.47,10.28,9.88,23.13,17.19,38.58,21.94,9,2.66,15.54,5.08,19.6,7.31,4.07,2.23,5.82,3.09,7.26,5.8.83,1.57.91,3.42.52,5.41-1.28,6.46-8.11,9.69-20.51,9.69-8.3,0-15.99-1.76-23.14-5.22-2.67-1.29-10.25-5.45-15.59-8.67L0,186.41c18.48,14.43,41.15,21.65,68.03,21.65,16.59,0,31.63-2.76,45.12-8.27,13.48-5.51,24.53-13.21,33.09-23.09,2.02-2.33,3.87-4.74,5.55-7.24l-6.89,34.89h24.76l12.47-21.6h-6.87l13.73-23.79,13.73,23.79h-6.87l8.97,15.54,18.21-31.55h-13.74l20.26-35.08h-10.58l21.16-36.65,21.16,36.65h-10.58l20.26,35.08h-13.74l21.72,37.61h51.09l-27.02-77.09c6.48-3.55,12.3-7.69,17.46-12.42-1.69,21.34,4.17,42.33,18.76,59.09l1.96,2.24h.18c17.13,18.21,41.89,27.26,68.28,27.26,29.48,0,58.28-11.06,81.05-28.78l5.18-4.03-36.93-42.41-5.33,4.14Zm-175.03-58.83c-.58,2.95-1.91,5.75-4.02,8.41-2.11,2.66-4.74,4.8-7.82,6.41-3.08,1.61-6.27,2.42-9.54,2.42l-25.43-1.92,6.15-31.14h26.43c4.51,0,8.28,1.38,11.27,4.13,2.99,2.76,3.96,6.65,2.96,11.69Z"/><path class="cls-2" d="m433.93,132.55s0,0-.02,0c-5.27,1.62-10.59,2.1-15.51,1.54-.45-.05-.89-.11-1.33-.19-.23-.04-.48-.08-.71-.12-.11,0-.23-.04-.35-.07-.28-.06-.55-.11-.83-.17-4.02-.91-7.69-2.59-10.74-5,1.9-.51,3.75-1.23,5.49-1.94,6.03-2.48,12-4.02,16.47-2.92,3.54.87,6.28,3.51,7.53,8.85Z"/><path class="cls-2" d="m462.27,104.05c-2.09,8.99-8.48,17.89-18.15,23.86-1.15.72-2.33,1.37-3.52,1.96-.1.06-.21.1-.32.16-.28.13-.55.26-.83.39-.09.05-.2.09-.29.14-1.58-7.12-5.35-10.39-10.4-11.63-5.8-1.42-12.99.36-20.07,3.27-2.06.85-4.28,1.69-6.29,2.02-.64.1-1.73.61-2.09.11-.25-.35-.49-.7-.73-1.06-.13-.2-.28-.38-.4-.59-.89-1.44-1.6-2.97-2.12-4.53-.1-.28-.19-.55-.27-.83,0-.03-.02-.06-.03-.08-.06-.2-.12-.42-.18-.63-.07-.2-.12-.42-.17-.62,0-.04-.02-.07-.02-.1-1.19-5.19-.62-10.8,1.48-16.21.09-.23.19-.47.29-.71.12-.29.25-.59.39-.88.02-.05.04-.09.06-.14,2.58-5.7,6.86-11.07,12.57-15.37.14-.11.28-.22.43-.33.98-.73,2-1.42,3.06-2.07,1.24-.76,2.5-1.46,3.78-2.09.42-.2.84-.4,1.25-.59,1.74-.8,3.5-1.46,5.26-1.99.03,0,.07-.02.09-.03,3.77,3.68,4.23,8.31,4.71,13.66l.23,2.44c.76,7.52,3.95,12.49,8.23,15.25,2.96,1.9,6.44,2.74,10.04,2.62,3.6-.12,7.32-1.2,10.73-3.14,1.05-.61,2.08-1.28,3.05-2.04l.21-.22Z"/><path class="cls-2" d="m463,96.89v.05c0,2.73-3.85,4.1-6.03,5.34-2.46,1.4-5.14,2.18-7.74,2.26-2.62.08-5.17-.53-7.35-1.93-3.4-2.18-5.93-6.26-6.57-12.52l-.22-2.4c-.46-5.12-.87-9.63-3.7-13.59,11.71-1.56,22.72,2.39,28.22,11.31,2.16,3.5,3.26,7.42,3.39,11.48Z"/><path class="cls-1" d="m457.43,82.33c-6.02-7.06-15.86-9.8-26.06-8.26,0,0,0,.02.02.03,2.83,3.97,3.24,8.47,3.7,13.59l.22,2.4c.64,6.27,3.17,10.34,6.57,12.52,2.18,1.4,4.73,2.01,7.35,1.93,2.6-.08,5.28-.87,7.74-2.26,2.19-1.25,6.03-2.62,6.03-5.34v-.05c-.09-5.42-1.99-10.37-5.57-14.56Zm4.83,21.72l-.21.22c-.98.75-2,1.43-3.05,2.04-3.41,1.94-7.12,3.02-10.73,3.14-3.59.12-7.08-.72-10.04-2.62-4.28-2.76-7.47-7.73-8.23-15.25l-.23-2.44c-.48-5.35-.94-9.98-4.71-13.66-.03,0-.07.02-.09.03-1.75.57-3.51,1.23-5.26,1.99-.41.19-.83.38-1.25.59-2.36,1.13-4.68,2.5-6.84,4.15-.15.1-.29.21-.43.33-5.66,4.45-9.96,9.77-12.57,15.37-.02.05-.04.09-.06.14-.14.29-.27.59-.39.88-.1.23-.2.47-.29.71-2.16,5.38-2.75,10.96-1.48,16.21,0,.04,0,.07.02.1.05.2.1.42.17.62.06.21.12.43.18.63,0,.03.02.06.03.08.08.28.17.55.27.83.61,1.76,1.45,3.47,2.52,5.12.23.36.47.71.73,1.06.35.49,1.44,0,2.09-.11,2.01-.33,4.24-1.17,6.29-2.02,7.09-2.9,14.27-4.68,20.07-3.27,5.05,1.24,8.82,4.51,10.4,11.63.09-.05.2-.09.29-.14.28-.13.55-.26.83-.39.1-.06.21-.1.32-.16,2.5-1.21,4.94-2.55,7.23-4.36,7.52-5.91,12.71-13.57,14.44-21.47h0Zm-35.87,19.65c-4.47-1.1-10.44.45-16.47,2.92-1.74.71-3.59,1.42-5.49,1.94-.02,0-.05,0-.07.02,2.87,2.44,6.7,4.09,10.81,4.98.28.06.55.11.83.17.12.03.24.06.35.07.23.04.48.08.71.12.44.07.88.14,1.33.19,5.6.73,11.35.15,15.51-1.54,0,0,0,0,.02,0-1.26-5.34-3.99-7.99-7.53-8.85Z"/><path class="cls-3" d="m74.52,268.58c-2.71-1.76-7.75-3.67-11.66-3.67s-5.27,1.6-5.27,3.43c0,1.28,1.28,2.63,3.51,3.91l6.15,3.51c7.19,4.15,10.14,9.18,10.14,15.49,0,8.94-5.75,17.01-18.92,17.01-5.19,0-10.3-1.12-13.89-2.55v-14.77c2.95,2.32,8.54,4.63,13.33,4.63,3.19,0,5.03-1.2,5.03-3.51,0-1.28-1.04-2.48-3.59-3.91l-6.47-3.67c-7.58-4.31-9.82-9.18-9.82-15.65,0-7.91,4.87-16.61,19.88-16.61,3.75,0,8.06.8,11.58,2.24v14.13Z"/><path class="cls-3" d="m101.99,253.08h19.8c10.86,0,18.37,6.63,18.37,17.65s-7.51,17.65-18.37,17.65h-6.23v19h-13.57v-54.3Zm19.64,13.1h-6.07v9.1h6.07c2.64,0,4.55-1.6,4.55-4.55s-1.92-4.55-4.55-4.55Z"/><path class="cls-3" d="m188.95,252.21c15.89,0,27.95,12.14,27.95,28.03s-12.06,28.03-27.95,28.03-27.95-12.14-27.95-28.03,12.06-28.03,27.95-28.03Zm0,42.48c7.91,0,13.97-6.47,13.97-14.45s-6.07-14.45-13.97-14.45-13.97,6.55-13.97,14.45,5.99,14.45,13.97,14.45Z"/><path class="cls-3" d="m241.26,253.08h13.57v19.64l10.86-19.64h15.73l-13.65,22.28,14.45,32.02h-15.81l-8.46-20.36-3.11,5.03v15.33h-13.57v-54.3Z"/><path class="cls-3" d="m334.76,297.56h-18.13l-3.27,9.82h-15.17l19.96-54.3h15.17l19.96,54.3h-15.17l-3.35-9.82Zm-13.65-13.1h9.26l-4.63-13.65-4.63,13.65Z"/><path class="cls-3" d="m388.42,279.75v27.63h-13.57v-47.19l-3.75-6.23v-.88h15.97l20.12,30.66v-30.66h13.57v54.3h-13.57l-18.76-27.63Z"/><path class="cls-3" d="m448.32,307.38v-54.3h31.78v13.1h-18.21v7.27h16.61v13.09h-16.61v7.75h18.21v13.1h-31.78Z"/><path class="cls-3" d="m92.9,323.04h8.28c4.9,0,8.32,2.57,8.32,6.92,0,3.49-2.24,5.49-5.01,6.21,3.19,1.46,5.47,5.63,6.23,11.13h-4.48c-1.03-5.67-3.76-9.59-7.03-9.59h-1.98v9.59h-4.33v-24.25Zm8.24,3.89h-3.91v6.88h3.91c2.24,0,3.88-1.21,3.88-3.42s-1.63-3.46-3.88-3.46Z"/><path class="cls-3" d="m137.01,341.3h-9.84l-2.32,5.99h-4.83l9.65-24.25h4.83l9.65,24.25h-4.83l-2.32-5.99Zm-8.43-3.89h7.03l-3.5-9.06-3.53,9.06Z"/><path class="cls-3" d="m172.54,346.18c-1.82.93-3.99,1.5-6.31,1.5-7.56,0-13.3-5.42-13.3-12.52s5.74-12.52,13.3-12.52c2.32,0,4.48.57,6.31,1.5v4.71c-1.56-1.28-3.8-2.14-6.31-2.14-5.05,0-8.85,3.74-8.85,8.45s3.8,8.45,8.85,8.45c2.51,0,4.79-.86,6.31-2.1v4.67Z"/><path class="cls-3" d="m196.48,322.65c7.56,0,13.3,5.42,13.3,12.52,0,2.96-1.03,5.63-2.77,7.7l2.66,2.46-2.96,2.78-2.74-2.57c-2.09,1.36-4.67,2.14-7.48,2.14-7.56,0-13.3-5.42-13.3-12.52s5.74-12.52,13.3-12.52Zm0,20.97c1.56,0,3-.43,4.14-1.21l-4.52-4.24,2.96-2.82,4.67,4.39c.99-1.21,1.56-2.82,1.56-4.56,0-4.71-3.84-8.45-8.81-8.45s-8.85,3.74-8.85,8.45,3.8,8.45,8.85,8.45Z"/><path class="cls-3" d="m241.62,323.04v15.37c0,5.74-3.72,9.27-9.61,9.27s-9.61-3.53-9.61-9.27v-15.37h4.33v15.66c0,3,2.09,5.03,5.32,5.03s5.24-2.03,5.24-5.03v-15.66h4.33Z"/><path class="cls-3" d="m255.49,347.29v-24.25h14.29v3.89h-9.95v6.21h9.19v3.89h-9.19v6.38h9.95v3.89h-14.29Z"/><path class="cls-3" d="m287.3,326.93h-6.57v-3.89h17.48v3.89h-6.57v20.36h-4.33v-20.36Z"/><path class="cls-3" d="m343.61,346.18c-1.82.93-3.99,1.5-6.31,1.5-7.56,0-13.3-5.42-13.3-12.52s5.74-12.52,13.3-12.52c2.32,0,4.48.57,6.31,1.5v4.71c-1.56-1.28-3.8-2.14-6.31-2.14-5.05,0-8.85,3.74-8.85,8.45s3.8,8.45,8.85,8.45c2.51,0,4.79-.86,6.31-2.1v4.67Z"/><path class="cls-3" d="m356.41,347.29v-24.25h4.33v20.36h9.95v3.89h-14.29Z"/><path class="cls-3" d="m401.1,323.04v15.37c0,5.74-3.72,9.27-9.61,9.27s-9.61-3.53-9.61-9.27v-15.37h4.33v15.66c0,3,2.09,5.03,5.32,5.03s5.24-2.03,5.24-5.03v-15.66h4.33Z"/><path class="cls-3" d="m414.97,323.04h8.28c4.56,0,7.9,2.5,7.9,6.38,0,2.67-1.33,4.46-3.38,5.38,2.47.96,4.14,2.89,4.14,5.85,0,4.07-3.53,6.63-8.36,6.63h-8.59v-24.25Zm8.28,3.89h-3.95v5.96h3.95c1.9,0,3.46-.89,3.46-2.96s-1.56-3-3.46-3Zm.3,9.88h-4.26v6.6h4.26c2.17,0,3.91-1.03,3.91-3.28s-1.75-3.32-3.91-3.32Z"/></g></svg>