<svg width="524" height="209" viewBox="0 0 524 209" fill="none" xmlns="http://www.w3.org/2000/svg">
<path d="M453.63 132.38C444.1 139.79 432.01 144.53 419.66 144.53C409.61 144.53 400.06 141.36 393.33 134.62L392.01 133.1C386.32 126.57 384.12 118.4 384.74 110.1C384.83 108.93 392.9 107.57 393.1 106.39L307.15 108.34L391.51 98.81C391.7 98.29 387.47 98.27 387.67 97.75C388 96.92 388.37 96.09 388.75 95.27L323.06 97.29L395.74 88.47C396.15 87.85 393.19 87.66 393.64 87.05C394.21 86.27 394.8 85.5 395.41 84.75L292.87 95.06L415.55 73.72C415.89 73.47 408.87 72.74 410.17 71.95C418.65 66.79 428.55 63.68 438.61 63.68C449.37 63.68 459.51 67.36 466.26 75.11L470.41 79.88L475.71 75.93L523.17 39.01L519.04 34.27C501.86 14.54 476.1 4.77 448.63 4.77C419.18 4.77 390.45 15.88 367.68 33.54L367.56 33.63C359.15 40.15 351.56 47.59 345.04 55.73C344.71 49.25 343.36 43.18 340.98 37.54C336.55 27.04 329.05 18.87 318.54 12.98C308.02 7.09 295.29 4.14 280.34 4.14H184.47L162.23 116.69C161.94 115.78 161.61 114.89 161.25 114.02C157.96 106.04 152.2 99.15 144.02 93.4C135.83 87.65 125.05 82.33 111.69 77.39L107.55 75.82C101.07 73.35 96.43 71.45 93.56 70.17C90.69 68.89 88.57 67.7 87.2 66.56C85.84 65.42 85.45 64.16 85.55 62.71C85.82 58.89 87.47 57.67 89.56 56.15C91.65 54.63 95.03 53.87 99.74 53.87C107.52 53.87 115.03 55.54 122.21 58.86C123.04 59.24 127.09 61.26 130.52 62.97L167.42 16.29C162.31 12.87 156.88 9.96 151.15 7.55C139.14 2.52 124.63 0 107.63 0C90.63 0 75.32 2.85 63.18 8.55C51.04 14.25 41.64 21.66 34.98 30.78C28.31 39.9 23.9 49.78 21.8 60.42C18.16 78.85 21.5 93.01 31.79 102.89C42.07 112.77 54.92 120.08 70.37 124.83C79.37 127.49 85.91 129.91 89.97 132.14C94.04 134.37 95.79 135.23 97.23 137.94C98.06 139.51 98.14 141.36 97.75 143.35C96.47 149.81 89.64 153.04 77.24 153.04C68.94 153.04 61.25 151.28 54.1 147.82C51.43 146.53 43.85 142.37 38.51 139.15L0 186.43C18.48 200.86 41.15 208.08 68.03 208.08C84.62 208.08 99.66 205.32 113.15 199.81C126.63 194.3 137.68 186.6 146.24 176.72C148.26 174.39 150.11 171.98 151.79 169.48L144.9 204.37H169.66L182.13 182.77H175.26L188.99 158.98L202.72 182.77H195.85L204.82 198.31L223.03 166.76H209.29L229.55 131.68H218.97L240.13 95.03L261.29 131.68H250.71L270.97 166.76H257.23L278.95 204.37H330.04L303.02 127.28C309.5 123.73 315.32 119.59 320.48 114.86C318.79 136.2 324.65 157.19 339.24 173.95L341.2 176.19H341.38C358.51 194.4 383.27 203.45 409.66 203.45C439.14 203.45 467.94 192.39 490.71 174.67L495.89 170.64L458.96 128.23L453.63 132.37V132.38ZM278.6 73.55C278.02 76.5 276.69 79.3 274.58 81.96C272.47 84.62 269.84 86.76 266.76 88.37C263.68 89.98 260.49 90.79 257.22 90.79L231.79 88.87L237.94 57.73H264.37C268.88 57.73 272.65 59.11 275.64 61.86C278.63 64.62 279.6 68.51 278.6 73.55Z" fill="white"/>
<path fill-rule="evenodd" clip-rule="evenodd" d="M457.43 82.35C451.41 75.29 441.57 72.55 431.37 74.09C431.37 74.09 431.37 74.11 431.39 74.12C434.22 78.09 434.63 82.59 435.09 87.71L435.31 90.11C435.95 96.38 438.48 100.45 441.88 102.63C444.06 104.03 446.61 104.64 449.23 104.56C451.83 104.48 454.51 103.69 456.97 102.3C459.16 101.05 463 99.68 463 96.96V96.91C462.91 91.49 461.01 86.54 457.43 82.35ZM462.26 104.07L462.05 104.29C461.07 105.04 460.05 105.72 459 106.33C455.59 108.27 451.88 109.35 448.27 109.47C444.68 109.59 441.19 108.75 438.23 106.85C433.95 104.09 430.76 99.12 430 91.6L429.77 89.16C429.29 83.81 428.83 79.18 425.06 75.5C425.03 75.5 424.99 75.52 424.97 75.53C423.22 76.1 421.46 76.76 419.71 77.52C419.3 77.71 418.88 77.9 418.46 78.11C416.1 79.24 413.78 80.61 411.62 82.26C411.47 82.36 411.33 82.47 411.19 82.59C405.53 87.04 401.23 92.36 398.62 97.96C398.6 98.01 398.58 98.05 398.56 98.1C398.42 98.39 398.29 98.69 398.17 98.98C398.07 99.21 397.97 99.45 397.88 99.69C395.72 105.07 395.13 110.65 396.4 115.9C396.4 115.94 396.4 115.97 396.42 116C396.47 116.2 396.52 116.42 396.59 116.62C396.65 116.83 396.71 117.05 396.77 117.25C396.77 117.28 396.79 117.31 396.8 117.33C396.88 117.61 396.97 117.88 397.07 118.16C397.68 119.92 398.52 121.63 399.59 123.28C399.82 123.64 400.06 123.99 400.32 124.34C400.67 124.83 401.76 124.34 402.41 124.23C404.42 123.9 406.65 123.06 408.7 122.21C415.79 119.31 422.97 117.53 428.77 118.94C433.82 120.18 437.59 123.45 439.17 130.57C439.26 130.52 439.37 130.48 439.46 130.43C439.74 130.3 440.01 130.17 440.29 130.04C440.39 129.98 440.5 129.94 440.61 129.88C443.11 128.67 445.55 127.33 447.84 125.52C455.36 119.61 460.55 111.95 462.28 104.05L462.26 104.07ZM426.39 123.72C421.92 122.62 415.95 124.17 409.92 126.64C408.18 127.35 406.33 128.06 404.43 128.58C404.41 128.58 404.38 128.58 404.36 128.6C407.23 131.04 411.06 132.69 415.17 133.58C415.45 133.64 415.72 133.69 416 133.75C416.12 133.78 416.24 133.81 416.35 133.82C416.58 133.86 416.83 133.9 417.06 133.94C417.5 134.01 417.94 134.08 418.39 134.13C423.99 134.86 429.74 134.28 433.9 132.59C433.9 132.59 433.9 132.59 433.92 132.59C432.66 127.25 429.93 124.6 426.39 123.74V123.72Z" fill="#C2E119"/>
</svg>
