<?xml version="1.0" encoding="UTF-8"?>
<svg xmlns="http://www.w3.org/2000/svg" version="1.1" viewBox="0 0 1500 1500">
  <!-- Generator: Adobe Illustrator 29.7.1, SVG Export Plug-In . SVG Version: 2.1.1 Build 8)  -->
  <defs>
    <style>
      .st0 {
        font-family: AircoStd-BoldItalic, 'Airco Std';
        font-size: 48px;
        font-style: italic;
        font-weight: 700;
        letter-spacing: 0em;
      }

      .st0, .st1 {
        fill: #f2f2f2;
      }

      .st1, .st2 {
        fill-rule: evenodd;
      }

      .st3 {
        fill: #fff;
      }

      .st4, .st2 {
        fill: #d4de25;
      }
    </style>
  </defs>
  <g id="Layer_1">
    <path class="st3" d="M545.1,354.1c-33-4-68.4,7.3-105.4,33.6-33.1,23.6-59.2,57.2-71.7,92.2-.6,1.7-1.2,3.5-1.8,5.2-4.2,13.2-9.1,26.1-15.1,38.6-1.7,3.5-3.5,7.1-5.3,10.8-11.8,23.4-28.3,51.7-49.2,77.9-5.2,6.5-11.1,12.2-17.7,17.2l15.8,22.1c6.8-4.6,14.2-8.4,22-11.2,31.4-11.2,63.5-17.5,89.4-21.1,4.1-.6,8.2-1.1,12.1-1.5,13.8-1.6,27.6-2.1,41.4-1.7,1.8,0,3.6,0,5.5,0,37.2-.4,77.5-14.2,110.5-37.8,37-26.4,59.2-56.2,66.1-88.7,6.3-29.6-.9-59.8-20.6-87.5-19.8-27.7-46.1-44.3-76.1-48ZM452.6,606.3l-4-5.6,7.7-5.5,5.5,7.7-5.1,3.6c-1.4,0-2.8-.1-4.2-.2ZM374.3,491l5.1-3.6,5.5,7.7-7.7,5.5-4-5.6c.3-1.3.7-2.7,1.1-4ZM556.8,413.1l-7.7,5.5-5.5-7.7,7.7-5.5,5.5,7.7ZM552.6,404.5l7.7-5.5,5.5,7.7-7.7,5.5-5.5-7.7ZM569.6,485.3l-5.5-7.7,7.7-5.5,5.5,7.7-7.7,5.5ZM578.2,481.1l5.5,7.7-7.7,5.5-5.5-7.7,7.7-5.5ZM479.8,549.4l-5.5-7.7,7.7-5.5,5.5,7.7-7.7,5.5ZM488.4,545.2l5.5,7.7-7.7,5.5-5.5-7.7,7.7-5.5ZM443.5,482.3l5.5,7.7-7.7,5.5-5.5-7.7,7.7-5.5ZM434.9,486.5l-5.5-7.7,7.7-5.5,5.5,7.7-7.7,5.5ZM533.4,418.2l5.5,7.7-7.7,5.5-5.5-7.7,7.7-5.5ZM524.7,422.5l-5.5-7.7,7.7-5.5,5.5,7.7-7.7,5.5ZM455.1,514.8l7.7-5.5,5.5,7.7-7.7,5.5-5.5-7.7ZM459.3,523.4l-7.7,5.5-5.5-7.7,7.7-5.5,5.5,7.7ZM482,495.5l7.7-5.5,5.5,7.7-7.7,5.5-5.5-7.7ZM486.2,504.1l-7.7,5.5-5.5-7.7,7.7-5.5,5.5,7.7ZM491,489.1l7.7-5.5,5.5,7.7-7.7,5.5-5.5-7.7ZM500,482.7l7.7-5.5,5.5,7.7-7.7,5.5-5.5-7.7ZM509,476.3l7.7-5.5,5.5,7.7-7.7,5.5-5.5-7.7ZM517.9,469.9l7.7-5.5,5.5,7.7-7.7,5.5-5.5-7.7ZM517,468.6l-5.5-7.7,7.7-5.5,5.5,7.7-7.7,5.5ZM515.7,469.5l-7.7,5.5-5.5-7.7,7.7-5.5,5.5,7.7ZM506.8,475.9l-7.7,5.5-5.5-7.7,7.7-5.5,5.5,7.7ZM497.8,482.3l-7.7,5.5-5.5-7.7,7.7-5.5,5.5,7.7ZM488.8,488.8l-7.7,5.5-5.5-7.7,7.7-5.5,5.5,7.7ZM479.8,495.2l-7.7,5.5-5.5-7.7,7.7-5.5,5.5,7.7ZM470.8,501.6l-7.7,5.5-5.5-7.7,7.7-5.5,5.5,7.7ZM471.7,502.9l5.5,7.7-7.7,5.5-5.5-7.7,7.7-5.5ZM478.2,511.8l5.5,7.7-7.7,5.5-5.5-7.7,7.7-5.5ZM479.4,510.9l7.7-5.5,5.5,7.7-7.7,5.5-5.5-7.7ZM488.4,504.5l7.7-5.5,5.5,7.7-7.7,5.5-5.5-7.7ZM497.4,498.1l7.7-5.5,5.5,7.7-7.7,5.5-5.5-7.7ZM506.4,491.7l7.7-5.5,5.5,7.7-7.7,5.5-5.5-7.7ZM515.4,485.3l7.7-5.5,5.5,7.7-7.7,5.5-5.5-7.7ZM524.3,478.9l7.7-5.5,5.5,7.7-7.7,5.5-5.5-7.7ZM533.3,472.5l7.7-5.5,5.5,7.7-7.7,5.5-5.5-7.7ZM532.4,471.2l-5.5-7.7,7.7-5.5,5.5,7.7-7.7,5.5ZM526,462.2l-5.5-7.7,7.7-5.5,5.5,7.7-7.7,5.5ZM529.5,448.1l7.7-5.5,5.5,7.7-7.7,5.5-5.5-7.7ZM528.6,446.8l-5.5-7.7,7.7-5.5,5.5,7.7-7.7,5.5ZM527.3,447.7l-7.7,5.5-5.5-7.7,7.7-5.5,5.5,7.7ZM518.3,454.1l-7.7,5.5-5.5-7.7,7.7-5.5,5.5,7.7ZM509.3,460.6l-7.7,5.5-5.5-7.7,7.7-5.5,5.5,7.7ZM500.3,467l-7.7,5.5-5.5-7.7,7.7-5.5,5.5,7.7ZM491.4,473.4l-7.7,5.5-5.5-7.7,7.7-5.5,5.5,7.7ZM482.4,479.8l-7.7,5.5-5.5-7.7,7.7-5.5,5.5,7.7ZM473.4,486.2l-7.7,5.5-5.5-7.7,7.7-5.5,5.5,7.7ZM464.4,492.6l-7.7,5.5-5.5-7.7,7.7-5.5,5.5,7.7ZM455.4,499l-7.7,5.5-5.5-7.7,7.7-5.5,5.5,7.7ZM456.4,500.3l5.5,7.7-7.7,5.5-5.5-7.7,7.7-5.5ZM469.2,518.2l5.5,7.7-7.7,5.5-5.5-7.7,7.7-5.5ZM475.6,527.2l5.5,7.7-7.7,5.5-5.5-7.7,7.7-5.5ZM476.9,526.3l7.7-5.5,5.5,7.7-7.7,5.5-5.5-7.7ZM485.8,519.9l7.7-5.5,5.5,7.7-7.7,5.5-5.5-7.7ZM494.8,513.5l7.7-5.5,5.5,7.7-7.7,5.5-5.5-7.7ZM503.8,507.1l7.7-5.5,5.5,7.7-7.7,5.5-5.5-7.7ZM512.8,500.7l7.7-5.5,5.5,7.7-7.7,5.5-5.5-7.7ZM521.8,494.3l7.7-5.5,5.5,7.7-7.7,5.5-5.5-7.7ZM530.7,487.9l7.7-5.5,5.5,7.7-7.7,5.5-5.5-7.7ZM539.7,481.5l7.7-5.5,5.5,7.7-7.7,5.5-5.5-7.7ZM548.7,475l7.7-5.5,5.5,7.7-7.7,5.5-5.5-7.7ZM547.8,473.8l-5.5-7.7,7.7-5.5,5.5,7.7-7.7,5.5ZM541.4,464.8l-5.5-7.7,7.7-5.5,5.5,7.7-7.7,5.5ZM544.9,450.7l7.7-5.5,5.5,7.7-7.7,5.5-5.5-7.7ZM544,449.4l-5.5-7.7,7.7-5.5,5.5,7.7-7.7,5.5ZM537.6,440.4l-5.5-7.7,7.7-5.5,5.5,7.7-7.7,5.5ZM529.9,432.3l-7.7,5.5-5.5-7.7,7.7-5.5,5.5,7.7ZM520.9,438.8l-7.7,5.5-5.5-7.7,7.7-5.5,5.5,7.7ZM511.9,445.2l-7.7,5.5-5.5-7.7,7.7-5.5,5.5,7.7ZM502.9,451.6l-7.7,5.5-5.5-7.7,7.7-5.5,5.5,7.7ZM493.9,458l-7.7,5.5-5.5-7.7,7.7-5.5,5.5,7.7ZM485,464.4l-7.7,5.5-5.5-7.7,7.7-5.5,5.5,7.7ZM476,470.8l-7.7,5.5-5.5-7.7,7.7-5.5,5.5,7.7ZM467,477.2l-7.7,5.5-5.5-7.7,7.7-5.5,5.5,7.7ZM458,483.6l-7.7,5.5-5.5-7.7,7.7-5.5,5.5,7.7ZM440.1,496.4l-7.7,5.5-5.5-7.7,7.7-5.5,5.5,7.7ZM441,497.7l5.5,7.7-7.7,5.5-5.5-7.7,7.7-5.5ZM447.4,506.7l5.5,7.7-7.7,5.5-5.5-7.7,7.7-5.5ZM443.9,520.8l-7.7,5.5-5.5-7.7,7.7-5.5,5.5,7.7ZM444.8,522.1l5.5,7.7-7.7,5.5-5.5-7.7,7.7-5.5ZM451.2,531.1l5.5,7.7-7.7,5.5-5.5-7.7,7.7-5.5ZM452.5,530.1l7.7-5.5,5.5,7.7-7.7,5.5-5.5-7.7ZM466.6,533.6l5.5,7.7-7.7,5.5-5.5-7.7,7.7-5.5ZM473,542.6l5.5,7.7-7.7,5.5-5.5-7.7,7.7-5.5ZM483.3,535.3l7.7-5.5,5.5,7.7-7.7,5.5-5.5-7.7ZM492.2,528.9l7.7-5.5,5.5,7.7-7.7,5.5-5.5-7.7ZM501.2,522.5l7.7-5.5,5.5,7.7-7.7,5.5-5.5-7.7ZM510.2,516.1l7.7-5.5,5.5,7.7-7.7,5.5-5.5-7.7ZM519.2,509.7l7.7-5.5,5.5,7.7-7.7,5.5-5.5-7.7ZM528.2,503.3l7.7-5.5,5.5,7.7-7.7,5.5-5.5-7.7ZM537.2,496.8l7.7-5.5,5.5,7.7-7.7,5.5-5.5-7.7ZM546.1,490.4l7.7-5.5,5.5,7.7-7.7,5.5-5.5-7.7ZM555.1,484l7.7-5.5,5.5,7.7-7.7,5.5-5.5-7.7ZM563.2,476.3l-5.5-7.7,7.7-5.5,5.5,7.7-7.7,5.5ZM556.8,467.4l-5.5-7.7,7.7-5.5,5.5,7.7-7.7,5.5ZM560.3,453.3l7.7-5.5,5.5,7.7-7.7,5.5-5.5-7.7ZM559.4,452l-5.5-7.7,7.7-5.5,5.5,7.7-7.7,5.5ZM552.9,443l-5.5-7.7,7.7-5.5,5.5,7.7-7.7,5.5ZM546.5,434l-5.5-7.7,7.7-5.5,5.5,7.7-7.7,5.5ZM540.1,425l-5.5-7.7,7.7-5.5,5.5,7.7-7.7,5.5ZM533.7,416l-5.5-7.7,7.7-5.5,5.5,7.7-7.7,5.5ZM527.3,407.1l-5.5-7.7,7.7-5.5,5.5,7.7-7.7,5.5ZM526,408l-7.7,5.5-5.5-7.7,7.7-5.5,5.5,7.7ZM517.1,414.4l-7.7,5.5-5.5-7.7,7.7-5.5,5.5,7.7ZM518,415.7l5.5,7.7-7.7,5.5-5.5-7.7,7.7-5.5ZM514.5,429.8l-7.7,5.5-5.5-7.7,7.7-5.5,5.5,7.7ZM505.5,436.2l-7.7,5.5-5.5-7.7,7.7-5.5,5.5,7.7ZM496.5,442.6l-7.7,5.5-5.5-7.7,7.7-5.5,5.5,7.7ZM487.5,449l-7.7,5.5-5.5-7.7,7.7-5.5,5.5,7.7ZM478.6,455.4l-7.7,5.5-5.5-7.7,7.7-5.5,5.5,7.7ZM469.6,461.8l-7.7,5.5-5.5-7.7,7.7-5.5,5.5,7.7ZM460.6,468.2l-7.7,5.5-5.5-7.7,7.7-5.5,5.5,7.7ZM451.6,474.6l-7.7,5.5-5.5-7.7,7.7-5.5,5.5,7.7ZM437.5,471.1l-5.5-7.7,7.7-5.5,5.5,7.7-7.7,5.5ZM436.2,472.1l-7.7,5.5-5.5-7.7,7.7-5.5,5.5,7.7ZM427.2,478.5l-7.7,5.5-5.5-7.7,7.7-5.5,5.5,7.7ZM428.2,479.7l5.5,7.7-7.7,5.5-5.5-7.7,7.7-5.5ZM424.7,493.8l-7.7,5.5-5.5-7.7,7.7-5.5,5.5,7.7ZM425.6,495.1l5.5,7.7-7.7,5.5-5.5-7.7,7.7-5.5ZM432,504.1l5.5,7.7-7.7,5.5-5.5-7.7,7.7-5.5ZM428.5,518.2l-7.7,5.5-5.5-7.7,7.7-5.5,5.5,7.7ZM429.4,519.5l5.5,7.7-7.7,5.5-5.5-7.7,7.7-5.5ZM435.8,528.5l5.5,7.7-7.7,5.5-5.5-7.7,7.7-5.5ZM442.2,537.5l5.5,7.7-7.7,5.5-5.5-7.7,7.7-5.5ZM448.6,546.4l5.5,7.7-7.7,5.5-5.5-7.7,7.7-5.5ZM449.9,545.5l7.7-5.5,5.5,7.7-7.7,5.5-5.5-7.7ZM464,549l5.5,7.7-7.7,5.5-5.5-7.7,7.7-5.5ZM470.4,558l5.5,7.7-7.7,5.5-5.5-7.7,7.7-5.5ZM471.7,557.1l7.7-5.5,5.5,7.7-7.7,5.5-5.5-7.7ZM485.8,560.6l5.5,7.7-7.7,5.5-5.5-7.7,7.7-5.5ZM487.1,559.7l7.7-5.5,5.5,7.7-7.7,5.5-5.5-7.7ZM496.1,553.3l7.7-5.5,5.5,7.7-7.7,5.5-5.5-7.7ZM495.2,552l-5.5-7.7,7.7-5.5,5.5,7.7-7.7,5.5ZM498.7,537.9l7.7-5.5,5.5,7.7-7.7,5.5-5.5-7.7ZM507.6,531.5l7.7-5.5,5.5,7.7-7.7,5.5-5.5-7.7ZM516.6,525l7.7-5.5,5.5,7.7-7.7,5.5-5.5-7.7ZM525.6,518.6l7.7-5.5,5.5,7.7-7.7,5.5-5.5-7.7ZM534.6,512.2l7.7-5.5,5.5,7.7-7.7,5.5-5.5-7.7ZM543.6,505.8l7.7-5.5,5.5,7.7-7.7,5.5-5.5-7.7ZM552.5,499.4l7.7-5.5,5.5,7.7-7.7,5.5-5.5-7.7ZM561.5,493l7.7-5.5,5.5,7.7-7.7,5.5-5.5-7.7ZM575.6,496.5l5.5,7.7-7.7,5.5-5.5-7.7,7.7-5.5ZM576.9,495.6l7.7-5.5,5.5,7.7-7.7,5.5-5.5-7.7ZM585.9,489.2l7.7-5.5,5.5,7.7-7.7,5.5-5.5-7.7ZM585,487.9l-5.5-7.7,7.7-5.5,5.5,7.7-7.7,5.5ZM578.6,478.9l-5.5-7.7,7.7-5.5,5.5,7.7-7.7,5.5ZM572.2,469.9l-5.5-7.7,7.7-5.5,5.5,7.7-7.7,5.5ZM575.7,455.8l7.7-5.5,5.5,7.7-7.7,5.5-5.5-7.7ZM574.7,454.5l-5.5-7.7,7.7-5.5,5.5,7.7-7.7,5.5ZM568.3,445.6l-5.5-7.7,7.7-5.5,5.5,7.7-7.7,5.5ZM561.9,436.6l-5.5-7.7,7.7-5.5,5.5,7.7-7.7,5.5ZM555.5,427.6l-5.5-7.7,7.7-5.5,5.5,7.7-7.7,5.5ZM542.7,409.6l-5.5-7.7,7.7-5.5,5.5,7.7-7.7,5.5ZM536.3,400.7l-5.5-7.7,7.7-5.5,5.5,7.7-7.7,5.5ZM529.9,391.7l-5.5-7.7,7.7-5.5,5.5,7.7-7.7,5.5ZM528.6,392.6l-7.7,5.5-5.5-7.7,7.7-5.5,5.5,7.7ZM519.6,399l-7.7,5.5-5.5-7.7,7.7-5.5,5.5,7.7ZM510.6,405.4l-7.7,5.5-5.5-7.7,7.7-5.5,5.5,7.7ZM501.7,411.8l-7.7,5.5-5.5-7.7,7.7-5.5,5.5,7.7ZM502.6,413.1l5.5,7.7-7.7,5.5-5.5-7.7,7.7-5.5ZM499.1,427.2l-7.7,5.5-5.5-7.7,7.7-5.5,5.5,7.7ZM490.1,433.6l-7.7,5.5-5.5-7.7,7.7-5.5,5.5,7.7ZM481.1,440l-7.7,5.5-5.5-7.7,7.7-5.5,5.5,7.7ZM472.1,446.4l-7.7,5.5-5.5-7.7,7.7-5.5,5.5,7.7ZM463.2,452.8l-7.7,5.5-5.5-7.7,7.7-5.5,5.5,7.7ZM454.2,459.2l-7.7,5.5-5.5-7.7,7.7-5.5,5.5,7.7ZM440.1,455.7l-5.5-7.7,7.7-5.5,5.5,7.7-7.7,5.5ZM438.8,456.7l-7.7,5.5-5.5-7.7,7.7-5.5,5.5,7.7ZM429.8,463.1l-7.7,5.5-5.5-7.7,7.7-5.5,5.5,7.7ZM420.8,469.5l-7.7,5.5-5.5-7.7,7.7-5.5,5.5,7.7ZM411.8,475.9l-7.7,5.5-5.5-7.7,7.7-5.5,5.5,7.7ZM412.8,477.2l5.5,7.7-7.7,5.5-5.5-7.7,7.7-5.5ZM409.3,491.3l-7.7,5.5-5.5-7.7,7.7-5.5,5.5,7.7ZM410.2,492.6l5.5,7.7-7.7,5.5-5.5-7.7,7.7-5.5ZM416.6,501.5l5.5,7.7-7.7,5.5-5.5-7.7,7.7-5.5ZM413.1,515.6l-7.7,5.5-5.5-7.7,7.7-5.5,5.5,7.7ZM414,516.9l5.5,7.7-7.7,5.5-5.5-7.7,7.7-5.5ZM420.4,525.9l5.5,7.7-7.7,5.5-5.5-7.7,7.7-5.5ZM426.8,534.9l5.5,7.7-7.7,5.5-5.5-7.7,7.7-5.5ZM433.2,543.9l5.5,7.7-7.7,5.5-5.5-7.7,7.7-5.5ZM439.7,552.9l5.5,7.7-7.7,5.5-5.5-7.7,7.7-5.5ZM446.1,561.8l5.5,7.7-7.7,5.5-5.5-7.7,7.7-5.5ZM447.3,560.9l7.7-5.5,5.5,7.7-7.7,5.5-5.5-7.7ZM461.4,564.4l5.5,7.7-7.7,5.5-5.5-7.7,7.7-5.5ZM467.9,573.4l5.5,7.7-7.7,5.5-5.5-7.7,7.7-5.5ZM469.1,572.5l7.7-5.5,5.5,7.7-7.7,5.5-5.5-7.7ZM483.2,576l5.5,7.7-7.7,5.5-5.5-7.7,7.7-5.5ZM484.5,575.1l7.7-5.5,5.5,7.7-7.7,5.5-5.5-7.7ZM493.5,568.6l7.7-5.5,5.5,7.7-7.7,5.5-5.5-7.7ZM502.5,562.2l7.7-5.5,5.5,7.7-7.7,5.5-5.5-7.7ZM511.5,555.8l7.7-5.5,5.5,7.7-7.7,5.5-5.5-7.7ZM510.6,554.5l-5.5-7.7,7.7-5.5,5.5,7.7-7.7,5.5ZM514,540.4l7.7-5.5,5.5,7.7-7.7,5.5-5.5-7.7ZM523,534l7.7-5.5,5.5,7.7-7.7,5.5-5.5-7.7ZM532,527.6l7.7-5.5,5.5,7.7-7.7,5.5-5.5-7.7ZM541,521.2l7.7-5.5,5.5,7.7-7.7,5.5-5.5-7.7ZM550,514.8l7.7-5.5,5.5,7.7-7.7,5.5-5.5-7.7ZM559,508.4l7.7-5.5,5.5,7.7-7.7,5.5-5.5-7.7ZM573.1,511.9l5.5,7.7-7.7,5.5-5.5-7.7,7.7-5.5ZM574.3,511l7.7-5.5,5.5,7.7-7.7,5.5-5.5-7.7ZM583.3,504.6l7.7-5.5,5.5,7.7-7.7,5.5-5.5-7.7ZM592.3,498.2l7.7-5.5,5.5,7.7-7.7,5.5-5.5-7.7ZM601.3,491.8l7.7-5.5,5.5,7.7-7.7,5.5-5.5-7.7ZM600.4,490.5l-5.5-7.7,7.7-5.5,5.5,7.7-7.7,5.5ZM594,481.5l-5.5-7.7,7.7-5.5,5.5,7.7-7.7,5.5ZM587.6,472.5l-5.5-7.7,7.7-5.5,5.5,7.7-7.7,5.5ZM591,458.4l7.7-5.5,5.5,7.7-7.7,5.5-5.5-7.7ZM590.1,457.1l-5.5-7.7,7.7-5.5,5.5,7.7-7.7,5.5ZM583.7,448.1l-5.5-7.7,7.7-5.5,5.5,7.7-7.7,5.5ZM577.3,439.2l-5.5-7.7,7.7-5.5,5.5,7.7-7.7,5.5ZM570.9,430.2l-5.5-7.7,7.7-5.5,5.5,7.7-7.7,5.5ZM564.5,421.2l-5.5-7.7,7.7-5.5,5.5,7.7-7.7,5.5ZM568,407.1l7.7-5.5,5.5,7.7-7.7,5.5-5.5-7.7ZM567.1,405.8l-5.5-7.7,7.7-5.5,5.5,7.7-7.7,5.5ZM560.7,396.8l-5.5-7.7,7.7-5.5,5.5,7.7-7.7,5.5ZM559.4,397.7l-7.7,5.5-5.5-7.7,7.7-5.5,5.5,7.7ZM545.3,394.2l-5.5-7.7,7.7-5.5,5.5,7.7-7.7,5.5ZM538.9,385.3l-5.5-7.7,7.7-5.5,5.5,7.7-7.7,5.5ZM532.5,376.3l-5.5-7.7,7.7-5.5,5.5,7.7-7.7,5.5ZM531.2,377.2l-7.7,5.5-5.5-7.7,7.7-5.5,5.5,7.7ZM522.2,383.6l-7.7,5.5-5.5-7.7,7.7-5.5,5.5,7.7ZM513.2,390l-7.7,5.5-5.5-7.7,7.7-5.5,5.5,7.7ZM504.2,396.4l-7.7,5.5-5.5-7.7,7.7-5.5,5.5,7.7ZM495.3,402.8l-7.7,5.5-5.5-7.7,7.7-5.5,5.5,7.7ZM486.3,409.2l-7.7,5.5-5.5-7.7,7.7-5.5,5.5,7.7ZM487.2,410.5l5.5,7.7-7.7,5.5-5.5-7.7,7.7-5.5ZM483.7,424.6l-7.7,5.5-5.5-7.7,7.7-5.5,5.5,7.7ZM474.7,431l-7.7,5.5-5.5-7.7,7.7-5.5,5.5,7.7ZM465.7,437.4l-7.7,5.5-5.5-7.7,7.7-5.5,5.5,7.7ZM456.8,443.8l-7.7,5.5-5.5-7.7,7.7-5.5,5.5,7.7ZM442.6,440.4l-5.5-7.7,7.7-5.5,5.5,7.7-7.7,5.5ZM441.4,441.3l-7.7,5.5-5.5-7.7,7.7-5.5,5.5,7.7ZM432.4,447.7l-7.7,5.5-5.5-7.7,7.7-5.5,5.5,7.7ZM423.4,454.1l-7.7,5.5-5.5-7.7,7.7-5.5,5.5,7.7ZM414.4,460.5l-7.7,5.5-5.5-7.7,7.7-5.5,5.5,7.7ZM405.4,466.9l-7.7,5.5-5.5-7.7,7.7-5.5,5.5,7.7ZM396.5,473.3l-7.7,5.5-5.5-7.7,7.7-5.5,5.5,7.7ZM397.4,474.6l5.5,7.7-7.7,5.5-5.5-7.7,7.7-5.5ZM393.9,488.7l-7.7,5.5-5.5-7.7,7.7-5.5,5.5,7.7ZM394.8,490l5.5,7.7-7.7,5.5-5.5-7.7,7.7-5.5ZM401.2,499l5.5,7.7-7.7,5.5-5.5-7.7,7.7-5.5ZM397.7,513.1l-7.7,5.5-5.5-7.7,7.7-5.5,5.5,7.7ZM398.6,514.4l5.5,7.7-7.7,5.5-5.5-7.7,7.7-5.5ZM405,523.3l5.5,7.7-7.7,5.5-5.5-7.7,7.7-5.5ZM411.4,532.3l5.5,7.7-7.7,5.5-5.5-7.7,7.7-5.5ZM417.9,541.3l5.5,7.7-7.7,5.5-5.5-7.7,7.7-5.5ZM424.3,550.3l5.5,7.7-7.7,5.5-5.5-7.7,7.7-5.5ZM430.7,559.3l5.5,7.7-7.7,5.5-5.5-7.7,7.7-5.5ZM437.1,568.2l5.5,7.7-7.7,5.5-5.5-7.7,7.7-5.5ZM443.5,577.2l5.5,7.7-7.7,5.5-5.5-7.7,7.7-5.5ZM444.8,576.3l7.7-5.5,5.5,7.7-7.7,5.5-5.5-7.7ZM458.9,579.8l5.5,7.7-7.7,5.5-5.5-7.7,7.7-5.5ZM465.3,588.8l5.5,7.7-7.7,5.5-5.5-7.7,7.7-5.5ZM466.6,587.9l7.7-5.5,5.5,7.7-7.7,5.5-5.5-7.7ZM480.7,591.4l5.5,7.7-7.7,5.5-5.5-7.7,7.7-5.5ZM482,590.4l7.7-5.5,5.5,7.7-7.7,5.5-5.5-7.7ZM490.9,584l7.7-5.5,5.5,7.7-7.7,5.5-5.5-7.7ZM499.9,577.6l7.7-5.5,5.5,7.7-7.7,5.5-5.5-7.7ZM508.9,571.2l7.7-5.5,5.5,7.7-7.7,5.5-5.5-7.7ZM517.9,564.8l7.7-5.5,5.5,7.7-7.7,5.5-5.5-7.7ZM526.9,558.4l7.7-5.5,5.5,7.7-7.7,5.5-5.5-7.7ZM525.9,557.1l-5.5-7.7,7.7-5.5,5.5,7.7-7.7,5.5ZM529.4,543l7.7-5.5,5.5,7.7-7.7,5.5-5.5-7.7ZM538.4,536.6l7.7-5.5,5.5,7.7-7.7,5.5-5.5-7.7ZM547.4,530.2l7.7-5.5,5.5,7.7-7.7,5.5-5.5-7.7ZM556.4,523.8l7.7-5.5,5.5,7.7-7.7,5.5-5.5-7.7ZM570.5,527.3l5.5,7.7-7.7,5.5-5.5-7.7,7.7-5.5ZM571.8,526.4l7.7-5.5,5.5,7.7-7.7,5.5-5.5-7.7ZM580.8,520l7.7-5.5,5.5,7.7-7.7,5.5-5.5-7.7ZM589.7,513.5l7.7-5.5,5.5,7.7-7.7,5.5-5.5-7.7ZM598.7,507.1l7.7-5.5,5.5,7.7-7.7,5.5-5.5-7.7ZM607.7,500.7l7.7-5.5,5.5,7.7-7.7,5.5-5.5-7.7ZM616.7,494.3l7.7-5.5,5.5,7.7-7.7,5.5-5.5-7.7ZM615.8,493l-5.5-7.7,7.7-5.5,5.5,7.7-7.7,5.5ZM609.4,484.1l-5.5-7.7,7.7-5.5,5.5,7.7-7.7,5.5ZM602.9,475.1l-5.5-7.7,7.7-5.5,5.5,7.7-7.7,5.5ZM606.4,461l7.7-5.5,5.5,7.7-7.7,5.5-5.5-7.7ZM605.5,459.7l-5.5-7.7,7.7-5.5,5.5,7.7-7.7,5.5ZM599.1,450.7l-5.5-7.7,7.7-5.5,5.5,7.7-7.7,5.5ZM592.7,441.7l-5.5-7.7,7.7-5.5,5.5,7.7-7.7,5.5ZM586.3,432.7l-5.5-7.7,7.7-5.5,5.5,7.7-7.7,5.5ZM579.9,423.8l-5.5-7.7,7.7-5.5,5.5,7.7-7.7,5.5ZM583.4,409.7l20.1-14.4c2.1,2.3,4.2,4.7,6.2,7.2l-20.8,14.8-5.5-7.7ZM582.5,408.4l-5.5-7.7,18.6-13.3c2.4,2.1,4.7,4.3,6.9,6.7l-20,14.2ZM576.1,399.4l-5.5-7.7,16-11.4c2.6,1.9,5.2,3.9,7.7,6.1l-18.3,13ZM569.6,390.4l-5.5-7.7,12.3-8.8c3,1.6,5.9,3.4,8.8,5.4l-15.6,11.1ZM563.2,381.4l-5.5-7.7,7.1-5.1c3.4,1.3,6.8,2.7,10.1,4.4l-11.7,8.3ZM562,382.3l-7.7,5.5-5.5-7.7,7.7-5.5,5.5,7.7ZM547.9,378.9l-5.5-7.7,7.7-5.5,5.5,7.7-7.7,5.5ZM541.4,369.9l-4.8-6.8c4.2.2,8.4.6,12.5,1.3l-7.6,5.5ZM526.1,367.3l-2.8-3.9c3-.3,5.9-.4,8.8-.4l-6,4.3ZM524.8,368.2l-7.7,5.5-6.1-8.6c3.5-.7,7-1.2,10.5-1.6l3.3,4.7ZM515.8,374.6l-7.7,5.5-8.7-12.2c3.3-1,6.6-1.8,9.9-2.5l6.5,9.1ZM506.8,381l-7.7,5.5-10.6-14.9c3.1-1.2,6.2-2.2,9.3-3.2l9,12.6ZM497.8,387.4l-7.7,5.5-12-16.9c3-1.4,5.9-2.7,8.9-3.8l10.8,15.2ZM488.8,393.8l-7.7,5.5-13-18.3c2.9-1.5,5.7-3,8.5-4.3l12.2,17.1ZM479.9,400.3l-7.7,5.5-13.6-19.1c2.7-1.7,5.5-3.3,8.2-4.8l13.1,18.4ZM470.9,406.7l-7.7,5.5-13.9-19.5c2.6-1.8,5.3-3.6,7.9-5.2l13.7,19.2ZM471.8,407.9l5.5,7.7-7.7,5.5-5.5-7.7,7.7-5.5ZM468.3,422.1l-7.7,5.5-5.5-7.7,7.7-5.5,5.5,7.7ZM459.3,428.5l-7.7,5.5-5.5-7.7,7.7-5.5,5.5,7.7ZM445.2,425l-13.5-18.9c2.4-2,4.8-4.1,7.3-6l13.9,19.5-7.7,5.5ZM443.9,425.9l-7.7,5.5-12.8-17.9c2.3-2.2,4.7-4.3,7.1-6.4l13.4,18.8ZM435,432.3l-7.7,5.5-11.7-16.4c2.2-2.3,4.4-4.6,6.7-6.9l12.7,17.7ZM426,438.7l-7.7,5.5-10.2-14.3c2.1-2.5,4.2-4.9,6.4-7.3l11.5,16.1ZM417,445.1l-7.7,5.5-8.3-11.7c2-2.6,4-5.2,6.1-7.8l10,14ZM408,451.5l-7.7,5.5-6.1-8.5c1.8-2.8,3.7-5.6,5.7-8.3l8.1,11.3ZM399,457.9l-7.7,5.5-3.3-4.6c1.7-3,3.5-5.9,5.3-8.8l5.7,8ZM390,464.3l-7.6,5.4c1.5-3.2,3.1-6.3,4.8-9.4l2.8,4ZM382,472l5.5,7.7-7.7,5.5-2.4-3.3c1.1-3.1,2.4-6.2,3.8-9.2l.8-.6ZM378.5,486.1l-3.4,2.4c.5-1.6,1.1-3.3,1.6-4.9l1.8,2.5ZM385.8,496.4l5.5,7.7-7.7,5.5-5.5-7.7,7.7-5.5ZM382.3,510.5l-12.9,9.2c.2-4.1.6-8.3,1.3-12.5l6.2-4.4,5.5,7.7ZM383.2,511.8l5.5,7.7-19,13.6c-.4-3.7-.5-7.5-.4-11.3l13.9-9.9ZM389.7,520.8l5.5,7.7-23.4,16.7c-.8-3.4-1.4-6.8-1.8-10.3l19.7-14.1ZM396.1,529.7l5.5,7.7-26.3,18.7c-1.2-3-2.3-6.2-3.1-9.4l23.9-17.1ZM375.9,557.7l26.6-19,5.5,7.7-27.7,19.8c-1.6-2.7-3.1-5.6-4.3-8.5ZM383.7,571.5c-.9-1.3-1.8-2.6-2.6-3.9l27.8-19.9,5.5,7.7-27.8,19.9c-1-1.2-2-2.5-2.9-3.8ZM415.3,556.7l5.5,7.7-26.6,19c-2.4-2.2-4.6-4.4-6.6-6.9l27.7-19.8ZM421.7,565.7l5.5,7.7-23.9,17.1c-2.8-1.9-5.4-3.9-7.9-6l26.3-18.7ZM428.1,574.7l5.5,7.7-19.7,14.1c-3.2-1.5-6.3-3.2-9.2-5.1l23.4-16.7ZM434.5,583.6l5.5,7.7-13.9,9.9c-3.7-1.2-7.2-2.5-10.6-4.1l19-13.6ZM440.9,592.6l5.5,7.7-6.2,4.4c-4.2-.7-8.3-1.7-12.3-2.9l12.9-9.2ZM442.2,591.7l7.7-5.5,5.5,7.7-7.7,5.5-5.5-7.7ZM462.7,604.2l1.8,2.5c-1.7,0-3.5,0-5.2,0l3.4-2.4ZM464,603.3l7.7-5.5,5.5,7.7-.8.6c-3.3.3-6.7.5-10,.5l-2.4-3.3ZM487.1,600.3l2.8,4c-3.5.6-7,1.1-10.5,1.5l7.6-5.4ZM488.4,599.4l7.7-5.5,5.7,8c-3.4.8-6.7,1.5-10.1,2.1l-3.3-4.6ZM497.3,593l7.7-5.5,8.1,11.3c-3.2,1-6.5,1.9-9.7,2.7l-6.1-8.5ZM506.3,586.6l7.7-5.5,10,14c-3.1,1.2-6.2,2.2-9.3,3.2l-8.3-11.7ZM515.3,580.2l7.7-5.5,11.5,16.1c-3,1.3-6,2.6-9,3.7l-10.2-14.3ZM524.3,573.8l7.7-5.5,12.7,17.7c-2.9,1.5-5.8,2.8-8.7,4.1l-11.7-16.4ZM533.3,567.4l7.7-5.5,13.4,18.8c-2.7,1.6-5.5,3.1-8.3,4.6l-12.8-17.9ZM542.3,561l7.7-5.5,13.9,19.5c-2.6,1.7-5.3,3.4-8.1,5l-13.5-18.9ZM541.3,559.7l-5.5-7.7,7.7-5.5,5.5,7.7-7.7,5.5ZM544.8,545.6l7.7-5.5,5.5,7.7-7.7,5.5-5.5-7.7ZM553.8,539.2l7.7-5.5,5.5,7.7-7.7,5.5-5.5-7.7ZM567.9,542.7l13.7,19.2c-2.4,2-4.9,3.9-7.5,5.8l-13.9-19.5,7.7-5.5ZM569.2,541.8l7.7-5.5,13.1,18.4c-2.3,2.1-4.7,4.2-7.2,6.2l-13.6-19.1ZM578.2,535.3l7.7-5.5,12.2,17.1c-2.2,2.2-4.5,4.4-6.9,6.6l-13-18.3ZM587.2,528.9l7.7-5.5,10.8,15.2c-2.1,2.4-4.2,4.8-6.5,7.2l-12-16.9ZM596.1,522.5l7.7-5.5,9,12.6c-1.9,2.6-3.9,5.2-6.1,7.8l-10.6-14.9ZM605.1,516.1l7.7-5.5,6.5,9.1c-1.7,2.9-3.5,5.7-5.5,8.5l-8.7-12.2ZM614.1,509.7l7.7-5.5,3.3,4.7c-1.5,3.2-3.1,6.3-4.9,9.4l-6.1-8.6ZM623.1,503.3l6-4.3c-1,2.8-2,5.5-3.2,8.2l-2.8-3.9ZM625.7,487.9l7.6-5.5c-.6,4.1-1.6,8.2-2.8,12.2l-4.8-6.8ZM624.7,486.6l-5.5-7.7,7.7-5.5,5.5,7.7-7.7,5.5ZM618.3,477.7l-5.5-7.7,7.7-5.5,5.5,7.7-7.7,5.5ZM621.8,463.5l11.7-8.3c.5,3.7.8,7.3.9,11l-7.1,5.1-5.5-7.7ZM620.9,462.3l-5.5-7.7,15.6-11.1c.9,3.3,1.7,6.7,2.2,10l-12.3,8.8ZM614.5,453.3l-5.5-7.7,18.3-13c1.2,3.1,2.3,6.2,3.2,9.3l-16,11.4ZM608.1,444.3l-5.5-7.7,20-14.2c1.5,2.9,2.9,5.8,4.1,8.7l-18.6,13.3ZM601.7,435.3l-5.5-7.7,20.8-14.8c1.8,2.7,3.3,5.4,4.8,8.2l-20.1,14.4ZM595.3,426.3l-5.5-7.7,20.8-14.9c1,1.2,1.9,2.5,2.8,3.8s1.8,2.6,2.7,3.9l-20.8,14.9ZM563,368l-6.2,4.4-5.4-7.6c3.9.8,7.8,1.9,11.6,3.2ZM448,393.5l13.9,19.5-7.7,5.5-13.9-19.5c1.6-1.2,3.3-2.5,4.9-3.6s1.8-1.3,2.7-1.9ZM372.7,497l3.2,4.5-4.9,3.5c.5-2.6,1-5.3,1.7-8ZM404.7,606.8s0,0,0,0c-28.8,4-64.9,11.3-99.8,24.6-2.9,1.1-5.5-2.4-3.4-4.8,24-28.7,42.6-60.5,55.8-86.4,0,0,0,0,0,0,1-1.9,3.7-1.4,4.1.6,2.2,13.3,7.1,25.5,14.8,36.2,7.6,10.7,17.6,19.3,29.4,25.8,1.9,1,1.4,3.8-.7,4.1ZM442.4,605.1l4.9-3.5,3.2,4.5c-2.7-.3-5.4-.6-8.1-1ZM565.1,574.1l-13.9-19.5,7.7-5.5,13.9,19.5c-.9.7-1.8,1.3-2.7,2-1.7,1.2-3.4,2.3-5.1,3.5ZM633.6,480.1l-5.4-7.6,6.2-4.4c0,4-.2,8-.8,12ZM184.5,713.7l-5.7-12.8-.3-.8,17.5-12.5.3.7,5.4,13c1.8,4.3,3.5,8.7,5.4,12.9.1.3.2.5.3.8l-17,12.1c0-.2-.1-.4-.2-.5-1.8-4.3-3.7-8.6-5.7-12.9ZM202.5,700.9l-5.7-12.8-.3-.8,17.5-12.5.3.7,5.4,13c1.8,4.3,3.5,8.7,5.4,12.9.1.3.2.5.3.8l-17,12.1c0-.2-.1-.4-.2-.5-1.8-4.3-3.7-8.6-5.7-12.9ZM166.6,726.5l-5.7-12.8-.3-.8,17.5-12.5.3.7,5.4,13c1.8,4.3,3.5,8.7,5.4,12.9.1.3.2.5.3.8l-17,12.1c0-.2-.1-.4-.2-.5-1.8-4.3-3.7-8.6-5.7-12.9ZM150,720.4l10.1-7.2.3.7,5.4,13c1.8,4.3,3.5,8.7,5.4,12.9.1.3.2.5.3.8l-4.7,3.4c-1.7,1.2-3.2,2.6-4.6,4.2l-6.5,7.7c-.5-1.2-1-2.5-1.5-3.7-1.8-4.3-3.7-8.6-5.7-12.9l-5.7-12.8-1-2.1,2.5-1c1.9-.8,3.8-1.7,5.5-3ZM146.9,757.5c-2.8-3-5.8-6.7-8.8-10.8-3-4.1-5.5-8.2-7.4-11.8-1.4-2.7-.2-6.1,2.7-7.2l8.1-3.1.9,2.2,5.4,13c1.8,4.3,3.5,8.7,5.4,12.9.6,1.4,1.2,2.7,1.9,4.1l-.5.6c-2,2.4-5.6,2.5-7.7.2ZM250.3,648.9l17.5-12.5.3.7,5.4,13c1.8,4.3,3.5,8.7,5.4,12.9.1.3.2.5.3.8l-17,12.1c0-.2-.1-.4-.2-.5-1.8-4.3-3.7-8.6-5.7-12.9l-5.7-12.8-.3-.8ZM274.4,649.6l-5.7-12.8-.3-.8,7.5-5.4c.5-.4,1.2-.2,1.6.3l15.5,21.7c.4.5.2,1.2-.3,1.6l-12.4,8.8c0-.2-.1-.4-.2-.5-1.8-4.3-3.7-8.6-5.7-12.9ZM243.4,689.4l-17,12.1c0-.2-.1-.4-.2-.5-1.8-4.3-3.7-8.6-5.7-12.9l-5.7-12.8-.3-.8,17.5-12.5.3.7,5.4,13c1.8,4.3,3.5,8.7,5.4,12.9.1.3.2.5.3.8ZM261.3,676.5l-17,12.1c0-.2-.1-.4-.2-.5-1.8-4.3-3.7-8.6-5.7-12.9l-5.7-12.8-.3-.8,17.5-12.5.3.7,5.4,13c1.8,4.3,3.5,8.7,5.4,12.9.1.3.2.5.3.8ZM1137,832.9l114.7,4.2-114.7,4.2v-8.3ZM320.3,836.7l114.7-4.2v8.3l-114.7-4.2ZM892.4,383.7c-19.8,27.7-26.9,58-20.6,87.5,6.9,32.5,29.1,62.3,66.1,88.7,33.1,23.6,73.4,37.4,110.5,37.8,1.8,0,3.7,0,5.5,0,13.8-.3,27.7.1,41.4,1.7,3.9.5,8,1,12.1,1.5,25.9,3.6,58,9.9,89.4,21.1,7.8,2.8,15.2,6.5,22,11.2l15.8-22.1c-6.6-4.9-12.6-10.7-17.7-17.2-20.8-26.1-37.3-54.5-49.2-77.9-1.9-3.7-3.6-7.3-5.3-10.8-6-12.5-10.9-25.4-15.1-38.6-.5-1.7-1.1-3.5-1.8-5.2-12.5-35-38.6-68.6-71.7-92.2-37-26.4-72.4-37.7-105.4-33.6-30,3.7-56.3,20.3-76.1,48ZM1056.8,588.1l-5.1-3.6,5.5-7.7,7.7,5.5-4,5.6c-1.4.1-2.8.2-4.2.2ZM1140.3,476.7l-4,5.6-7.7-5.5,5.5-7.7,5.1,3.6c.4,1.3.8,2.7,1.1,4ZM962.2,387.1l7.7,5.5-5.5,7.7-7.7-5.5,5.5-7.7ZM955.5,393.9l-7.7-5.5,5.5-7.7,7.7,5.5-5.5,7.7ZM936.3,461.5l5.5-7.7,7.7,5.5-5.5,7.7-7.7-5.5ZM943,468.2l-5.5,7.7-7.7-5.5,5.5-7.7,7.7,5.5ZM1026.1,525.5l5.5-7.7,7.7,5.5-5.5,7.7-7.7-5.5ZM1032.9,532.3l-5.5,7.7-7.7-5.5,5.5-7.7,7.7,5.5ZM1077.7,469.5l-5.5,7.7-7.7-5.5,5.5-7.7,7.7,5.5ZM1070.9,462.7l5.5-7.7,7.7,5.5-5.5,7.7-7.7-5.5ZM987.9,405.4l-5.5,7.7-7.7-5.5,5.5-7.7,7.7,5.5ZM981.1,398.6l5.5-7.7,7.7,5.5-5.5,7.7-7.7-5.5ZM1053,504.1l-7.7-5.5,5.5-7.7,7.7,5.5-5.5,7.7ZM1059.8,497.3l7.7,5.5-5.5,7.7-7.7-5.5,5.5-7.7ZM1026,484.9l-7.7-5.5,5.5-7.7,7.7,5.5-5.5,7.7ZM1032.8,478.1l7.7,5.5-5.5,7.7-7.7-5.5,5.5-7.7ZM1017.1,478.5l-7.7-5.5,5.5-7.7,7.7,5.5-5.5,7.7ZM1008.1,472.1l-7.7-5.5,5.5-7.7,7.7,5.5-5.5,7.7ZM999.1,465.7l-7.7-5.5,5.5-7.7,7.7,5.5-5.5,7.7ZM990.1,459.2l-7.7-5.5,5.5-7.7,7.7,5.5-5.5,7.7ZM988.8,444.8l5.5-7.7,7.7,5.5-5.5,7.7-7.7-5.5ZM1003.3,443.5l7.7,5.5-5.5,7.7-7.7-5.5,5.5-7.7ZM1012.3,449.9l7.7,5.5-5.5,7.7-7.7-5.5,5.5-7.7ZM1021.3,456.3l7.7,5.5-5.5,7.7-7.7-5.5,5.5-7.7ZM1030.2,462.7l7.7,5.5-5.5,7.7-7.7-5.5,5.5-7.7ZM1039.2,469.1l7.7,5.5-5.5,7.7-7.7-5.5,5.5-7.7ZM1048.2,475.5l7.7,5.5-5.5,7.7-7.7-5.5,5.5-7.7ZM1049.5,490l-5.5,7.7-7.7-5.5,5.5-7.7,7.7,5.5ZM1043.1,499l-5.5,7.7-7.7-5.5,5.5-7.7,7.7,5.5ZM1028.6,500.3l-7.7-5.5,5.5-7.7,7.7,5.5-5.5,7.7ZM1019.6,493.9l-7.7-5.5,5.5-7.7,7.7,5.5-5.5,7.7ZM1010.7,487.4l-7.7-5.5,5.5-7.7,7.7,5.5-5.5,7.7ZM1001.7,481l-7.7-5.5,5.5-7.7,7.7,5.5-5.5,7.7ZM992.7,474.6l-7.7-5.5,5.5-7.7,7.7,5.5-5.5,7.7ZM983.7,468.2l-7.7-5.5,5.5-7.7,7.7,5.5-5.5,7.7ZM974.7,461.8l-7.7-5.5,5.5-7.7,7.7,5.5-5.5,7.7ZM973.4,447.3l5.5-7.7,7.7,5.5-5.5,7.7-7.7-5.5ZM979.8,438.4l5.5-7.7,7.7,5.5-5.5,7.7-7.7-5.5ZM978.6,437.4l-7.7-5.5,5.5-7.7,7.7,5.5-5.5,7.7ZM977.3,423l5.5-7.7,7.7,5.5-5.5,7.7-7.7-5.5ZM991.7,421.7l7.7,5.5-5.5,7.7-7.7-5.5,5.5-7.7ZM1000.7,428.1l7.7,5.5-5.5,7.7-7.7-5.5,5.5-7.7ZM1009.7,434.5l7.7,5.5-5.5,7.7-7.7-5.5,5.5-7.7ZM1018.7,440.9l7.7,5.5-5.5,7.7-7.7-5.5,5.5-7.7ZM1027.7,447.3l7.7,5.5-5.5,7.7-7.7-5.5,5.5-7.7ZM1036.7,453.7l7.7,5.5-5.5,7.7-7.7-5.5,5.5-7.7ZM1045.6,460.1l7.7,5.5-5.5,7.7-7.7-5.5,5.5-7.7ZM1054.6,466.5l7.7,5.5-5.5,7.7-7.7-5.5,5.5-7.7ZM1063.6,472.9l7.7,5.5-5.5,7.7-7.7-5.5,5.5-7.7ZM1064.9,487.4l-5.5,7.7-7.7-5.5,5.5-7.7,7.7,5.5ZM1052.1,505.4l-5.5,7.7-7.7-5.5,5.5-7.7,7.7,5.5ZM1045.7,514.4l-5.5,7.7-7.7-5.5,5.5-7.7,7.7,5.5ZM1031.2,515.7l-7.7-5.5,5.5-7.7,7.7,5.5-5.5,7.7ZM1022.2,509.2l-7.7-5.5,5.5-7.7,7.7,5.5-5.5,7.7ZM1013.2,502.8l-7.7-5.5,5.5-7.7,7.7,5.5-5.5,7.7ZM1004.3,496.4l-7.7-5.5,5.5-7.7,7.7,5.5-5.5,7.7ZM995.3,490l-7.7-5.5,5.5-7.7,7.7,5.5-5.5,7.7ZM986.3,483.6l-7.7-5.5,5.5-7.7,7.7,5.5-5.5,7.7ZM977.3,477.2l-7.7-5.5,5.5-7.7,7.7,5.5-5.5,7.7ZM968.3,470.8l-7.7-5.5,5.5-7.7,7.7,5.5-5.5,7.7ZM959.3,464.4l-7.7-5.5,5.5-7.7,7.7,5.5-5.5,7.7ZM958.1,449.9l5.5-7.7,7.7,5.5-5.5,7.7-7.7-5.5ZM964.5,440.9l5.5-7.7,7.7,5.5-5.5,7.7-7.7-5.5ZM963.2,440l-7.7-5.5,5.5-7.7,7.7,5.5-5.5,7.7ZM961.9,425.5l5.5-7.7,7.7,5.5-5.5,7.7-7.7-5.5ZM968.3,416.6l5.5-7.7,7.7,5.5-5.5,7.7-7.7-5.5ZM989.2,406.3l7.7,5.5-5.5,7.7-7.7-5.5,5.5-7.7ZM998.2,412.7l7.7,5.5-5.5,7.7-7.7-5.5,5.5-7.7ZM1007.1,419.1l7.7,5.5-5.5,7.7-7.7-5.5,5.5-7.7ZM1016.1,425.5l7.7,5.5-5.5,7.7-7.7-5.5,5.5-7.7ZM1025.1,431.9l7.7,5.5-5.5,7.7-7.7-5.5,5.5-7.7ZM1034.1,438.3l7.7,5.5-5.5,7.7-7.7-5.5,5.5-7.7ZM1043.1,444.7l7.7,5.5-5.5,7.7-7.7-5.5,5.5-7.7ZM1052,451.1l7.7,5.5-5.5,7.7-7.7-5.5,5.5-7.7ZM1061,457.6l7.7,5.5-5.5,7.7-7.7-5.5,5.5-7.7ZM1079,470.4l7.7,5.5-5.5,7.7-7.7-5.5,5.5-7.7ZM1080.3,484.8l-5.5,7.7-7.7-5.5,5.5-7.7,7.7,5.5ZM1073.9,493.8l-5.5,7.7-7.7-5.5,5.5-7.7,7.7,5.5ZM1075.2,494.7l7.7,5.5-5.5,7.7-7.7-5.5,5.5-7.7ZM1076.4,509.2l-5.5,7.7-7.7-5.5,5.5-7.7,7.7,5.5ZM1070,518.2l-5.5,7.7-7.7-5.5,5.5-7.7,7.7,5.5ZM1055.6,519.5l-7.7-5.5,5.5-7.7,7.7,5.5-5.5,7.7ZM1054.7,520.8l-5.5,7.7-7.7-5.5,5.5-7.7,7.7,5.5ZM1048.2,529.8l-5.5,7.7-7.7-5.5,5.5-7.7,7.7,5.5ZM1024.8,524.6l-7.7-5.5,5.5-7.7,7.7,5.5-5.5,7.7ZM1015.8,518.2l-7.7-5.5,5.5-7.7,7.7,5.5-5.5,7.7ZM1006.8,511.8l-7.7-5.5,5.5-7.7,7.7,5.5-5.5,7.7ZM997.8,505.4l-7.7-5.5,5.5-7.7,7.7,5.5-5.5,7.7ZM988.9,499l-7.7-5.5,5.5-7.7,7.7,5.5-5.5,7.7ZM979.9,492.6l-7.7-5.5,5.5-7.7,7.7,5.5-5.5,7.7ZM970.9,486.2l-7.7-5.5,5.5-7.7,7.7,5.5-5.5,7.7ZM961.9,479.8l-7.7-5.5,5.5-7.7,7.7,5.5-5.5,7.7ZM952.9,473.4l-7.7-5.5,5.5-7.7,7.7,5.5-5.5,7.7ZM942.7,452.5l5.5-7.7,7.7,5.5-5.5,7.7-7.7-5.5ZM949.1,443.5l5.5-7.7,7.7,5.5-5.5,7.7-7.7-5.5ZM947.8,442.6l-7.7-5.5,5.5-7.7,7.7,5.5-5.5,7.7ZM946.5,428.1l5.5-7.7,7.7,5.5-5.5,7.7-7.7-5.5ZM952.9,419.1l5.5-7.7,7.7,5.5-5.5,7.7-7.7-5.5ZM959.3,410.2l5.5-7.7,7.7,5.5-5.5,7.7-7.7-5.5ZM965.7,401.2l5.5-7.7,7.7,5.5-5.5,7.7-7.7-5.5ZM972.1,392.2l5.5-7.7,7.7,5.5-5.5,7.7-7.7-5.5ZM978.5,383.2l5.5-7.7,7.7,5.5-5.5,7.7-7.7-5.5ZM993,381.9l7.7,5.5-5.5,7.7-7.7-5.5,5.5-7.7ZM1002,388.3l7.7,5.5-5.5,7.7-7.7-5.5,5.5-7.7ZM1003.3,402.8l-5.5,7.7-7.7-5.5,5.5-7.7,7.7,5.5ZM1004.6,403.7l7.7,5.5-5.5,7.7-7.7-5.5,5.5-7.7ZM1013.5,410.1l7.7,5.5-5.5,7.7-7.7-5.5,5.5-7.7ZM1022.5,416.5l7.7,5.5-5.5,7.7-7.7-5.5,5.5-7.7ZM1031.5,422.9l7.7,5.5-5.5,7.7-7.7-5.5,5.5-7.7ZM1040.5,429.4l7.7,5.5-5.5,7.7-7.7-5.5,5.5-7.7ZM1049.5,435.8l7.7,5.5-5.5,7.7-7.7-5.5,5.5-7.7ZM1058.5,442.2l7.7,5.5-5.5,7.7-7.7-5.5,5.5-7.7ZM1067.4,448.6l7.7,5.5-5.5,7.7-7.7-5.5,5.5-7.7ZM1068.4,447.3l5.5-7.7,7.7,5.5-5.5,7.7-7.7-5.5ZM1082.8,446l7.7,5.5-5.5,7.7-7.7-5.5,5.5-7.7ZM1091.8,452.4l7.7,5.5-5.5,7.7-7.7-5.5,5.5-7.7ZM1093.1,466.9l-5.5,7.7-7.7-5.5,5.5-7.7,7.7,5.5ZM1094.4,467.8l7.7,5.5-5.5,7.7-7.7-5.5,5.5-7.7ZM1095.7,482.3l-5.5,7.7-7.7-5.5,5.5-7.7,7.7,5.5ZM1089.3,491.3l-5.5,7.7-7.7-5.5,5.5-7.7,7.7,5.5ZM1090.5,492.2l7.7,5.5-5.5,7.7-7.7-5.5,5.5-7.7ZM1091.8,506.6l-5.5,7.7-7.7-5.5,5.5-7.7,7.7,5.5ZM1085.4,515.6l-5.5,7.7-7.7-5.5,5.5-7.7,7.7,5.5ZM1079,524.6l-5.5,7.7-7.7-5.5,5.5-7.7,7.7,5.5ZM1072.6,533.6l-5.5,7.7-7.7-5.5,5.5-7.7,7.7,5.5ZM1058.1,534.9l-7.7-5.5,5.5-7.7,7.7,5.5-5.5,7.7ZM1057.2,536.2l-5.5,7.7-7.7-5.5,5.5-7.7,7.7,5.5ZM1050.8,545.1l-5.5,7.7-7.7-5.5,5.5-7.7,7.7,5.5ZM1036.3,546.4l-7.7-5.5,5.5-7.7,7.7,5.5-5.5,7.7ZM1035.4,547.7l-5.5,7.7-7.7-5.5,5.5-7.7,7.7,5.5ZM1021,549l-7.7-5.5,5.5-7.7,7.7,5.5-5.5,7.7ZM1012,542.6l-7.7-5.5,5.5-7.7,7.7,5.5-5.5,7.7ZM1010.7,528.1l5.5-7.7,7.7,5.5-5.5,7.7-7.7-5.5ZM1009.4,527.2l-7.7-5.5,5.5-7.7,7.7,5.5-5.5,7.7ZM1000.4,520.8l-7.7-5.5,5.5-7.7,7.7,5.5-5.5,7.7ZM991.4,514.4l-7.7-5.5,5.5-7.7,7.7,5.5-5.5,7.7ZM982.5,508l-7.7-5.5,5.5-7.7,7.7,5.5-5.5,7.7ZM973.5,501.6l-7.7-5.5,5.5-7.7,7.7,5.5-5.5,7.7ZM964.5,495.2l-7.7-5.5,5.5-7.7,7.7,5.5-5.5,7.7ZM955.5,488.8l-7.7-5.5,5.5-7.7,7.7,5.5-5.5,7.7ZM946.5,482.4l-7.7-5.5,5.5-7.7,7.7,5.5-5.5,7.7ZM945.6,483.6l-5.5,7.7-7.7-5.5,5.5-7.7,7.7,5.5ZM931.1,484.9l-7.7-5.5,5.5-7.7,7.7,5.5-5.5,7.7ZM922.2,478.5l-7.7-5.5,5.5-7.7,7.7,5.5-5.5,7.7ZM920.9,464l5.5-7.7,7.7,5.5-5.5,7.7-7.7-5.5ZM927.3,455.1l5.5-7.7,7.7,5.5-5.5,7.7-7.7-5.5ZM933.7,446.1l5.5-7.7,7.7,5.5-5.5,7.7-7.7-5.5ZM932.4,445.2l-7.7-5.5,5.5-7.7,7.7,5.5-5.5,7.7ZM931.1,430.7l5.5-7.7,7.7,5.5-5.5,7.7-7.7-5.5ZM937.5,421.7l5.5-7.7,7.7,5.5-5.5,7.7-7.7-5.5ZM943.9,412.7l5.5-7.7,7.7,5.5-5.5,7.7-7.7-5.5ZM950.3,403.8l5.5-7.7,7.7,5.5-5.5,7.7-7.7-5.5ZM963.1,385.8l5.5-7.7,7.7,5.5-5.5,7.7-7.7-5.5ZM969.6,376.8l5.5-7.7,7.7,5.5-5.5,7.7-7.7-5.5ZM976,367.8l5.5-7.7,7.7,5.5-5.5,7.7-7.7-5.5ZM990.4,366.5l7.7,5.5-5.5,7.7-7.7-5.5,5.5-7.7ZM999.4,372.9l7.7,5.5-5.5,7.7-7.7-5.5,5.5-7.7ZM1008.4,379.3l7.7,5.5-5.5,7.7-7.7-5.5,5.5-7.7ZM1017.4,385.8l7.7,5.5-5.5,7.7-7.7-5.5,5.5-7.7ZM1018.7,400.2l-5.5,7.7-7.7-5.5,5.5-7.7,7.7,5.5ZM1020,401.1l7.7,5.5-5.5,7.7-7.7-5.5,5.5-7.7ZM1028.9,407.6l7.7,5.5-5.5,7.7-7.7-5.5,5.5-7.7ZM1037.9,414l7.7,5.5-5.5,7.7-7.7-5.5,5.5-7.7ZM1046.9,420.4l7.7,5.5-5.5,7.7-7.7-5.5,5.5-7.7ZM1055.9,426.8l7.7,5.5-5.5,7.7-7.7-5.5,5.5-7.7ZM1064.9,433.2l7.7,5.5-5.5,7.7-7.7-5.5,5.5-7.7ZM1065.8,431.9l5.5-7.7,7.7,5.5-5.5,7.7-7.7-5.5ZM1080.3,430.6l7.7,5.5-5.5,7.7-7.7-5.5,5.5-7.7ZM1089.2,437l7.7,5.5-5.5,7.7-7.7-5.5,5.5-7.7ZM1098.2,443.4l7.7,5.5-5.5,7.7-7.7-5.5,5.5-7.7ZM1107.2,449.8l7.7,5.5-5.5,7.7-7.7-5.5,5.5-7.7ZM1108.5,464.3l-5.5,7.7-7.7-5.5,5.5-7.7,7.7,5.5ZM1109.8,465.2l7.7,5.5-5.5,7.7-7.7-5.5,5.5-7.7ZM1111.1,479.7l-5.5,7.7-7.7-5.5,5.5-7.7,7.7,5.5ZM1104.7,488.7l-5.5,7.7-7.7-5.5,5.5-7.7,7.7,5.5ZM1105.9,489.6l7.7,5.5-5.5,7.7-7.7-5.5,5.5-7.7ZM1107.2,504.1l-5.5,7.7-7.7-5.5,5.5-7.7,7.7,5.5ZM1100.8,513l-5.5,7.7-7.7-5.5,5.5-7.7,7.7,5.5ZM1094.4,522l-5.5,7.7-7.7-5.5,5.5-7.7,7.7,5.5ZM1088,531l-5.5,7.7-7.7-5.5,5.5-7.7,7.7,5.5ZM1081.6,540l-5.5,7.7-7.7-5.5,5.5-7.7,7.7,5.5ZM1075.2,549l-5.5,7.7-7.7-5.5,5.5-7.7,7.7,5.5ZM1060.7,550.3l-7.7-5.5,5.5-7.7,7.7,5.5-5.5,7.7ZM1059.8,551.5l-5.5,7.7-7.7-5.5,5.5-7.7,7.7,5.5ZM1053.4,560.5l-5.5,7.7-7.7-5.5,5.5-7.7,7.7,5.5ZM1038.9,561.8l-7.7-5.5,5.5-7.7,7.7,5.5-5.5,7.7ZM1038,563.1l-5.5,7.7-7.7-5.5,5.5-7.7,7.7,5.5ZM1023.5,564.4l-7.7-5.5,5.5-7.7,7.7,5.5-5.5,7.7ZM1014.5,558l-7.7-5.5,5.5-7.7,7.7,5.5-5.5,7.7ZM1005.6,551.6l-7.7-5.5,5.5-7.7,7.7,5.5-5.5,7.7ZM996.6,545.2l-7.7-5.5,5.5-7.7,7.7,5.5-5.5,7.7ZM995.3,530.7l5.5-7.7,7.7,5.5-5.5,7.7-7.7-5.5ZM994,529.8l-7.7-5.5,5.5-7.7,7.7,5.5-5.5,7.7ZM985,523.4l-7.7-5.5,5.5-7.7,7.7,5.5-5.5,7.7ZM976,517l-7.7-5.5,5.5-7.7,7.7,5.5-5.5,7.7ZM967.1,510.6l-7.7-5.5,5.5-7.7,7.7,5.5-5.5,7.7ZM958.1,504.2l-7.7-5.5,5.5-7.7,7.7,5.5-5.5,7.7ZM949.1,497.7l-7.7-5.5,5.5-7.7,7.7,5.5-5.5,7.7ZM948.2,499l-5.5,7.7-7.7-5.5,5.5-7.7,7.7,5.5ZM933.7,500.3l-7.7-5.5,5.5-7.7,7.7,5.5-5.5,7.7ZM924.7,493.9l-7.7-5.5,5.5-7.7,7.7,5.5-5.5,7.7ZM915.8,487.5l-7.7-5.5,5.5-7.7,7.7,5.5-5.5,7.7ZM906.8,481.1l-7.7-5.5,5.5-7.7,7.7,5.5-5.5,7.7ZM905.5,466.6l5.5-7.7,7.7,5.5-5.5,7.7-7.7-5.5ZM911.9,457.6l5.5-7.7,7.7,5.5-5.5,7.7-7.7-5.5ZM918.3,448.7l5.5-7.7,7.7,5.5-5.5,7.7-7.7-5.5ZM917,447.7l-7.7-5.5,5.5-7.7,7.7,5.5-5.5,7.7ZM915.7,433.3l5.5-7.7,7.7,5.5-5.5,7.7-7.7-5.5ZM922.1,424.3l5.5-7.7,7.7,5.5-5.5,7.7-7.7-5.5ZM928.5,415.3l5.5-7.7,7.7,5.5-5.5,7.7-7.7-5.5ZM934.9,406.3l5.5-7.7,7.7,5.5-5.5,7.7-7.7-5.5ZM941.3,397.3l5.5-7.7,7.7,5.5-5.5,7.7-7.7-5.5ZM940.1,396.4l-7.7-5.5,5.5-7.7,7.7,5.5-5.5,7.7ZM938.8,382l5.5-7.7,7.7,5.5-5.5,7.7-7.7-5.5ZM945.2,373l5.5-7.7,7.7,5.5-5.5,7.7-7.7-5.5ZM959.7,371.7l7.7,5.5-5.5,7.7-7.7-5.5,5.5-7.7ZM960.6,370.4l5.5-7.7,7.7,5.5-5.5,7.7-7.7-5.5ZM967,361.4l5.5-7.7,7.7,5.5-5.5,7.7-7.7-5.5ZM973.4,352.4l5.5-7.7,7.7,5.5-5.5,7.7-7.7-5.5ZM987.9,351.1l7.7,5.5-5.5,7.7-7.7-5.5,5.5-7.7ZM996.8,357.6l7.7,5.5-5.5,7.7-7.7-5.5,5.5-7.7ZM1005.8,364l7.7,5.5-5.5,7.7-7.7-5.5,5.5-7.7ZM1014.8,370.4l7.7,5.5-5.5,7.7-7.7-5.5,5.5-7.7ZM1023.8,376.8l7.7,5.5-5.5,7.7-7.7-5.5,5.5-7.7ZM1032.8,383.2l7.7,5.5-5.5,7.7-7.7-5.5,5.5-7.7ZM1034.1,397.7l-5.5,7.7-7.7-5.5,5.5-7.7,7.7,5.5ZM1035.3,398.6l7.7,5.5-5.5,7.7-7.7-5.5,5.5-7.7ZM1044.3,405l7.7,5.5-5.5,7.7-7.7-5.5,5.5-7.7ZM1053.3,411.4l7.7,5.5-5.5,7.7-7.7-5.5,5.5-7.7ZM1062.3,417.8l7.7,5.5-5.5,7.7-7.7-5.5,5.5-7.7ZM1063.2,416.5l5.5-7.7,7.7,5.5-5.5,7.7-7.7-5.5ZM1077.7,415.2l7.7,5.5-5.5,7.7-7.7-5.5,5.5-7.7ZM1086.7,421.6l7.7,5.5-5.5,7.7-7.7-5.5,5.5-7.7ZM1095.6,428l7.7,5.5-5.5,7.7-7.7-5.5,5.5-7.7ZM1104.6,434.4l7.7,5.5-5.5,7.7-7.7-5.5,5.5-7.7ZM1113.6,440.9l7.7,5.5-5.5,7.7-7.7-5.5,5.5-7.7ZM1122.6,447.3l7.7,5.5-5.5,7.7-7.7-5.5,5.5-7.7ZM1123.9,461.7l-5.5,7.7-7.7-5.5,5.5-7.7,7.7,5.5ZM1125.2,462.6l7.7,5.5-5.5,7.7-7.7-5.5,5.5-7.7ZM1126.4,477.1l-5.5,7.7-7.7-5.5,5.5-7.7,7.7,5.5ZM1120,486.1l-5.5,7.7-7.7-5.5,5.5-7.7,7.7,5.5ZM1121.3,487l7.7,5.5-5.5,7.7-7.7-5.5,5.5-7.7ZM1122.6,501.5l-5.5,7.7-7.7-5.5,5.5-7.7,7.7,5.5ZM1116.2,510.5l-5.5,7.7-7.7-5.5,5.5-7.7,7.7,5.5ZM1109.8,519.5l-5.5,7.7-7.7-5.5,5.5-7.7,7.7,5.5ZM1103.4,528.4l-5.5,7.7-7.7-5.5,5.5-7.7,7.7,5.5ZM1097,537.4l-5.5,7.7-7.7-5.5,5.5-7.7,7.7,5.5ZM1090.6,546.4l-5.5,7.7-7.7-5.5,5.5-7.7,7.7,5.5ZM1084.2,555.4l-5.5,7.7-7.7-5.5,5.5-7.7,7.7,5.5ZM1077.8,564.4l-5.5,7.7-7.7-5.5,5.5-7.7,7.7,5.5ZM1063.3,565.7l-7.7-5.5,5.5-7.7,7.7,5.5-5.5,7.7ZM1062.4,566.9l-5.5,7.7-7.7-5.5,5.5-7.7,7.7,5.5ZM1056,575.9l-5.5,7.7-7.7-5.5,5.5-7.7,7.7,5.5ZM1041.5,577.2l-7.7-5.5,5.5-7.7,7.7,5.5-5.5,7.7ZM1040.6,578.5l-5.5,7.7-7.7-5.5,5.5-7.7,7.7,5.5ZM1026.1,579.8l-7.7-5.5,5.5-7.7,7.7,5.5-5.5,7.7ZM1017.1,573.4l-7.7-5.5,5.5-7.7,7.7,5.5-5.5,7.7ZM1008.1,567l-7.7-5.5,5.5-7.7,7.7,5.5-5.5,7.7ZM999.2,560.6l-7.7-5.5,5.5-7.7,7.7,5.5-5.5,7.7ZM990.2,554.2l-7.7-5.5,5.5-7.7,7.7,5.5-5.5,7.7ZM981.2,547.7l-7.7-5.5,5.5-7.7,7.7,5.5-5.5,7.7ZM979.9,533.3l5.5-7.7,7.7,5.5-5.5,7.7-7.7-5.5ZM978.6,532.4l-7.7-5.5,5.5-7.7,7.7,5.5-5.5,7.7ZM969.6,525.9l-7.7-5.5,5.5-7.7,7.7,5.5-5.5,7.7ZM960.7,519.5l-7.7-5.5,5.5-7.7,7.7,5.5-5.5,7.7ZM951.7,513.1l-7.7-5.5,5.5-7.7,7.7,5.5-5.5,7.7ZM950.8,514.4l-5.5,7.7-7.7-5.5,5.5-7.7,7.7,5.5ZM936.3,515.7l-7.7-5.5,5.5-7.7,7.7,5.5-5.5,7.7ZM927.3,509.3l-7.7-5.5,5.5-7.7,7.7,5.5-5.5,7.7ZM918.3,502.9l-7.7-5.5,5.5-7.7,7.7,5.5-5.5,7.7ZM909.3,496.5l-7.7-5.5,5.5-7.7,7.7,5.5-5.5,7.7ZM900.4,490.1l-7.7-5.5,5.5-7.7,7.7,5.5-5.5,7.7ZM891.4,483.7l-7.7-5.5,5.5-7.7,7.7,5.5-5.5,7.7ZM890.1,469.2l5.5-7.7,7.7,5.5-5.5,7.7-7.7-5.5ZM896.5,460.2l5.5-7.7,7.7,5.5-5.5,7.7-7.7-5.5ZM902.9,451.2l5.5-7.7,7.7,5.5-5.5,7.7-7.7-5.5ZM901.6,450.3l-7.7-5.5,5.5-7.7,7.7,5.5-5.5,7.7ZM900.3,435.8l5.5-7.7,7.7,5.5-5.5,7.7-7.7-5.5ZM906.7,426.9l5.5-7.7,7.7,5.5-5.5,7.7-7.7-5.5ZM913.1,417.9l5.5-7.7,7.7,5.5-5.5,7.7-7.7-5.5ZM919.6,408.9l5.5-7.7,7.7,5.5-5.5,7.7-7.7-5.5ZM926,399.9l5.5-7.7,7.7,5.5-5.5,7.7-7.7-5.5ZM924.7,399l-20.8-14.8c2-2.5,4.1-4.9,6.2-7.2l20.1,14.4-5.5,7.7ZM911.1,375.8c2.2-2.4,4.5-4.6,6.9-6.7l18.6,13.3-5.5,7.7-20-14.2ZM919.2,368c2.5-2.2,5.1-4.2,7.7-6.1l16,11.4-5.5,7.7-18.3-13ZM928.3,360.9c2.9-2,5.8-3.7,8.8-5.4l12.3,8.8-5.5,7.7-15.6-11.1ZM938.6,354.7c3.3-1.7,6.6-3.2,10.1-4.4l7.1,5.1-5.5,7.7-11.7-8.3ZM957.1,356.3l7.7,5.5-5.5,7.7-7.7-5.5,5.5-7.7ZM958,355l5.5-7.7,7.7,5.5-5.5,7.7-7.7-5.5ZM964.5,346.1c4.1-.7,8.3-1.2,12.5-1.3l-4.8,6.8-7.6-5.5ZM981.5,344.6c2.9,0,5.9.1,8.8.4l-2.8,3.9-6-4.3ZM992.1,345.2c3.5.4,7,.9,10.5,1.6l-6.1,8.6-7.7-5.5,3.3-4.7ZM1004.3,347.1c3.3.7,6.5,1.5,9.9,2.5l-8.7,12.2-7.7-5.5,6.5-9.1ZM1015.7,350.1c3.1.9,6.2,2,9.3,3.2l-10.6,14.9-7.7-5.5,9-12.6ZM1026.6,353.9c2.9,1.2,5.9,2.4,8.9,3.8l-12,16.9-7.7-5.5,10.8-15.2ZM1036.9,358.4c2.8,1.3,5.7,2.8,8.5,4.3l-13,18.3-7.7-5.5,12.2-17.1ZM1046.8,363.5c2.7,1.5,5.5,3.1,8.2,4.8l-13.6,19.1-7.7-5.5,13.1-18.4ZM1056.4,369.1c2.6,1.6,5.3,3.4,7.9,5.2l-13.9,19.5-7.7-5.5,13.7-19.2ZM1049.4,395.1l-5.5,7.7-7.7-5.5,5.5-7.7,7.7,5.5ZM1050.7,396l7.7,5.5-5.5,7.7-7.7-5.5,5.5-7.7ZM1059.7,402.4l7.7,5.5-5.5,7.7-7.7-5.5,5.5-7.7ZM1060.6,401.1l13.9-19.5c2.5,1.9,4.9,3.9,7.3,6l-13.5,18.9-7.7-5.5ZM1083,388.7c2.4,2.1,4.8,4.2,7.1,6.4l-12.8,17.9-7.7-5.5,13.4-18.8ZM1091.2,396.2c2.3,2.2,4.5,4.5,6.7,6.9l-11.7,16.4-7.7-5.5,12.7-17.7ZM1099.1,404.2c2.2,2.4,4.4,4.8,6.4,7.3l-10.2,14.3-7.7-5.5,11.5-16.1ZM1106.5,412.8c2.1,2.5,4.1,5.1,6.1,7.8l-8.3,11.7-7.7-5.5,10-14ZM1113.6,421.9c2,2.7,3.9,5.5,5.7,8.3l-6.1,8.5-7.7-5.5,8.1-11.3ZM1120.2,431.6c1.9,2.9,3.6,5.9,5.3,8.8l-3.3,4.6-7.7-5.5,5.7-8ZM1126.3,442c1.7,3.1,3.3,6.3,4.8,9.4l-7.6-5.4,2.8-4ZM1132.4,454.3c1.4,3.1,2.6,6.1,3.8,9.2l-2.4,3.3-7.7-5.5,5.5-7.7.8.6ZM1136.8,465.3c.6,1.6,1.1,3.3,1.6,4.9l-3.4-2.4,1.8-2.5ZM1135.4,483.5l-5.5,7.7-7.7-5.5,5.5-7.7,7.7,5.5ZM1136.7,484.4l6.2,4.4c.7,4.2,1.1,8.4,1.3,12.5l-12.9-9.2,5.5-7.7ZM1144.2,503.3c0,3.9,0,7.6-.4,11.3l-19-13.6,5.5-7.7,13.9,9.9ZM1143.6,516.5c-.4,3.5-1,7-1.8,10.3l-23.4-16.7,5.5-7.7,19.7,14.1ZM1141.4,528.4c-.9,3.2-1.9,6.4-3.1,9.4l-26.3-18.7,5.5-7.7,23.9,17.1ZM1133.3,547.8l-27.7-19.8,5.5-7.7,26.6,19c-1.3,2.9-2.7,5.8-4.3,8.5ZM1127,556.9l-27.8-19.9,5.5-7.7,27.8,19.9c-.8,1.3-1.7,2.7-2.6,3.9s-1.9,2.5-2.9,3.8ZM1126,558.1c-2.1,2.4-4.3,4.7-6.6,6.9l-26.6-19,5.5-7.7,27.7,19.8ZM1118.1,566.1c-2.5,2.2-5.1,4.2-7.9,6l-23.9-17.1,5.5-7.7,26.3,18.7ZM1108.9,573c-2.9,1.9-6,3.5-9.2,5.1l-19.7-14.1,5.5-7.7,23.4,16.7ZM1098.1,578.8c-3.4,1.5-6.9,2.9-10.6,4.1l-13.9-9.9,5.5-7.7,19,13.6ZM1085.6,583.5c-3.9,1.2-8,2.1-12.3,2.9l-6.2-4.4,5.5-7.7,12.9,9.2ZM1065.9,581l-7.7-5.5,5.5-7.7,7.7,5.5-5.5,7.7ZM1054.2,588.2c-1.7,0-3.4,0-5.2,0l1.8-2.5,3.4,2.4ZM1047.2,588.2c-3.3,0-6.6-.3-10-.5l-.8-.6,5.5-7.7,7.7,5.5-2.4,3.3ZM1034.1,587.4c-3.5-.4-7-.9-10.5-1.5l2.8-4,7.6,5.4ZM1021.9,585.7c-3.4-.6-6.7-1.3-10.1-2.1l5.7-8,7.7,5.5-3.3,4.6ZM1010.2,583.1c-3.2-.8-6.5-1.7-9.7-2.7l8.1-11.3,7.7,5.5-6.1,8.5ZM998.9,580c-3.1-1-6.2-2.1-9.3-3.2l10-14,7.7,5.5-8.3,11.7ZM988,576.2c-3-1.2-6-2.4-9-3.7l11.5-16.1,7.7,5.5-10.2,14.3ZM977.6,571.8c-2.9-1.3-5.8-2.7-8.7-4.1l12.7-17.7,7.7,5.5-11.7,16.4ZM967.5,567c-2.8-1.5-5.6-3-8.3-4.6l13.4-18.8,7.7,5.5-12.8,17.9ZM957.8,561.6c-2.7-1.6-5.4-3.3-8.1-5l13.9-19.5,7.7,5.5-13.5,18.9ZM964.5,535.8l5.5-7.7,7.7,5.5-5.5,7.7-7.7-5.5ZM963.2,534.9l-7.7-5.5,5.5-7.7,7.7,5.5-5.5,7.7ZM954.3,528.5l-7.7-5.5,5.5-7.7,7.7,5.5-5.5,7.7ZM953.3,529.8l-13.9,19.5c-2.6-1.9-5.1-3.8-7.5-5.8l13.7-19.2,7.7,5.5ZM930.7,542.5c-2.5-2-4.9-4.1-7.2-6.2l13.1-18.4,7.7,5.5-13.6,19.1ZM922.3,535.2c-2.4-2.2-4.7-4.4-6.9-6.6l12.2-17.1,7.7,5.5-13,18.3ZM914.4,527.4c-2.3-2.4-4.5-4.7-6.5-7.2l10.8-15.2,7.7,5.5-12,16.9ZM906.8,519c-2.2-2.6-4.2-5.2-6.1-7.8l9-12.6,7.7,5.5-10.6,14.9ZM899.8,509.9c-2-2.8-3.8-5.7-5.5-8.5l6.5-9.1,7.7,5.5-8.7,12.2ZM893.3,499.9c-1.8-3.1-3.4-6.3-4.9-9.4l3.3-4.7,7.7,5.5-6.1,8.6ZM887.7,488.9c-1.2-2.7-2.3-5.5-3.2-8.2l6,4.3-2.8,3.9ZM883,476.4c-1.2-4.1-2.1-8.1-2.8-12.2l7.6,5.5-4.8,6.8ZM881.1,462.8l5.5-7.7,7.7,5.5-5.5,7.7-7.7-5.5ZM887.5,453.8l5.5-7.7,7.7,5.5-5.5,7.7-7.7-5.5ZM886.2,452.9l-7.1-5.1c0-3.7.4-7.3.9-11l11.7,8.3-5.5,7.7ZM880.3,435.1c.5-3.4,1.3-6.7,2.2-10l15.6,11.1-5.5,7.7-12.3-8.8ZM883,423.5c.9-3.1,2-6.2,3.2-9.3l18.3,13-5.5,7.7-16-11.4ZM886.9,412.7c1.2-2.9,2.6-5.8,4.1-8.7l20,14.2-5.5,7.7-18.6-13.3ZM891.7,402.6c1.5-2.7,3.1-5.5,4.8-8.2l20.8,14.8-5.5,7.7-20.1-14.4ZM897.4,393.1c.9-1.3,1.7-2.6,2.7-3.9s1.9-2.5,2.8-3.8l20.8,14.9-5.5,7.7-20.8-14.9ZM962.1,346.5l-5.4,7.6-6.2-4.4c3.8-1.3,7.6-2.4,11.6-3.2ZM1068.3,377.1c1.7,1.2,3.3,2.4,4.9,3.6l-13.9,19.5-7.7-5.5,13.9-19.5c.9.6,1.8,1.2,2.7,1.9ZM1142.5,486.6l-4.9-3.5,3.2-4.5c.7,2.7,1.2,5.3,1.7,8ZM1108.2,584.4c11.8-6.4,21.8-15.1,29.4-25.8,7.6-10.7,12.6-22.9,14.8-36.2.3-2.1,3.1-2.5,4.1-.6,0,0,0,0,0,0,13.1,25.9,31.8,57.7,55.8,86.4,2,2.4-.5,6-3.4,4.8-34.9-13.3-71.1-20.6-99.8-24.6,0,0,0,0,0,0-2.1-.3-2.6-3.1-.7-4.1ZM1063,587.7l3.2-4.5,4.9,3.5c-2.6.4-5.3.7-8.1,1ZM943.4,552.2c-.9-.7-1.8-1.3-2.7-2l13.9-19.5,7.7,5.5-13.9,19.5c-1.7-1.1-3.4-2.3-5.1-3.5ZM879.1,449.8l6.2,4.4-5.4,7.6c-.5-4-.8-8-.8-12ZM1323.3,708.2c0,.2-.1.4-.2.5l-17-12.1c.1-.3.2-.5.3-.8,1.9-4.3,3.6-8.6,5.4-12.9l5.4-13,.3-.7,17.5,12.5-.3.8-5.7,12.8c-1.9,4.3-3.9,8.5-5.7,12.9ZM1305.4,695.4c0,.2-.1.4-.2.5l-17-12.1c.1-.3.2-.5.3-.8,1.9-4.3,3.6-8.6,5.4-12.9l5.4-13,.3-.7,17.5,12.5-.3.8-5.7,12.8c-1.9,4.3-3.9,8.5-5.7,12.9ZM1341.3,721c0,.2-.1.4-.2.5l-17-12.1c.1-.3.2-.5.3-.8,1.9-4.3,3.6-8.6,5.4-12.9l5.4-13,.3-.7,17.5,12.5-.3.8-5.7,12.8c-1.9,4.3-3.9,8.5-5.7,12.9ZM1369.1,705l2.5,1-1,2.1-5.7,12.8c-1.9,4.3-3.9,8.5-5.7,12.9-.5,1.2-1,2.5-1.5,3.7l-6.5-7.7c-1.3-1.6-2.9-3-4.6-4.2l-4.7-3.4c.1-.3.2-.5.3-.8,1.9-4.3,3.6-8.6,5.4-12.9l5.4-13,.3-.7,10.1,7.2c1.7,1.2,3.5,2.2,5.5,3ZM1359,739l-.5-.6c.6-1.3,1.2-2.7,1.9-4.1,1.9-4.3,3.6-8.6,5.4-12.9l5.4-13,.9-2.2,8.1,3.1c2.9,1.1,4.1,4.5,2.7,7.2-1.9,3.6-4.4,7.7-7.4,11.8s-6,7.8-8.8,10.8c-2.1,2.2-5.7,2.1-7.7-.2ZM1262.9,631.3l-5.7,12.8c-1.9,4.3-3.9,8.5-5.7,12.9,0,.2-.1.4-.2.5l-17-12.1c.1-.3.2-.5.3-.8,1.9-4.3,3.6-8.6,5.4-12.9l5.4-13,.3-.7,17.5,12.5-.3.8ZM1233.5,644.1c0,.2-.1.4-.2.5l-12.4-8.8c-.5-.4-.6-1.1-.3-1.6l15.5-21.7c.4-.5,1.1-.6,1.6-.3l7.5,5.4-.3.8-5.7,12.8c-1.9,4.3-3.9,8.5-5.7,12.9ZM1270.5,670.2c1.9-4.3,3.6-8.6,5.4-12.9l5.4-13,.3-.7,17.5,12.5-.3.8-5.7,12.8c-1.9,4.3-3.9,8.5-5.7,12.9,0,.2-.1.4-.2.5l-17-12.1c.1-.3.2-.5.3-.8ZM1252.6,657.4c1.9-4.3,3.6-8.6,5.4-12.9l5.4-13,.3-.7,17.5,12.5-.3.8-5.7,12.8c-1.9,4.3-3.9,8.5-5.7,12.9,0,.2-.1.4-.2.5l-17-12.1c.1-.3.2-.5.3-.8Z"/>
    <g id="SRC_Horizontal_Dark.svg">
      <g id="Layer_1-2">
        <path class="st4" d="M756.5,644.9c-1.9-1.3-5.6-2.6-8.4-2.6s-3.8,1.1-3.8,2.5.9,1.9,2.5,2.8l4.4,2.5c5.2,3,7.3,6.6,7.3,11.1,0,6.4-4.1,12.2-13.6,12.2s-7.4-.8-10-1.8v-10.6c2.1,1.7,6.1,3.3,9.6,3.3s3.6-.9,3.6-2.5-.7-1.8-2.6-2.8l-4.6-2.6c-5.4-3.1-7-6.6-7-11.2s3.5-11.9,14.3-11.9,5.8.6,8.3,1.6v10.1h0Z"/>
        <path class="st4" d="M776.2,633.8h14.2c7.8,0,13.2,4.8,13.2,12.7s-5.4,12.7-13.2,12.7h-4.5v13.6h-9.7v-38.9ZM790.3,643.1h-4.4v6.5h4.4c1.9,0,3.3-1.1,3.3-3.3s-1.4-3.3-3.3-3.3Z"/>
        <path class="st4" d="M838.5,633.1c11.4,0,20,8.7,20,20.1s-8.7,20.1-20,20.1-20-8.7-20-20.1,8.7-20.1,20-20.1ZM838.5,663.6c5.7,0,10-4.6,10-10.4s-4.4-10.4-10-10.4-10,4.7-10,10.4,4.3,10.4,10,10.4Z"/>
        <path class="st4" d="M876.1,633.8h9.7v14.1l7.8-14.1h11.3l-9.8,16,10.4,23h-11.3l-6.1-14.6-2.2,3.6v11h-9.7v-38.9h0Z"/>
        <path class="st4" d="M943.1,665.6h-13l-2.4,7h-10.9l14.3-38.9h10.9l14.3,38.9h-10.9l-2.4-7h0ZM933.3,656.3h6.6l-3.3-9.8-3.3,9.8h0Z"/>
        <path class="st4" d="M981.6,652.9v19.8h-9.7v-33.8l-2.7-4.5v-.6h11.5l14.4,22v-22h9.7v38.9h-9.7l-13.5-19.8h0Z"/>
        <path class="st4" d="M1024.5,672.7v-38.9h22.8v9.4h-13.1v5.2h11.9v9.4h-11.9v5.6h13.1v9.4h-22.8Z"/>
        <path class="st4" d="M733.9,681.7h7.7c4.5,0,7.7,2.5,7.7,6.8s-2.1,5.4-4.6,6.1c2.9,1.4,5.1,5.6,5.8,11h-4.1c-1-5.6-3.5-9.5-6.5-9.5h-1.8v9.5h-4v-23.9h0ZM741.5,685.6h-3.6v6.8h3.6c2.1,0,3.6-1.2,3.6-3.4s-1.5-3.4-3.6-3.4Z"/>
        <path class="st4" d="M774.7,699.7h-9.1l-2.1,5.9h-4.5l8.9-23.9h4.5l8.9,23.9h-4.5l-2.1-5.9h0ZM766.9,695.9h6.5l-3.2-8.9-3.3,8.9h0Z"/>
        <path class="st4" d="M807.6,704.5c-1.7.9-3.7,1.5-5.8,1.5-7,0-12.3-5.3-12.3-12.3s5.3-12.3,12.3-12.3,4.1.6,5.8,1.5v4.6c-1.4-1.3-3.5-2.1-5.8-2.1-4.7,0-8.2,3.7-8.2,8.3s3.5,8.3,8.2,8.3,4.4-.8,5.8-2.1v4.6h0Z"/>
        <path class="st4" d="M829.7,681.3c7,0,12.3,5.3,12.3,12.3s-1,5.6-2.6,7.6l2.5,2.4-2.7,2.7-2.5-2.5c-1.9,1.3-4.3,2.1-6.9,2.1-7,0-12.3-5.3-12.3-12.3s5.3-12.3,12.3-12.3h0ZM829.7,702c1.4,0,2.8-.4,3.8-1.2l-4.2-4.2,2.7-2.8,4.3,4.3c.9-1.2,1.4-2.8,1.4-4.5,0-4.6-3.5-8.3-8.2-8.3s-8.2,3.7-8.2,8.3,3.5,8.3,8.2,8.3h0Z"/>
        <path class="st4" d="M871.4,681.7v15.1c0,5.7-3.4,9.1-8.9,9.1s-8.9-3.5-8.9-9.1v-15.1h4v15.4c0,2.9,1.9,5,4.9,5s4.8-2,4.8-5v-15.4h4Z"/>
        <path class="st4" d="M884.2,705.6v-23.9h13.2v3.8h-9.2v6.1h8.5v3.8h-8.5v6.3h9.2v3.8h-13.2Z"/>
        <path class="st4" d="M913.6,685.6h-6.1v-3.8h16.2v3.8h-6.1v20.1h-4v-20.1Z"/>
        <path class="st4" d="M965.7,704.5c-1.7.9-3.7,1.5-5.8,1.5-7,0-12.3-5.3-12.3-12.3s5.3-12.3,12.3-12.3,4.1.6,5.8,1.5v4.6c-1.4-1.3-3.5-2.1-5.8-2.1-4.7,0-8.2,3.7-8.2,8.3s3.5,8.3,8.2,8.3,4.4-.8,5.8-2.1v4.6h0Z"/>
        <path class="st4" d="M977.5,705.6v-23.9h4v20.1h9.2v3.8h-13.2Z"/>
        <path class="st4" d="M1018.8,681.7v15.1c0,5.7-3.4,9.1-8.9,9.1s-8.9-3.5-8.9-9.1v-15.1h4v15.4c0,2.9,1.9,5,4.9,5s4.8-2,4.8-5v-15.4h4Z"/>
        <path class="st4" d="M1031.7,681.7h7.7c4.2,0,7.3,2.5,7.3,6.3s-1.2,4.4-3.1,5.3c2.3,1,3.8,2.8,3.8,5.8s-3.3,6.5-7.7,6.5h-7.9v-23.9h0ZM1039.3,685.6h-3.7v5.9h3.7c1.8,0,3.2-.9,3.2-2.9s-1.4-2.9-3.2-2.9h0ZM1039.6,695.3h-3.9v6.5h3.9c2,0,3.6-1,3.6-3.2s-1.6-3.3-3.6-3.3h0Z"/>
        <path class="st4" d="M692.8,680.2c-3.9,3-8.9,5-13.9,5s-8-1.3-10.8-4.1l-.5-.6c-2.3-2.7-3.2-6-3-9.4,0-.5,3.3-1,3.4-1.5l-35.2.8,34.6-3.9c0-.2-1.7-.2-1.6-.4.1-.3.3-.7.4-1l-26.9.8,29.8-3.6c.2-.3-1-.3-.9-.6.2-.3.5-.6.7-.9l-42.8,2,51.1-6.5c.1-.1-2.7-.4-2.2-.7,3.5-2.1,7.5-3.4,11.6-3.4s8.6,1.5,11.3,4.7l1.7,2,2.2-1.6,19.4-15.1-1.7-1.9c-7-8.1-17.6-12.1-28.8-12.1s-23.8,4.5-33.2,11.8h0c-3.4,2.7-6.6,5.8-9.2,9.1-.1-2.7-.7-5.1-1.7-7.5-1.8-4.3-4.9-7.6-9.2-10.1-4.3-2.4-9.5-3.6-15.6-3.6h-39.3l-9.1,46.1c-.1-.4-.3-.7-.4-1.1-1.3-3.3-3.7-6.1-7.1-8.4s-7.8-4.5-13.2-6.6l-1.7-.6c-2.7-1-4.6-1.8-5.7-2.3s-2-1-2.6-1.5c-.6-.5-.7-1-.7-1.6.1-1.6.8-2.1,1.6-2.7.9-.6,2.2-.9,4.2-.9,3.2,0,6.3.7,9.2,2,.3.2,2,1,3.4,1.7l15.1-19.1c-2.1-1.4-4.3-2.6-6.7-3.6-4.9-2.1-10.9-3.1-17.8-3.1s-13.2,1.2-18.2,3.5c-5,2.3-8.8,5.4-11.5,9.1-2.7,3.7-4.5,7.8-5.4,12.1-1.5,7.5-.1,13.3,4.1,17.4,4.2,4,9.5,7,15.8,9,3.7,1.1,6.4,2.1,8,3s2.4,1.3,3,2.4c.3.6.4,1.4.2,2.2-.5,2.6-3.3,4-8.4,4s-6.6-.7-9.5-2.1c-1.1-.5-4.2-2.2-6.4-3.6l-15.7,19.4c7.6,5.9,16.9,8.9,27.9,8.9s13-1.1,18.5-3.4c5.5-2.3,10-5.4,13.6-9.5.8-1,1.6-1.9,2.3-3l-2.8,14.3h10.1l5.1-8.8h-2.8l5.6-9.7,5.6,9.7h-2.8l3.7,6.4,7.5-12.9h-5.6l8.3-14.4h-4.3l8.7-15,8.7,15h-4.3l8.3,14.4h-5.6l8.9,15.4h20.9l-11.1-31.6c2.7-1.5,5-3.2,7.2-5.1-.7,8.7,1.7,17.3,7.7,24.2l.8.9h0c7,7.5,17.2,11.2,28,11.2s23.9-4.5,33.2-11.8l2.1-1.7-15.1-17.4-2.2,1.7h0ZM621.1,656.1c-.2,1.2-.8,2.4-1.6,3.4s-1.9,2-3.2,2.6c-1.3.7-2.6,1-3.9,1l-10.4-.8,2.5-12.8h10.8c1.8,0,3.4.6,4.6,1.7,1.2,1.1,1.6,2.7,1.2,4.8h0Z"/>
        <path class="st2" d="M684.7,680.3c-2.1.6-4.2.9-6.2.6,0,0,0,0,0,0-.2,0-.4,0-.6,0-.2,0-.4,0-.7-.1,0,0,0,0,0,0-1.7-.4-3.2-1.1-4.4-2.1.8-.2,1.5-.5,2.2-.8,2.5-1,4.9-1.7,6.7-1.2,1.4.4,2.6,1.4,3.1,3.6Z"/>
        <path class="st2" d="M696.3,668.6c0,.3-.1.5-.2.8,0,.2-.1.4-.2.6-1.1,3.2-3.6,6.2-7,8.3-.5.3-1,.6-1.4.8l-.6.3c-.6-2.9-2.2-4.3-4.3-4.8-2.4-.6-5.3.2-8.2,1.3-.8.3-1.8.7-2.6.8-.2,0-.6.2-.8,0,0,0,0,0,0,0,0-.1-.2-.3-.3-.4,0-.1-.1-.2-.2-.3,0-.1-.1-.2-.2-.3-.1-.2-.2-.5-.4-.7,0-.1-.1-.2-.2-.4-.1-.2-.2-.5-.3-.7,0-.1,0-.2-.1-.4,0,0,0,0,0,0,0-.2-.1-.4-.1-.6-.3-1.8-.2-3.7.4-5.6,0-.2.1-.4.2-.5,0-.2.1-.3.2-.4,0-.2.2-.4.3-.6,1.1-2.2,2.8-4.4,5-6.1.2-.1.4-.3.5-.4.3-.2.6-.4.9-.6.3-.2.7-.4,1-.6.1,0,.2-.1.4-.2.2-.1.5-.2.7-.3.7-.3,1.4-.6,2.2-.8,1.5,1.5,1.7,3.4,1.9,5.6v1c.4,3.1,1.7,5.1,3.5,6.3,1.2.8,2.6,1.1,4.1,1.1,1.5,0,3-.5,4.4-1.3.4-.2.9-.5,1.3-.8h0q0,0,0,0Z"/>
        <path class="st2" d="M696.6,665.7h0c0,1.1-1.6,1.7-2.5,2.2-1,.6-2.1.9-3.2.9-1.1,0-2.1-.2-3-.8-1.4-.9-2.4-2.6-2.7-5.1v-1c-.3-2.1-.4-3.9-1.6-5.6,4.8-.6,9.3,1,11.6,4.6.8,1.3,1.3,2.8,1.4,4.4,0,.1,0,.2,0,.3Z"/>
        <path class="st1" d="M696.6,665.4c0-.2,0-.4,0-.6-.2-1.9-1-3.6-2.2-5.1-2.5-2.9-6.5-4-10.7-3.4,0,0,0,0,0,0,1.2,1.6,1.3,3.5,1.5,5.6v1c.4,2.6,1.4,4.2,2.8,5.1.9.6,1.9.8,3,.8,1.1,0,2.2-.4,3.2-.9.9-.5,2.4-1.1,2.5-2.2h0c0-.2,0-.3,0-.4ZM696.3,668.6h0c-.4.4-.8.7-1.3.9-1.4.8-2.9,1.2-4.4,1.3-1.5,0-2.9-.3-4.1-1.1-1.8-1.1-3.1-3.2-3.4-6.3v-1c-.3-2.2-.5-4.1-2-5.6-.7.2-1.5.5-2.2.8-.2.1-.5.2-.7.3-.1,0-.2.1-.4.2-.6.3-1.3.7-1.9,1.1-.2.1-.4.3-.5.4-2.2,1.8-4,3.9-5,6.1-.1.2-.2.4-.3.6,0,.1-.1.3-.2.4,0,.2-.1.4-.2.5-.6,1.9-.8,3.8-.4,5.6,0,.2,0,.4.1.6,0,0,0,0,0,0,0,.1,0,.2.1.4,0,.2.2.5.3.7,0,.1.1.2.2.4.1.2.2.5.4.7.1.2.3.4.4.6,0,.1.2.3.3.4,0,0,0,0,0,0,.2.1.6,0,.8,0,.8-.1,1.7-.5,2.6-.8,2.9-1.2,5.8-1.9,8.2-1.3,2.1.5,3.6,1.8,4.3,4.8l.6-.3c1-.5,2-1,3-1.8,2.6-2.1,4.5-4.6,5.5-7.4,0-.2.1-.4.2-.6,0-.3.2-.5.2-.8h0ZM681.6,676.7c-1.8-.4-4.3.2-6.7,1.2-.7.3-1.5.6-2.2.8h0c1.2,1,2.8,1.7,4.5,2,0,0,0,0,0,0,.2,0,.4,0,.7.1.2,0,.4,0,.6,0,0,0,0,0,0,0,2.2.3,4.5,0,6.2-.6-.5-2.2-1.6-3.3-3.1-3.6h0Z"/>
      </g>
    </g>
  </g>
  <g id="Layer_3">
    <g>
      <path class="st4" d="M487.7,999.1c-1.6-11,2-22.2,9.9-30,6.6-6.6,15.4-10.3,24.8-10.3s3.8.2,5.7.5c-1.4,3.7-3.3,7.5-5.6,11.1-1.4,2.3-3.1,4.5-4.9,6.8-1.7,2.1-3.6,4.2-5.6,6.2-4.2,4.1-8.7,7.6-13.2,10.3-3.6,2.2-7.4,4-11.1,5.3Z"/>
      <path class="st4" d="M525.3,972.1c2.3-4,4.1-8.1,5.5-12.3,6.2,1.5,11.9,4.7,16.5,9.3,4.5,4.5,7.7,10.2,9.3,16.5-4.2,1.3-8.3,3.2-12.3,5.5-4.8,2.8-9.5,6.4-14,10.7-4.4,4.4-8.1,9.1-11,13.8-2.4,4-4.3,8.1-5.8,12.3-6-1.6-11.5-4.7-16-9.2-4.4-4.4-7.6-9.9-9.2-16,4.2-1.4,8.3-3.4,12.3-5.8,4.8-2.9,9.4-6.6,13.8-11,4.4-4.5,8-9.2,10.7-14Z"/>
      <path class="st4" d="M546,993.8c3.6-2.3,7.4-4.2,11.1-5.6,1.8,11.2-1.8,22.5-9.8,30.5-6.6,6.6-15.4,10.3-24.8,10.3h0c-1.7,0-3.5-.1-5.2-.4,1.3-3.7,3.1-7.4,5.3-11.1,2.7-4.5,6.2-9,10.3-13.2,2-2,4.1-3.9,6.2-5.6,2.3-1.9,4.6-3.5,6.8-4.9Z"/>
    </g>
  </g>
  <g id="Layer_2">
    <text class="st0" transform="translate(493.5 835.8)"><tspan x="0" y="0">FALL CLASSIC 2025 </tspan><tspan x="81.5" y="57.6">TOURNAMENT</tspan></text>
    <g>
      <path class="st4" d="M735.3,1005.1c-1.6-11,2-22.2,9.9-30,6.6-6.6,15.4-10.3,24.8-10.3s3.8.2,5.7.5c-1.4,3.7-3.3,7.5-5.6,11.1-1.4,2.3-3.1,4.5-4.9,6.8-1.7,2.1-3.6,4.2-5.6,6.2-4.2,4.1-8.7,7.6-13.2,10.3-3.6,2.2-7.4,4-11.1,5.3Z"/>
      <path class="st4" d="M772.9,978.1c2.3-4,4.1-8.1,5.5-12.3,6.2,1.5,11.9,4.7,16.5,9.3,4.5,4.5,7.7,10.2,9.3,16.5-4.2,1.3-8.3,3.2-12.3,5.5-4.8,2.8-9.5,6.4-14,10.7-4.4,4.4-8.1,9.1-11,13.8-2.4,4-4.3,8.1-5.8,12.3-6-1.6-11.5-4.7-16-9.2-4.4-4.4-7.6-9.9-9.2-16,4.2-1.4,8.3-3.4,12.3-5.8,4.8-2.9,9.4-6.6,13.8-11,4.4-4.5,8-9.2,10.7-14Z"/>
      <path class="st4" d="M793.5,999.8c3.6-2.3,7.4-4.2,11.1-5.6,1.8,11.2-1.8,22.5-9.8,30.5-6.6,6.6-15.4,10.3-24.8,10.3h0c-1.7,0-3.5-.1-5.2-.4,1.3-3.7,3.1-7.4,5.3-11.1,2.7-4.5,6.2-9,10.3-13.2,2-2,4.1-3.9,6.2-5.6,2.3-1.9,4.6-3.5,6.8-4.9Z"/>
    </g>
    <g>
      <path class="st4" d="M998.9,1004.1c-1.6-11,2-22.2,9.9-30,6.6-6.6,15.4-10.3,24.8-10.3s3.8.2,5.7.5c-1.4,3.7-3.3,7.5-5.6,11.1-1.4,2.3-3.1,4.5-4.9,6.8-1.7,2.1-3.6,4.2-5.6,6.2-4.2,4.1-8.7,7.6-13.2,10.3-3.6,2.2-7.4,4-11.1,5.3Z"/>
      <path class="st4" d="M1036.5,977.1c2.3-4,4.1-8.1,5.5-12.3,6.2,1.5,11.9,4.7,16.5,9.3,4.5,4.5,7.7,10.2,9.3,16.5-4.2,1.3-8.3,3.2-12.3,5.5-4.8,2.8-9.5,6.4-14,10.7-4.4,4.4-8.1,9.1-11,13.8-2.4,4-4.3,8.1-5.8,12.3-6-1.6-11.5-4.7-16-9.2-4.4-4.4-7.6-9.9-9.2-16,4.2-1.4,8.3-3.4,12.3-5.8,4.8-2.9,9.4-6.6,13.8-11,4.4-4.5,8-9.2,10.7-14Z"/>
      <path class="st4" d="M1057.1,998.8c3.6-2.3,7.4-4.2,11.1-5.6,1.8,11.2-1.8,22.5-9.8,30.5-6.6,6.6-15.4,10.3-24.8,10.3h0c-1.7,0-3.5-.1-5.2-.4,1.3-3.7,3.1-7.4,5.3-11.1,2.7-4.5,6.2-9,10.3-13.2,2-2,4.1-3.9,6.2-5.6,2.3-1.9,4.6-3.5,6.8-4.9Z"/>
    </g>
  </g>
</svg>