<svg width="524" height="209" viewBox="0 0 524 209" fill="none" xmlns="http://www.w3.org/2000/svg">
<path d="M453.63 132.38C444.1 139.79 432.01 144.53 419.66 144.53C409.61 144.53 400.06 141.36 393.33 134.62L392.01 133.1C386.32 126.57 384.12 118.4 384.74 110.1C384.83 108.93 392.9 107.57 393.1 106.39L307.15 108.34L391.51 98.81C391.7 98.29 387.47 98.27 387.67 97.75C388 96.92 388.37 96.09 388.75 95.27L323.06 97.29L395.74 88.47C396.15 87.85 393.19 87.66 393.64 87.05C394.21 86.27 394.8 85.5 395.41 84.75L292.87 95.06L415.55 73.72C415.89 73.47 408.87 72.74 410.17 71.95C418.65 66.79 428.55 63.68 438.61 63.68C449.37 63.68 459.51 67.36 466.26 75.11L470.41 79.88L475.71 75.93L523.17 39.01L519.04 34.27C501.86 14.54 476.1 4.77 448.63 4.77C419.18 4.77 390.45 15.88 367.68 33.54L367.56 33.63C359.15 40.15 351.56 47.59 345.04 55.73C344.71 49.25 343.36 43.18 340.98 37.54C336.55 27.04 329.05 18.87 318.54 12.98C308.02 7.09 295.29 4.14 280.34 4.14H184.47L162.23 116.69C161.94 115.78 161.61 114.89 161.25 114.02C157.96 106.04 152.2 99.15 144.02 93.4C135.83 87.65 125.05 82.33 111.69 77.39L107.55 75.82C101.07 73.35 96.43 71.45 93.56 70.17C90.69 68.89 88.57 67.7 87.2 66.56C85.84 65.42 85.45 64.16 85.55 62.71C85.82 58.89 87.47 57.67 89.56 56.15C91.65 54.63 95.03 53.87 99.74 53.87C107.52 53.87 115.03 55.54 122.21 58.86C123.04 59.24 127.09 61.26 130.52 62.97L167.42 16.29C162.31 12.87 156.88 9.96 151.15 7.55C139.14 2.52 124.63 0 107.63 0C90.63 0 75.32 2.85 63.18 8.55C51.04 14.25 41.64 21.66 34.98 30.78C28.31 39.9 23.9 49.78 21.8 60.42C18.16 78.85 21.5 93.01 31.79 102.89C42.07 112.77 54.92 120.08 70.37 124.83C79.37 127.49 85.91 129.91 89.97 132.14C94.04 134.37 95.79 135.23 97.23 137.94C98.06 139.51 98.14 141.36 97.75 143.35C96.47 149.81 89.64 153.04 77.24 153.04C68.94 153.04 61.25 151.28 54.1 147.82C51.43 146.53 43.85 142.37 38.51 139.15L0 186.43C18.48 200.86 41.15 208.08 68.03 208.08C84.62 208.08 99.66 205.32 113.15 199.81C126.63 194.3 137.68 186.6 146.24 176.72C148.26 174.39 150.11 171.98 151.79 169.48L144.9 204.37H169.66L182.13 182.77H175.26L188.99 158.98L202.72 182.77H195.85L204.82 198.31L223.03 166.76H209.29L229.55 131.68H218.97L240.13 95.03L261.29 131.68H250.71L270.97 166.76H257.23L278.95 204.37H330.04L303.02 127.28C309.5 123.73 315.32 119.59 320.48 114.86C318.79 136.2 324.65 157.19 339.24 173.95L341.2 176.19H341.38C358.51 194.4 383.27 203.45 409.66 203.45C439.14 203.45 467.94 192.39 490.71 174.67L495.89 170.64L458.96 128.23L453.63 132.37V132.38ZM278.6 73.55C278.02 76.5 276.69 79.3 274.58 81.96C272.47 84.62 269.84 86.76 266.76 88.37C263.68 89.98 260.49 90.79 257.22 90.79L231.79 88.87L237.94 57.73H264.37C268.88 57.73 272.65 59.11 275.64 61.86C278.63 64.62 279.6 68.51 278.6 73.55Z" fill="white"/>
</svg>
