<?xml version="1.0" encoding="UTF-8"?>
<svg xmlns="http://www.w3.org/2000/svg" xmlns:xlink="http://www.w3.org/1999/xlink" viewBox="0 0 612 792">
  <defs>
    <style>
      .cls-1, .cls-2, .cls-3, .cls-4, .cls-5 {
        font-family: BodoniSvtyTwoITCTT-Bold, 'Bodoni 72';
        font-weight: 700;
      }

      .cls-1, .cls-6, .cls-4, .cls-5, .cls-7 {
        fill: #8d0046;
      }

      .cls-1, .cls-8 {
        font-size: 36px;
      }

      .cls-9 {
        fill: url(#linear-gradient-2);
      }

      .cls-10 {
        fill: url(#linear-gradient);
        stroke: #231f20;
        stroke-miterlimit: 10;
      }

      .cls-3, .cls-11, .cls-12, .cls-13, .cls-8 {
        fill: #82003c;
      }

      .cls-3, .cls-12, .cls-4 {
        font-size: 21px;
      }

      .cls-14 {
        clip-path: url(#clippath-1);
      }

      .cls-12 {
        font-family: BodoniSvtyTwoITCTT-Book, 'Bodoni 72';
      }

      .cls-15 {
        fill: #003a77;
        opacity: .5;
      }

      .cls-5 {
        font-size: 24px;
      }

      .cls-13 {
        clip-path: url(#clippath);
      }

      .cls-7 {
        fill-rule: evenodd;
      }

      .cls-16 {
        font-family: ArialMT, Arial;
      }
    </style>
    <linearGradient id="linear-gradient" x1="305.65" y1="22.94" x2="309.22" y2="743.24" gradientUnits="userSpaceOnUse">
      <stop offset="0" stop-color="#ffba7f"/>
      <stop offset="1" stop-color="#9cee82"/>
    </linearGradient>
    <clipPath id="clippath">
      <polygon class="cls-11" points="307.65 701.42 307.79 701.42 307.65 701.55 307.65 701.42"/>
    </clipPath>
    <clipPath id="clippath-1">
      <polygon class="cls-13" points="307.38 701.14 307.24 701.14 307.38 701 307.38 701.14"/>
    </clipPath>
    <linearGradient id="linear-gradient-2" x1="305.35" y1="587.02" x2="307.61" y2="213.03" gradientUnits="userSpaceOnUse">
      <stop offset="0" stop-color="#ff9845"/>
      <stop offset="1" stop-color="#ff84ca"/>
    </linearGradient>
  </defs>
  <g id="Layer_1">
    <rect class="cls-10" x="1.5" y=".5" width="612" height="792"/>
    <text class="cls-4" transform="translate(488.82 61.13)"><tspan x="0" y="0">6:30pm</tspan></text>
    <text class="cls-3" transform="translate(49.38 686.07)"><tspan x="0" y="0">Sign up on court reserve</tspan></text>
    <text class="cls-12" transform="translate(49.37 733.69)"><tspan x="0" y="0">509-535-1239</tspan></text>
    <text class="cls-12" transform="translate(48.9 710.45)"><tspan x="0" y="0">1832 S Glenrose</tspan></text>
    <g>
      <polygon class="cls-11" points="307.65 701.42 307.79 701.42 307.65 701.55 307.65 701.42"/>
      <polygon class="cls-11" points="307.38 701.14 307.24 701.14 307.38 701 307.38 701.14"/>
      <g class="cls-14">
        <rect class="cls-11" x="307.52" y="701.28" width="69.29" height="69.29"/>
      </g>
    </g>
  </g>
  <g id="Layer_4">
    <rect class="cls-15" x="49" y="388" width="515" height="11"/>
    <rect class="cls-15" x="49" y="359" width="515" height="11"/>
    <rect class="cls-15" x="49" y="330" width="515" height="11"/>
    <rect class="cls-15" x="49" y="301" width="515" height="11"/>
    <rect class="cls-15" x="49" y="272" width="515" height="11"/>
    <rect class="cls-15" x="49" y="243" width="515" height="11"/>
    <rect class="cls-15" x="49" y="214" width="515" height="11"/>
    <rect class="cls-15" x="49" y="156" width="515" height="11"/>
    <rect class="cls-15" x="49" y="417" width="515" height="11"/>
  </g>
  <g id="Layer_3">
    <g id="Layer_2">
      <circle class="cls-9" cx="306.5" cy="396.5" r="187"/>
    </g>
    <rect class="cls-15" x="49" y="620" width="515" height="11"/>
    <rect class="cls-15" x="49" y="591" width="515" height="11"/>
    <rect class="cls-15" x="49" y="562" width="515" height="11"/>
    <rect class="cls-15" x="49" y="533" width="515" height="11"/>
    <rect class="cls-15" x="49" y="504" width="515" height="11"/>
    <rect class="cls-15" x="49" y="475" width="515" height="11"/>
    <rect class="cls-15" x="49" y="446" width="515" height="11"/>
    <rect class="cls-15" x="49" y="185" width="515" height="11"/>
  </g>
  <g id="Layer_7">
    <g>
      <path class="cls-6" d="M534.11,731.01c-3.14,2.44-7.12,4-11.18,4-3.31,0-6.45-1.04-8.67-3.26l-.43-.5c-1.87-2.15-2.6-4.84-2.39-7.57.03-.39,2.69-.83,2.75-1.22l-28.29.64,27.77-3.14c.06-.17-1.33-.18-1.26-.35.11-.27.23-.55.36-.82l-21.62.66,23.93-2.9c.13-.2-.84-.27-.69-.47.19-.26.38-.51.58-.76l-33.76,3.39,40.39-7.03c.11-.08-2.2-.32-1.77-.58,2.79-1.7,6.05-2.72,9.36-2.72,3.54,0,6.88,1.21,9.1,3.76l1.37,1.57,1.74-1.3,15.62-12.15-1.36-1.56c-5.66-6.5-14.14-9.71-23.18-9.71-9.69,0-19.15,3.66-26.65,9.47l-.04.03c-2.77,2.15-5.27,4.6-7.41,7.28-.11-2.13-.55-4.13-1.34-5.99-1.46-3.46-3.93-6.15-7.39-8.09-3.46-1.94-7.65-2.91-12.58-2.91h-31.56s-7.32,37.05-7.32,37.05c-.1-.3-.2-.59-.32-.88-1.08-2.63-2.98-4.9-5.67-6.79-2.7-1.89-6.24-3.64-10.64-5.27l-1.36-.52c-2.13-.81-3.66-1.44-4.61-1.86-.94-.42-1.64-.81-2.09-1.19-.45-.38-.58-.79-.54-1.27.09-1.26.63-1.66,1.32-2.16.69-.5,1.8-.75,3.35-.75,2.56,0,5.03.55,7.4,1.64.27.13,1.61.79,2.74,1.35l12.15-15.37c-1.68-1.13-3.47-2.08-5.36-2.88-3.95-1.66-8.73-2.49-14.33-2.49-5.6,0-10.64.94-14.63,2.81-4,1.88-7.09,4.32-9.28,7.32-2.2,3-3.65,6.25-4.34,9.76-1.2,6.07-.1,10.73,3.29,13.98,3.38,3.25,7.61,5.66,12.7,7.22,2.96.88,5.12,1.67,6.45,2.41,1.34.73,1.92,1.02,2.39,1.91.27.52.3,1.13.17,1.78-.42,2.13-2.67,3.19-6.75,3.19-2.73,0-5.26-.58-7.62-1.72-.88-.42-3.37-1.79-5.13-2.85l-12.68,15.56c6.08,4.75,13.55,7.13,22.4,7.13,5.46,0,10.41-.91,14.85-2.72,4.44-1.81,8.08-4.35,10.89-7.6.66-.77,1.27-1.56,1.83-2.38l-2.27,11.49h8.15s4.11-7.11,4.11-7.11h-2.26s4.52-7.83,4.52-7.83l4.52,7.83h-2.26s2.95,5.12,2.95,5.12l5.99-10.39h-4.52s6.67-11.55,6.67-11.55h-3.48s6.97-12.07,6.97-12.07l6.97,12.07h-3.48s6.67,11.55,6.67,11.55h-4.52s7.15,12.38,7.15,12.38h16.82s-8.89-25.38-8.89-25.38c2.13-1.17,4.05-2.53,5.75-4.09-.56,7.03,1.37,13.93,6.18,19.45l.65.74h.06c5.64,5.99,13.79,8.97,22.48,8.97,9.7,0,19.19-3.64,26.68-9.47l1.71-1.33-12.16-13.96-1.75,1.36h0ZM476.49,711.64c-.19.97-.63,1.89-1.32,2.77-.69.88-1.56,1.58-2.57,2.11-1.01.53-2.06.8-3.14.8l-8.37-.63,2.02-10.25h8.7c1.48,0,2.73.45,3.71,1.36.98.91,1.3,2.19.97,3.85Z"/>
      <path class="cls-7" d="M535.36,714.54c-1.98-2.32-5.22-3.23-8.58-2.72,0,0,0,0,0,0,.93,1.31,1.07,2.79,1.22,4.47l.07.79c.21,2.06,1.04,3.4,2.16,4.12.72.46,1.56.66,2.42.64.86-.03,1.74-.29,2.55-.74.72-.41,1.99-.86,1.99-1.76v-.02c-.03-1.78-.66-3.41-1.83-4.79ZM536.95,721.69l-.07.07c-.32.25-.66.47-1,.67-1.12.64-2.34.99-3.53,1.03-1.18.04-2.33-.24-3.31-.86-1.41-.91-2.46-2.54-2.71-5.02l-.08-.8c-.16-1.76-.31-3.29-1.55-4.5,0,0-.02,0-.03,0-.58.19-1.16.4-1.73.66-.13.06-.27.13-.41.19-.78.37-1.54.82-2.25,1.37-.05.03-.1.07-.14.11-1.86,1.46-3.28,3.22-4.14,5.06,0,.02-.01.03-.02.05-.05.1-.09.19-.13.29-.03.08-.07.15-.1.23-.71,1.77-.91,3.61-.49,5.34,0,.01,0,.02,0,.03.02.07.03.14.06.2.02.07.04.14.06.21,0,0,0,.02,0,.03.03.09.06.18.09.27.2.58.48,1.14.83,1.69.08.12.15.23.24.35.12.16.47,0,.69-.04.66-.11,1.4-.39,2.07-.66,2.33-.95,4.7-1.54,6.61-1.08,1.66.41,2.9,1.48,3.42,3.83.03-.02.07-.03.1-.05.09-.04.18-.09.27-.13.03-.02.07-.03.11-.05.82-.4,1.63-.84,2.38-1.44,2.48-1.95,4.18-4.47,4.75-7.07h0ZM525.14,728.16c-1.47-.36-3.44.15-5.42.96-.57.23-1.18.47-1.81.64,0,0-.02,0-.02,0,.94.8,2.21,1.35,3.56,1.64.09.02.18.04.27.06.04,0,.08.02.12.02.08.01.16.03.23.04.14.02.29.05.44.06,1.84.24,3.74.05,5.11-.51h0c-.41-1.76-1.31-2.63-2.48-2.91h0Z"/>
    </g>
  </g>
  <g id="Layer_5">
    <text class="cls-8" transform="translate(48.64 55.42)"><tspan class="cls-2" x="0" y="0">Friday Night Lights</tspan><tspan class="cls-16" x="279.82" y="0"> </tspan></text>
    <text class="cls-8" transform="translate(48.64 85.42)"><tspan class="cls-2" x="0" y="0">Friday Night Lights</tspan><tspan class="cls-16" x="279.82" y="0"> </tspan></text>
    <text class="cls-8" transform="translate(48.64 115.42)"><tspan class="cls-2" x="0" y="0">Friday Night Lights</tspan><tspan class="cls-16" x="279.82" y="0"> </tspan></text>
    <text class="cls-1" transform="translate(396.61 64.42)"><tspan x="0" y="0">8/30</tspan></text>
    <text class="cls-3" transform="translate(48.4 143.51)"><tspan x="0" y="0">Tennis, Games, and Food</tspan></text>
    <text class="cls-5" transform="translate(531.71 88.95)"><tspan x="0" y="0">$5</tspan></text>
  </g>
</svg>