<?xml version="1.0" encoding="UTF-8"?>
<svg xmlns="http://www.w3.org/2000/svg" xmlns:xlink="http://www.w3.org/1999/xlink" viewBox="0 0 162.95 176.53">
  <defs>
    <style>
      .cls-1 {
        letter-spacing: 0em;
      }

      .cls-2 {
        fill: #ff94cc;
      }

      .cls-2, .cls-3, .cls-4, .cls-5, .cls-6, .cls-7, .cls-8, .cls-9, .cls-10, .cls-11, .cls-12, .cls-13, .cls-14, .cls-15 {
        stroke-width: 0px;
      }

      .cls-16 {
        letter-spacing: -.01em;
      }

      .cls-17, .cls-18, .cls-19 {
        font-family: NiveauGroteskRegular, 'Niveau Grotesk';
      }

      .cls-17, .cls-18, .cls-19, .cls-20 {
        fill: #000;
      }

      .cls-17, .cls-20 {
        font-size: 3px;
      }

      .cls-3 {
        fill: #ffa2d3;
      }

      .cls-21 {
        letter-spacing: -.01em;
      }

      .cls-22 {
        clip-path: url(#clippath);
      }

      .cls-4 {
        fill: none;
      }

      .cls-23 {
        letter-spacing: -.04em;
      }

      .cls-24 {
        letter-spacing: 0em;
      }

      .cls-5 {
        fill: #8ddaef;
      }

      .cls-25 {
        letter-spacing: -.02em;
      }

      .cls-26 {
        letter-spacing: 0em;
      }

      .cls-6, .cls-27, .cls-28 {
        fill: #f33;
      }

      .cls-29 {
        letter-spacing: -.02em;
      }

      .cls-30 {
        letter-spacing: -.02em;
      }

      .cls-18 {
        font-size: 5px;
      }

      .cls-7 {
        fill: #faac6a;
      }

      .cls-27 {
        font-family: AdageScriptJF, AdageScriptJF;
        font-size: 10px;
      }

      .cls-31 {
        letter-spacing: -.03em;
      }

      .cls-32 {
        letter-spacing: 0em;
      }

      .cls-8 {
        fill: #393c57;
      }

      .cls-9 {
        fill: #010101;
      }

      .cls-19 {
        font-size: 4px;
      }

      .cls-10 {
        fill: #2bbdd9;
      }

      .cls-33 {
        letter-spacing: -.02em;
      }

      .cls-34 {
        letter-spacing: 0em;
      }

      .cls-11 {
        fill: #fee23a;
      }

      .cls-20 {
        font-family: MyriadPro-Regular, 'Myriad Pro';
      }

      .cls-12 {
        fill: #383838;
      }

      .cls-35 {
        letter-spacing: 0em;
      }

      .cls-36 {
        letter-spacing: 0em;
      }

      .cls-37 {
        letter-spacing: 0em;
      }

      .cls-38 {
        letter-spacing: 0em;
      }

      .cls-39 {
        letter-spacing: 0em;
      }

      .cls-13 {
        fill-rule: evenodd;
      }

      .cls-13, .cls-15 {
        fill: #fff;
      }

      .cls-14 {
        fill: #ffa2d3;
      }

      .cls-28 {
        font-family: PulpoRust-75, 'Pulpo Rust';
        font-size: 8px;
      }

      .cls-40 {
        letter-spacing: -.02em;
      }

      .cls-41 {
        letter-spacing: 0em;
      }
    </style>
    <clipPath id="clippath">
      <rect class="cls-4" x="46.44" y="25.92" width="100.72" height="139.99"/>
    </clipPath>
  </defs>
  <g id="Main_1" data-name="Main 1">
    <g class="cls-22">
      <g>
        <path class="cls-12" d="M132.18,129.23s0-.06,0,0h0Z"/>
        <path class="cls-12" d="M122.22,155.53s0,.02,0,.03c.14.08.26.15.35.21l-.34-.23Z"/>
        <path class="cls-12" d="M119.54,159.36s-.03,0-.05,0c.09.03.17.08.05,0Z"/>
        <path class="cls-12" d="M124.91,145.25s0-.07-.04-.1c.02.03.04.07.04.1Z"/>
        <path class="cls-12" d="M135.09,121.75s0,.01,0,.02c.04,0,.06,0,.11,0l-.11-.03Z"/>
        <path class="cls-12" d="M142.88,111.23l.03.1s-.01-.07-.03-.1Z"/>
        <path class="cls-12" d="M113.64,141.02s-.01-.06-.03-.09c-.02.03,0,.06.03.09Z"/>
        <path class="cls-12" d="M141.15,112.28l.24.31c-.09-.13-.17-.23-.24-.31Z"/>
        <path class="cls-12" d="M117.68,163.15c-.11-.04-.2-.07-.28-.09,0,0,0,0,0,0l.29.08Z"/>
      </g>
      <g>
        <path class="cls-5" d="M59.47.7c-1.81-1.14-3.06-.64-4.26-.15,1.97.86,3.3,1.01,4.26.15Z"/>
        <path class="cls-5" d="M55.16.53s0,.02,0,.03c.02,0,.03,0,.05-.01-.02,0-.03-.01-.05-.02Z"/>
        <path class="cls-5" d="M77.25,160.6c0-.15-.01-.32-.02-.49-.09.15-.13.3.02.49Z"/>
        <path class="cls-5" d="M20.71,40.33l2.9,1.35c-.6,1.55-3.56-.98-3.43.74,3.93,2.31-1.42,2.17.58,3.59-.33-.15-.74.49-2.03-.1,2.17,1.16.22.93.62,1.62.56.42.73.17,1.46.33l.38,1.35c-.89.09-2.27-.37-2.34-.9-.95,1.16-3.3,4.67-5.39,8.4-2.1,3.7-3.93,7.64-3.94,9.31,1.87.29,1.07-1.06,3.91-.34,1.22,1.37-.98.92.49,1.89-4.16-1.27-1.62,1.33-5.95.34l2.21,1.11-1.55-.15c1.07,4.36.86,1.23-.85,4.08-.31,1.92,2.57,3.96,1.03,4.51.08-.14,1.63,0,2.05.67-2.05-.67,1,1.76-1.13,1.23.09.54-.71,1.91,2.24,2.42-1.47-.26-2.51.86-3.43-.36-.24.41-.8.7-.3,1.24l.98-.29c-.13,1.64-2.58,1.7-.41,3.56l1.3-.16c-.14.96-.2,1.77-3.08,1.16l-.52-1.22c-.47,1.51-.59,2.49.45,4.25l.23-.42c1.11,1.28,1.51,4.17,2.04,7.09.54,2.92,1.19,5.83,2.69,7.11l2.38.02,1.42,1.83c.07-.14-6.82-2.83-6.08-2.73-.3,1.4-1.23,5.75-2.15,10.06-.99,4.3-2.05,8.57-3.14,9.65-1.49.72-3.53-.73-3.87-.84.48,1.49,2.17,1.16,1.7,2.19-.47.19-1.7-.51-1.97-.76.14.55-.73.79.28,1.09.95-.39,3.6.57,5.43.77l-.58,1.32-1.7-.5c-.13.3,4.5,1.98,3.24,3.09-1.33,2.09-1.31,4.73-2.24,6.95-1.03-.27-1.53-.9-2.02-1.53-.13.3.03.84-.78.95,1.96-.14,1,1.25,1.87.99,3.83,2.64-.51,3.97,2.06,6.09,1.89.47,18.12,4.73,34.46,8.83,16.35,4.12,32.82,8.08,35.09,8.53-.16.35-.32.71-.72.74,1.09.12,1.75-.51,1.22-1.02l-2.42-.56c-.67-1.07,1.49.09,1.51-.82,2,.37,2.26,1.25,2.3,1.99.36-.58,1.95-.91-.18-1.62.95-.42,2.42.57,3.42.04-.48-.62-2.29-1.71-.99-2.03l.35.09c2.33-.95-2.52-2.83-.21-3.67l.63.29c1.25-.19-.08-1.44,1.33-1.98-.45.14-1.93,0-2.05-.55,1.46-.65.38-1.6,2.09-1.91l-1.77-1.14c.31-.8.55-2.27.8-4.07.27-1.8.49-3.94.74-6.1.49-4.31,1.03-8.69,1.4-10.43l.26.23c.34-2.72,1.41-6.71,2.39-10.82.97-4.11,1.82-8.34,1.55-11.53,2.15-.15,2.13-1.46,2.99-2.14-.95.2-2.19-.46-1.97-.81,1.24-2.59-1.2-.66-.94-3.67-.54-3.77,6.23-15.04,8.98-17.2-2.05-2.61.77-3.66-.29-5.85l.57.41c-.17-1.01,1.31-3.5,2.85-6.04.7-1.18,1.4-2.37,1.99-3.37.22-.4.38-.7.48-.98.1-.27.13-.53.07-.7l-.44-.04c-1.19-1.65,1.61-.2,2.75-.25-1.46-.71-2.52-1.44-3.22-2.03-.71-.56-1.06-1.01-1.11-1.17l.61.36c-.15-.32-.77-.88-1.34-1.55-.57-.64-1.17-1.22-1.19-1.57l1.45,1.02c-1.34-1.42-.17-1.62-.12-1.94.51-.03,1.54.3,2.26.44.74.13,1.18.05.81-1.01,1.24,1.17,2.42,2.35,3.56,3.59l-.25-.4s-2.24-2.92-5.7-7.43c-3.44-4.53-8.01-10.7-12.8-17.19-1.22-1.64-2.46-3.31-3.7-4.97-1.31-1.73-2.62-3.46-3.91-5.16-2.61-3.4-5.14-6.68-7.62-9.65-4.94-5.94-9.5-10.56-12.9-12.29l-1.05-1.44c-.3.29-.59.59-.88.89-1.81.19-1.01,2.15-2.1.76.6-.36,1.22-.69,1.83-1.03-1.57.47-1.33-.84-1.49-1.97-.64.24-1.29.44-2.08.34.2.69.67.43,1.12.58-.29.94-.04,2.93-1.38,2.93-1.35.86-2.05-2.06-3.63-.97-4.27,2.79-8.3,5.98-11.87,9.67-.88.94-1.73,1.86-2.58,2.9-.84,1.05-1.73,2.2-2.44,3.24-.72,1.04-1.46,2.17-2.03,3.18-.61,1.05-1.18,2.12-1.63,3.13-.75-.15-.61-.36-.78-.75-.14.7-.34,1.36-.55,1.97-.18.59-.39,1.16-.59,1.72-.42,1.15-.71,2.12-.81,3.29-.97.22-2.02-.1-2.76-.24.37.07.36.8.14,1.84-.14.86-.41,1.86-.76,2.89-.69,2.05-1.62,4.05-1.82,4.04Z"/>
      </g>
      <g>
        <path class="cls-6" d="M56.01,19.78c6.44.78,13.34,4.56,19.87,6.05,3.93.81,8.31,2.44,12.26,4.78,3.98,2.32,7.67,5.36,10.78,8.85-.51.45-1.78.58-1.53,1.36,1.17,2.94-.02,3.76-1.08,4.59-.52.4-1.27-1.58-1.37-.63-.62-.79-1.6-1.69-2.28-2.18-.71-.46-1.12-.5-.66.42-.01.46.52,1.06,1.04,1.67.49.63.93,1.31.74,1.87-.42,1.1-1.98.81-2.4,1.9.34.46,1.05,1.36,1.34,1.84-.27.84-1.99.69-1.7,1.14.32,1.67,1.6,3.25,2.31,5.16-.32.12-.58.39-.86.49-.14.05-.28.06-.44,0-.15-.04-.31-.14-.48-.32-1.67-3.72-4.54-7.07-8.19-9.8-1.82-1.37-3.81-2.6-5.91-3.67-2.1-1.08-4.26-1.97-6.72-2.88-4.89-1.79-10.1-3.46-15.28-5.09-5.18-1.63-10.35-3.24-15.49-4.85-2.26-.93-.18-1.81,1.87-2.32-.68.17-.42-.82-1.11-.64.25-.99,1.88-2.33,4.4-2l-1.81-.49c-.52-.49.26-.99.44-1.64.61.16,1.22.33,1.31,0,.09-.33.27-.99.36-1.31-.61-.16-1.84-.49-2.45-.66.61.16,1.22.33,1.31,0,.09-.33.26-.99.35-1.32,1.32,0,2.98,1.16,4.3,1.19l.28-.98c-1.14-.68-3.08-.86-4.31-1.19.71-.16.8-.49.97-1.15,1.96.18,3.53,1.68,5.65,1.23l-1.85-.53c1.71-1.29,4.41.92,6.35,1.15Z"/>
        <path class="cls-14" d="M87.27,112.02c-.14.14,0,.55-.5.22-1.52-1.09-2.13-2.61-3.66-3.85l-.32.14c-.97-1.15-1.98-2.36-3.01-3.59-2.08-2-4.44-4.07-6.73-5.92-.02.14-.06.25-.32.09-.99-.75-2.21-1.95-3.55-3.11-.21-.15-.43-.31-.64-.46-.2-.07-.31-.02-.38.01-.62-.55-1.18-1.04-1.69-1.49-3.58-2.67-7.07-5.14-10.27-7.16-.81-.52-1.61-1.03-2.35-1.44-.75-.43-1.53-.9-2.23-1.28-1.37-.73-2.76-1.48-4.19-2.25-.71.59-1.49.91-2.38.99-.11.06-.23-.11-.35.26-.1.25-.15.5-.17.72-.05.45,0,.84.06,1.23.14.77.38,1.51.71,2.31.84,1.75,2.03,3.67,3.21,5.66.4.71.83,1.49,1.32,2.43.49.98.99,2,1.49,3.01,1.02,1.91,1.66,3.71,2.59,5.3.22-.21.66.1,1.2.54.57.45,1.1.94,1.72,1.43,1.18.98,2.36,1.73,2.41.86,1.04,1.45,2.86,3.44,3.19,3.3,1.02-.43,2.64-.09,6.48,2.07,1.44.92,3.5,2.58,4.14,2.69.98.18-1.59-1.68-.6-1.49-2.62-1.62-5.03-3.55-7.16-5.73-1.06-1.1-2.08-2.23-2.99-3.45-.47-.59-.9-1.23-1.33-1.85l-.31-.48-.07-.11h0s0-.01,0-.01h0s-.08,0-.18-.1c-.05-.05-.1-.1-.14-.16-.04-.04-.1-.17-.03-.12-.2-.26-.32-.46-.31-.55.01-.11.21-.06.54.13.09.05.18.11.27.16l.15.1.08.05.56.45c1.55,1.25,3.11,2.54,4.62,3.84,1.51,1.29,2.98,2.59,4.33,3.84,1.35,1.25,2.68,2.59,3.88,3.74,2.4,2.35,4.36,4.32,5.72,5.59l.6.52c3.52,3.25,8.1,6.74,11.55,8.75,1.62.87,3.3,1.69,4.97,2.49-.58-.65-1.1-1.27-1.55-1.82,1.49,1.11,2.98,2.21,3.68,2.45,3.5,1.87,2.01.11,1.23-1.4-.69-.91.81-.49-.37-1.76.99.72,1.48,1.08,2.48,1.81.3-.18-3.18-2.05-2.17-1.99.89.79,2.08,1.39,3.07,2.1-.09-.6-3.37-2.59-2.96-2.83.59.3,2.46,2.48,2.97,2.17.1-.06-.89-.78-1.38-1.14,3.17,2.04,5.18,2.8,2.7.34.97.7,2.22,1.86,3.3,2.52h0c-.51-.39-1.34-1.11-1.81-1.45l1.75,1.26c-.05-.13-.11-.26-.18-.4-.4-.36-.81-.72-1.27-1.04l1.16.84c-.19-.35-.43-.73-.71-1.12-1.19-1.26-2.22-2.61-2.95-3.15-5.87-4.47-11.62-8.95-16.91-13.71Z"/>
        <path class="cls-6" d="M56.49,120.33c2.31,1.38,4.68,3.07,7.09,4.87,1.2.9,2.42,1.84,3.64,2.81.62.49,1.23.98,1.88,1.53.32.27.66.57,1.02.9.19.18.42.41.65.65l.31.38c.05.08.1.1.18.21l.11.15s.12.16.01.02c.64.84,1.28,1.68,1.94,2.46.68.72,1.36,1.42,2.04,2.07,3.13,2.73,6.6,5.36,10.28,7.96,3.68,2.6,7.56,5.16,11.36,7.88-.27.37-1.29.48-.79,1.11,2.12,2.4,1.55,3.11,1.01,3.84-.27.36-1.85-1.36-1.5-.54-1.84-1.37-5.08-3.32-3.48-1.65.36.79,3.08,2.19,3.27,3.19.2.99-1.41.65-1.22,1.64.61.43,1.74,1.35,2.32,1.79.28.8-1.42.62-.85,1.06,1.36,1.7,3.62,3.35,5.32,5.38-.17.15-.23.44-.38.56-.15.12-.41.08-.92-.31-2.23-2.43-5.08-4.64-8.15-6.79-3.08-2.15-6.4-4.26-9.74-6.54-3.34-2.28-6.71-4.75-9.91-7.57-1.61-1.4-3.15-2.92-4.63-4.51-.72-.82-1.47-1.63-2.15-2.46l-1.93-2.5s.02.04-.05-.03l-.54-.46c-.42-.35-.93-.74-1.43-1.13l-3.18-2.37c-2.2-1.62-4.4-3.24-6.59-4.86-2.21-1.65-4.41-3.34-6.6-5.14-1.1-.91-2.19-1.84-3.3-2.86-.56-.51-1.11-1.04-1.69-1.65-.57-.59-1.19-1.28-1.89-2.25-.22-.35-.42-.7-.57-1-.06-.11-.19-.42-.27-.63-.09-.23-.16-.44-.21-.64-.14-.46-.12-.59-.12-.74,0-.15,0-.27.02-.36.05-.1.11-.14.19-.13.08,0,.17.05.3.27.06.1.13.21.2.34.11.22.25.49.41.76.36.65.63.83.98,1.22.33.33.62.52.95.8.3.2.6.41.91.61-.81-.55-.28-.96-1.12-1.68.14-.1.38-.11.7-.03.32.09.72.24,1.15.42.88.38,1.96.97,3.2,1.9-.58-.51-1.16-1.03-1.72-1.59-.4-.73.48-.48.8-.81.55.53,1.11,1.04,1.26.87.15-.17.46-.51.61-.67-.55-.49-1.62-1.51-2.06-2.05.46.53.99,1.04,1.14.88.16-.16.48-.49.64-.65,1.14.81,2.53,2.58,3.83,3.34l.43-.53c-1-1.1-2.82-2.33-3.78-3.29.65.31.81.14,1.12-.19,1.64,1.21,2.93,3.14,5.09,3.96l-1.72-1.36c1.82.03,4.17,2.99,6.12,4.15Z"/>
        <path class="cls-2" d="M76.18,136.67c-3.33-1.84-6.36-5.42-9.85-7.06-2.11-.94-4.18-2.07-6.22-3.25-1.01-.59-2.02-1.19-3.02-1.77-.97-.58-1.88-1.09-2.73-1.52.2-.41.81-.86.61-1.22-.89-1.19-.56-2-.2-2.85.18-.42.99.45.85-.12,1,.46,2.77,1.21,1.99.25-.12-.6-1.69-.88-1.77-1.64-.09-.79.93-1.08.83-1.86-.38-.18-1.18-.5-1.59-.65-.26-.58.89-1.12.46-1.28-1.15-.91-3.15-1.22-5.17-1.32.01-.23-.07-.46-.06-.66,0-.1.03-.19.11-.27.1-.07.28-.13.55-.17,2.38.14,4.59.75,6.53,1.52,1.95.77,3.68,1.69,5.28,2.58,3.13,1.75,6.19,3.6,9.18,5.59,5.97,3.98,11.61,8.49,16.54,13.57,1.03,1.27-.49,1.1-1.82.78.45.1-.02.6.43.71-.47.5-1.81.78-3.13-.1l.87.79c.13.43-.46.5-.77.84-.29-.26-.58-.53-.73-.36-.15.17-.46.5-.61.67.29.26.86.79,1.14,1.05-.28-.26-.57-.53-.72-.36-.15.17-.46.5-.61.67-.72-.35-1.27-1.47-2-1.8l-.45.51c.43.67,1.42,1.28,1.99,1.8-.44-.09-.59.08-.9.41-.99-.6-1.4-1.87-2.71-2.11l.85.75c-1.32.35-2.14-1.58-3.17-2.14Z"/>
        <g>
          <path class="cls-3" d="M73.37,101.09s-.06.05-.1.09c.04-.03.08-.06.1-.09Z"/>
          <path class="cls-3" d="M76.96,105.48h-.09s.07.02.09,0Z"/>
          <path class="cls-3" d="M71.18,98.53l.03-.02s-.08-.09-.15-.18l.13.2Z"/>
          <path class="cls-3" d="M85.57,113.91l-.06-.04s.03.05.06.04Z"/>
          <path class="cls-3" d="M80.45,108.91c.05-.03.09-.02.13,0-.03-.04-.06-.05-.13,0Z"/>
          <path class="cls-3" d="M71.89,95.28l-.07.2c.06-.06.09-.14.07-.2Z"/>
          <path class="cls-3" d="M68.96,93.46s-.01.02-.02.04c.02,0,.02-.02.02-.04Z"/>
          <path class="cls-3" d="M69.35,94.93s.08,0,.13,0c-.03-.02-.07-.06-.13,0Z"/>
          <path class="cls-3" d="M69.54,94.93h-.07s.04.02.07,0Z"/>
          <path class="cls-3" d="M124.7,134.61c.16,0,.31-.14.44-.27-.14.09-.29.18-.44.27Z"/>
          <path class="cls-3" d="M94.23,120.53l-.06.05s.05-.03.06-.05Z"/>
          <path class="cls-3" d="M124.88,132.95l.08.04s-.06-.04-.08-.04Z"/>
          <path class="cls-3" d="M73.51,96.15c.2-.07.19.23.31.1-.09-.05-.1-.25-.31-.1Z"/>
          <path class="cls-3" d="M100.13,116.07l.06.03s-.04-.03-.06-.03Z"/>
          <path class="cls-3" d="M124.88,132.95l-.1-.04s.02.06.03.09c.02-.03.04-.05.07-.05Z"/>
          <path class="cls-3" d="M103.63,126.92h0s-.02,0-.04.01h.04Z"/>
          <path class="cls-3" d="M103.97,127.5s-.09-.01-.14-.02c.05.05.09.05.14.02Z"/>
          <path class="cls-3" d="M125.14,134.34l.23-.16c-.09.03-.16.09-.23.16Z"/>
          <path class="cls-3" d="M109.67,130.64s-.04-.01-.06,0c.02.01.04.02.06,0Z"/>
          <path class="cls-3" d="M80.17,108.54s0-.04-.01-.06c-.03.03-.05.05.01.06Z"/>
          <polygon class="cls-3" points="86.75 107.53 86.75 107.54 86.75 107.53 86.75 107.53"/>
          <path class="cls-3" d="M86.42,107.57c.03.08.2.04.33-.03-.06-.05-.14-.06-.33.03Z"/>
          <path class="cls-3" d="M87.07,107.93s0-.02,0-.04c0,.02,0,.03,0,.04Z"/>
          <polygon class="cls-3" points="83.7 104.65 83.69 104.66 83.7 104.65 83.7 104.65"/>
          <path class="cls-3" d="M84.43,105.22s-.01.07,0,.11c.01-.04.02-.08,0-.11Z"/>
          <polygon class="cls-3" points="89.21 108.95 89.2 108.96 89.21 108.96 89.21 108.95"/>
          <path class="cls-3" d="M96.98,113.11c-.77-.43-1.9-.79-2.53-1.39-.38.2-.61.04-.88-.06l.28-.43h-.28c.02-.19.2.02.18-.23l-.26.2c.1-.16-.4-.45.13-.51l-.71-.54c-.15-.13-.35.27-.45.04.06-.15.12-.03.22-.19-.29-.7-1.21.33-1.55-.23l.08-.02c-.17.04-.31-.09-.36-.04-.25.46.26-.15.22.2-.28.33-.33.04-.52.31-.02-.21-.23-.07-.35-.13,0-.35-.36-.38-.28-.75-.17.04-.52.31-.71.18.08-.37.23-.23.14-.47l-.18.18c-.12-.14-.05-.18.03-.27-.14-.13-.34.17-.43-.1l.26-.11c-.2-.04-.23-.11-.41-.29.09-.11.17-.04.2.04.13-.38-.28-.02-.31-.09-.05.1.05.24-.17.39-.07-.11-.42.1-.3-.18l.26-.11c-.32,0-.3.16-.48-.1.02,0,.06-.06.1-.1-.35.14-.35-.25-.55-.44l.08-.02c-.14,0-.33.13-.36.08.03.21-.05.24-.19.44.1-.46-.55.17-.66-.24.09-.11.27-.19.25-.01.36-.26.6-.53.88-.55-.16,0-.32-.06-.18-.17l-.28.28c-.07-.04-.1-.1-.15-.14-.18.17-.14.42-.38.43-.24-.03.17-.38.03-.27-.32-.06-.36.26-.49-.02.04,0,.13-.03.12.02-.05-.25-.42-.25-.16-.65.09-.06.18-.17.22-.09l-.05.05c.38-.13-.2-.04.13-.33-.15.21-.33-.01-.39-.12l-.16.25c-.87.41.38-.43,0-.6-.32-.01.02.12-.23.18-.1-.15.01-.39-.26-.45.02-.13,0-.35.21-.61-.2,0-.26-.41-.53-.23.02.38.42-.09.38.43l-.27.19c-.15-.15-.46-.2-.5-.39-.02.07-.06.14-.12.18-.31-.1-.58.08-.75-.18.16-.25.26-.1.37-.04,0-.3-.14-.14-.31-.41.15-.21.14.14.33-.03l-.3-.15.03-.04c-.31.3-.17-.19-.4-.22-.36-.31-.79.08-1.21.17.02-.13.08-.23.17-.29-.03.22.05.09.15.03-.15-.07,0-.55.19-.62-.27-.07-.08.23-.28.23l-.24-.25c-.11.19-.05.31-.3.32-.15-.06-.18-.14-.32-.28.09-.06.17-.29.27-.18-.02-.13-.12-.23-.31-.11.03.29-.39-.09-.49.27l-.03-.29s.13-.07.16.01c.17-.29-.2-.05-.27-.07-.02-.1-.15-.25-.07-.36-.11.02-.19-.14-.1-.29-.12-.02-.15.16-.24.22l-.24-.25c.11-.15.42-.55.51-.57-.21.04-.39.38-.53.23.32-.19-.02-.38.39-.59.09-.27-.16-.48-.36-.52-.27.14.04.25-.16.46-.45-.25-1,.32-1.18-.03l.02.13c-.28-.03-.24-.04-.5.05.29-.22.45-.89.12-1.09-.14.11-.07.4-.31.57l-.22-.13s.07-.06.12-.07c-.25-.06,0-.63-.33-.36l.18-.54-.08.23c-.14.11-.37-.02-.45,0-.32-.03-.29-.21-.24-.47-.07.14-.21.46-.4.37.39-.43-.17-.45.04-.66-.07-.05-.05-.28-.22-.11l.26-.26c-.36.36-.56.14-.79.04.5-.47-.22-.13.13-.66-.35.31-.42-.14-.72.12-.14-.11.16-.41.23-.55l-.18.07c.08-.22-.13-.47-.18-.72l-.42.17.08-.18c-.09.06-.25,0-.28.17l-.06-.09c-.31.32-.19,0-.46,0,.02-.08.1-.15.17-.17-.07-.07.12-.21.18-.36-.03.13-.81.34-.76.67-.11.15-.32.14-.33,0l.23-.33-.38.23c-.15-.06-.02-.3-.08-.42.11.07.74-.37.5-.59.16.08.37-.02.5-.02-.04-.06-.03-.11.16-.16-.27-.09-.23.12-.45-.02.26-.25.29-.38.22-.63l-.07.31s-.07.04-.09.05c.02.07,0,.12-.1.23-.03-.04-.52.12-.4-.07-.21.58-.62,0-.74.36-.09.06-.24-.05-.12-.2.34-.05.17-.41.37-.56-.13.02-.07.31-.24.33-.11-.07-.02-.3.01-.43h.08s-.03-.26-.03-.26c-.15.11-.08.35-.27.29.02-.09-.17-.15-.07-.24.23-.12.42-.4.57-.34-.11-.07-.43-.32-.55.04l-.1-.11c-.04.18-.04.56-.29.38l.05-.05-.34.05.06-.2c-.06.07-.14.1-.2.05.06-.09.04-.17.14-.27-.18-.15-.29,0-.39.05-.11-.07-.09-.16.1-.27-.09-.15-.34-.33-.29-.55-.28-.05-.02.09-.29.17.3-.59-.37-.72-.69-.93-.32.46-.12-.03-.52.28.18-.06.05-.56.39-.43l-.18-.1c.12-.31.4.08.54-.36-.17-.15-.71.17-.75-.16.34-.21-.24-.06.12-.31.14-.06.16.02.24.05l.02-.09c-.27-.43-.43.22-.8.23-.25-.18.05-.39.17-.53.02-.09-.13-.15-.26-.14.3-.04.07.41-.17.53.22-.41-.29-.34-.48-.28-.03.64.2.23.12.87.14-.06.42-.35.47-.06-.25.03-.15.16-.17.24.13-.2.19.05.31.04-.08.18-.48.27-.37.51l.42-.35c.01.13-.31.25-.07.31-.28.12-.29.33-.55.19-.09.56.54.19.86.23-.04,0-.1.05-.14.06.14-.06.2.02.28.05.03.21-.27.08-.34.21l.21.19s-.01.02-.02.03c.1,0,.19.01.11.13-.18.06-.33.17-.47.23l.47-.06c-.15.1-.05.39-.29.33l.36.25-.23.29c.12.03.17-.02.12-.14.04.17.91,0,.35.46.45.02.46.19.88.35-.46.02-.04.56-.39.44.03.25.33,0,.49.06,0,.21-.3.42-.51.41h.25s-.05.06-.05.06l.26-.04c-.01.26-.23.29-.14.45l.25-.21-.05.22c.07-.14.19-.11.3-.04l-.05.05.15.06c-.25.03.05.15-.16.27.08.1.09.1.3.23l.12-.19c.36.08-.22.25-.05.44l.16-.19c-.04.56.61.25.62.64-.15-.06-.33.18-.28.13.23.09.46.4.85.34-.19.33-.25.42-.18.71.15.11.19.1.38-.02.03.22.41.29.24.49.17-.13.09.14.28.07l-.06.09.16-.2c-.16.63.6.12.49.7h-.09s.16.03.16.03c-.06.1-.15.11-.25.21l.42.45.04-.22c.11.07.34-.06.35.16-.44.12.14.15-.03.39h-.16q.15.09.31-.11c.23.09-.21.47.13.41l-.1-.11c.07-.14.29-.22.36-.15,0,.05-.03.18-.11.15.2.05.32.33.44.31.02.13-.13.24-.21.25.44.1.1.16.54.25l-.1.1.21-.04-.06.36.07-.19c.11.07.24.05.29.21l-.19.12c.35.16.07.55.53.56,0,.04-.09.06-.14.07.46-.04-.07.45.44.35-.06.04-.1.13-.15.17h.2s-.2.2-.2.2l.37-.24-.13.28.13-.07c-.25.52.19.35.08.81l.21-.3c.9-.21.65,1.13,1.37,1.3l-.2.21.43-.08c-.04.27-.23.13-.29.27.32.07.37-.25.68-.09,0,.26-.18.12-.31.15.33.1.79.27.85.54.03-.03.07-.06.07-.08.24.04.37.31.56.45-.09.1-.15.08-.21.06.05.07.08.21.22.15l-.23.13c.1.15.51.2.35.45.06-.1.2-.26.31-.15-.22.39.44.13.47.47-.09.06-.24-.04-.21,0,.02.17.24.08.41.05l-.14.12.6.17c-.22.39.46.29.22.52.15.14,0-.26.22-.13-.06.19.24.08.05.29h-.04s.15.11.15.11l-.27.15c.16.05.43-.09.57-.26.01.22.26.25.15.49l-.09.02c.39.18.04,1.04.6.87,0,.05-.05.1-.09.07l.19.18-.18.13h.54s-.09.12-.09.12c.18.22.57.43.88.62l-.08.02c.45.07.21.34.54.4-.03.02-.05.03-.06.03l.21.16-.13.07c.34-.13.18.66.25.38.17-.04.42-.06.55-.18.23.16-.06.19,0,.39.15.14.33-.04.47.24l-.09.11c.12.06.24.03.4.12l-.08.02c.42-.06.03.56.6.2.03.17.27.24.08.46.41.07.69.18,1.05.31-.24.41.08.02.09.37l.14-.21c.43.28.52,1.15,1.04,1.4l-.14.21.26-.16c.42.46,1,1.01,1.39,1.3.21-.01.58-.12.73.11h-.04c.44.16.88.34,1.19.74-.09.07-.09.16-.18.18.26-.16.24.15.32.22v-.23c.26-.12.29.19.24.38l.34-.1s0,.07-.03.11l.11-.09-.1.34c.08-.02.37.07.63-.14-.05.1.07.29-.1.25l.59.54-.03-.17c.13-.22.42-.21.45-.05-.25.08-.22.29-.27.48.17-.05.05-.24.18-.32.21-.06.49.03.49.16l-.12.04c.2.03.02.44.18.52.25-.08.24.15.46-.23.24.06-.09.3-.06.37.21-.11.4.19.31.39.47-.46.39.55.74.13v.36c.07-.12.29-.36.45-.32.03.21-.14.4-.18.55l.38-.39c.37.96,1.53,1.25,2.04,2.16.41.13.98.21,1.35.54l-.08.03.33.38-.16-.4c.12,0,.25-.04.33.02.32.47.78,1.08,1.47,1.2.69-.3-.06.61.53.45-.06.03-.12.1-.18.13.48.06.73.1,1.29.02-.37.49.25.14.05.39l.16-.19c0,.18.17.34.05.48l.33-.16-.12.23c.21.15.78.26.63.77.74,0,1.53.63,2.16,1.11.2-.12.41-.02.58.05v.36c.22.01.58-.22.63.04-.02.03-.04.05-.06.06.19.04.26.27.56.12.17.12.26.36.06.57.27-.43.34.28.34.28,0,0,.13.1.37.27.18.11.4.24.65.4.22.12.46.26.73.4,1.03.55,2.36,1.15,3.83,1.66,1.47.5,3.06.91,4.57,1.02,1.49.11,2.96-.08,3.92-.75.15-.25.51-.43.36-.72.26-.11.44.32.46.07-.38-.14.02-.65-.33-.94l.18-.07c.02-.18-.24.22-.22-.11l-.02.47c-.17-.06-.26-.16-.31-.31-.14.19-.25.8-.58.51l.09-.02c-.27,0-.14-.31-.19-.39h.06c-.06-.08-.13-.16-.19-.24.14.17.44-.19.3-.17-.28-.15.07.12-.16.16-.14.01-.07-.23-.05-.37l-.23-.02c.04-.21.15.03.09-.2l-.32.19c.03-.55-.36.22-.4-.32.23-.09.01-.19.08-.35l-.5-.07c-.03-.08.16-.14.08-.13-.06-.17-.18.1-.23.09,0-.16-.37-.08-.27-.43-.27-.32-.25.42-.5.14.01-.22.26,0,.18-.25h-.34c.06-.1.15-.33.26-.25-.78-.51-.89-1.75-1.72-1.7-.03-.28.13-.14.26-.29-.65.16-.58-.79-1.05-.91l-.08.2c-.42-.85-1.31-.75-1.92-1.28l.03.17c-.17.16-.34.12-.49.16.02-.11.25-.4.02-.4.01.09.07.2,0,.29-.2-.38-.62-.66-1.09-.94-.22-.14-.48-.27-.68-.41l-.3-.21c-.06-.06-.12-.13-.18-.19-1.34-.6-2.56-1.78-3.87-2.44.2.1-.16.51-.24.32.08-1.02-.76-.29-.84-1.06-.89-.19-1.12-1.27-2.16-1.11l.12-.23c-.04-.16-.16-.03-.28-.07l.04-.06c-.2-.24-.64-.21-.72-.41l-.16.24c-.16-.07.04-.24-.2-.19l.08-.12-.32.12c.29-.41-.4-.3-.39-.57-.24-.05-.72-.1-.95-.38.09-.25-.27-.48-.42-.74-.47-.23-1.14-.57-1.65-1.02l-.17.28-.16-.08c.04-.06.04-.1.09-.12.1-.39-.4-.13-.38-.4-.09.3.07.11.15.17.03.21-.26.4-.33.15l.04-.06-.21.07c.13-.22.1-.39.23-.61-.51-.27-1.08-.13-1.5-.56.21-.2-.39-.18-.01-.52-.4-.05-.18.36-.51.56-.08-.06-.24,0-.15-.17.11-.07.11-.29.2-.29l-.22-.1s.09-.07.13-.08c-.56-.04-.51-.76-1.03-.77-.13.13.11.14-.02.27-.57.04-.13-.49-.61-.51l.21-.15c-.21.06-.38.2-.44-.08.14-.26.29-.09.45-.14-.11-.1-.46-.25-.52.03-.2-.03-.1-.27-.13-.39-.04.06.02.25-.14.3-.1-.27-.41-.48-.64-.68.04-.06.09-.16.13-.17-.42.17-.01-.34-.32-.47Z"/>
          <path class="cls-3" d="M83.64,104.54l.06.11s.09-.1.18-.12h-.24Z"/>
          <path class="cls-3" d="M87.91,108.31s.05-.02.08-.04c-.03,0-.06.01-.08.04Z"/>
          <path class="cls-3" d="M89.31,108.76c-.12-.01-.1.1-.1.19.04-.04.08-.1.1-.19Z"/>
          <path class="cls-3" d="M80.69,103.01s.07-.03.11-.08c-.06.02-.09.05-.11.08Z"/>
          <path class="cls-3" d="M74.22,96.84s0,.03,0,.06c0-.02.01-.04,0-.06Z"/>
          <path class="cls-3" d="M74.27,97.51s.05.03.1.04c-.02-.04-.06-.05-.1-.04Z"/>
          <path class="cls-3" d="M82.39,104.36s.07.02.13,0c-.04-.03-.09-.01-.13,0Z"/>
          <path class="cls-3" d="M74.49,97.57l.07.11s.02-.02.04-.04l-.11-.07Z"/>
          <path class="cls-3" d="M74.13,96.7s.08.09.09.13c0-.1-.02-.14-.09-.13Z"/>
          <path class="cls-3" d="M77.98,101.11s0,0,.01,0c.16-.03.08-.03-.01,0Z"/>
          <polygon class="cls-3" points="75.23 97.58 75.23 97.6 75.32 97.57 75.23 97.58"/>
          <path class="cls-3" d="M73.82,96.25s.05.02.08,0c0-.02-.02-.04-.03-.07-.02.03-.04.05-.05.07Z"/>
          <path class="cls-3" d="M76.9,99.52c-.1.06-.16.1-.2.14.03.03.09,0,.2-.14Z"/>
        </g>
        <path class="cls-7" d="M74.29,159.37l.91.6c-4.66-4.06-10.21-7.57-13.76-12.09-.16-.35-.47-1.06-.63-1.42-1.75-2.17-4.37-4.32-6.16-5.92-.51-.4-1.15-.46-1.77-.45-.61.01-1.13.11-1.13.11-.46-.03-1.22.11-1.3.55.27.6,1.21,1.89.74,2.33-.13.11-.37-.14-.56-.41-.52.45-2.24.45-2.47.15-.25-.04-.92-.33-1.53-.72-.63-.37-1.28-.79-1.53-.88-.48-.37-.96.43-1.07,1.69-.07.62-.07,1.38,0,2.06.08.64.22,1.24.38,1.66.26.9-.67.53-1.08.84.68.6.56,1.31,1.26,1.81-.13.09,1.44,2.18,2.33,2.98,0,0,.41.17,1.28,1.03.29.29.41.16.53.04q-.12.12-.23.25c.53.03.89.8,1.3.95q-.12.13-.23.25c.82.28,1.18,1.08,1.9,1.46q-.11.13-.22.26c.3.25.6.51.49.64q-.11.13-.22.26c.19.39,1.02.63.8.89q.11-.13.22-.26c1.21,1.03,2.03,1.86,2.84,2.73,2.04,2.48,5.39,4.51,8.44,6.18.32.22.83.15.7-.35l.95.65c.63.43.6-.2,1.24.22,5.59,2.67,10.23,6.6,16.19,9.06-1.35-.88-2.24-1.73-3.67-2.34.08-.15.25-.45-.09-.63-1.93-1.28-4.39-2.37-5-3.55-.24-.34-.29-.97-1.25-1.58l.96.61c.09-.15.27-.44.27-.44-1.18-.96-2.69-2.09-3.85-3.07,0,0,.19-.29.28-.43l-.63-.41c.03-1.4,3.37.99,5.05,1.83.09-.14.27-.43.36-.58l-.63-.4.18-.29c1.88,1.18,3.47,2.15,5.39,3.26-.32-.19-.96-.56-1.28-.75.09-.15.17-.29-.15-.48,1.27.75,2.79,1.83,4.25,2.23.4.03.32-.6-.55-1.28-.96-.52-1.59-.91-2.54-1.46l.17-.29c.63.36,1.49,1.08,2.22,1.28.4.03-.38-.8.02-.77.32.18.64.35,1.03.38-.95-.51-2.29-1.11-3.15-1.81-.23-.33-.45-.66-.28-.96-1.64-.8-2.62-1.99-3.08-3.3-.12-.48-1.75-1.3-2.65-1.91Z"/>
        <path class="cls-11" d="M55.76,145.24l-1.36-.96c1.82,1.52,3.65,3.05,5.42,4.58,1.76,1.51,3.48,3.11,4.69,4.55l.71.78.89.93c.57.55,1.1,1,1.65,1.51,1.07.9,2.11,1.78,3.13,2.56,2.04,1.62,3.99,3.08,5.84,4.6.41.45,1.23,1.36,1.65,1.81,3.74,2.89,8.82,5.63,12.85,7.65,2.01,1,4.38.28,4.38.28.65,0,1.49-.28,1.2-.86-.84-.74-3.25-2.2-2.9-2.78.09-.15.57.15,1.06.44.36-.59,2.52-.86,3.01-.56.68-.02,4.09,1.03,4.78,1.15.83.31.66-.8-.12-2.29-.38-.74-.87-1.5-1.39-2.23-.51-.69-1.03-1.32-1.47-1.75-.82-.9.44-.73.72-1.16-1.1-.47-1.33-1.21-2.42-1.67.09-.15-2.82-2.08-4.3-2.94,0,0-.58-.14-2.06-1.02-.49-.29-.58-.14-.67,0q.09-.15.17-.29c-.67,0-1.47-.87-2.04-1.01q.09-.15.17-.29c-1.15-.28-1.94-1.16-2.99-1.6q.09-.15.18-.29c-.49-.29-.96-.58-.87-.73q.09-.15.18-.29c-.39-.44-1.52-.73-1.34-1.02q-.09.15-.18.29c-1.89-1.17-3.18-2.21-4.43-3.24-.79-.74-1.66-1.46-2.49-2.16-.41-.33-.82-.67-1.24-1.02l-.55-.47c-.17-.14-.43-.33-.5-.43-.27-.28-.31-.23-1.08-1.03l-.93-.91c-.31-.29-.6-.53-.9-.79-.6-.52-1.2-1.02-1.79-1.46-.59-.45-1.17-.91-1.74-1.3-.49-.39-1.18-.51-.91.14-.48-.38-.96-.79-1.45-1.14-.97-.74-.79.04-1.76-.69-4.11-2.53-8-5.14-11.95-7.7-3.98-2.54-7.91-5.02-12.4-7.06,2.13,1.28,3.48,2.45,5.62,3.49-.09.15-.26.44.25.74,2.96,1.92,6.6,3.82,7.7,5.35.4.46.6,1.21,2.06,2.17l-1.46-.96c-.09.14-.28.43-.28.43,1.86,1.41,4.16,3.2,5.95,4.69,0,0-.2.28-.3.42l.94.68c.24,1.63-4.81-2.21-7.33-3.61-.09.14-.28.43-.38.57l.96.63-.19.28c-2.86-1.9-5.28-3.43-8.21-5.21.49.3,1.47.89,1.96,1.19-.09.15-.18.29.3.59-1.94-1.21-4.3-2.83-6.46-3.65-.58-.13-.33.59,1.05,1.59,1.47.86,2.44,1.45,3.9,2.33l-.18.29c-.97-.59-2.34-1.62-3.41-2.04-.57-.14.72,1.02.14.88-.49-.29-.97-.58-1.55-.71,1.46.84,3.49,1.86,4.85,2.9.39.44.78.89.6,1.18,2.48,1.35,4.09,3.02,5.01,4.67.28.59,2.67,2.02,4.03,2.99Z"/>
        <g>
          <path class="cls-10" d="M43.71,74.5c.02-.48.02-.76.09-1.31-.26-.93-1.09-1.97-.9-3.03.17-.3,1.52-.91,1.6-.67,1.22,1.45.91,3.82,2.19,5.51.07.24.96-.25,1.67-.43,0,0-.07-.23-.17-.48.99-.23,1.82.83,2.85.92q-.07-.32-.07-.59c.11,1.5,1.76,1.86,2.85,2.35.15.24.21.47.28.71,1.1.25,1.85,1.07,3.31,1.1,1.15.18,2.27,1.43,3.67,1.91,1.07.67,2.03,1.67,3.08,2.44,1.05.78,2.19,1.34,3.67,1.09.49-.08,1.1.31,1.28,1.27,2.33-1.06,4.33.87,5.83,2.25.59.44.52,1.45.41,2.14,2.08.31,4.19.99,5.91,2.12,2.22,1.45,4.48,2.95,6.18,5.58.25.35,1.05.61,1.56.71,0,.26.01.52.02.79,1.29,1.23,3.18,1.7,3.87,3.32.94,2.15-.87,3.73-2.39,5.12-1.24-.41-2.87-.41-4.22-.66-1.37-.25-2.61-.68-3.07-2.29-.17-.99-1.68-1.22-2.62-1.7-.48-.12-.71-.53-1.01-.86-.31-.32-.7-.54-1.41-.26.08-.96-.24-2.09-.82-3.07-.59-.98-1.51-1.73-2.51-2-.03-.24.21-.27.09-.59-1.56-.19-2.93-.77-4.27-1.5-1.32-.74-2.66-1.56-4.14-2.18-1.56-.49-2.88-1.96-4.95-2.31-.24.05-.68-.87-1.22-1-.24.05-.48.1-.72.15-1.18-.74-2.77-1.15-3.3-2.28-.78-1.07-1.85-1.32-2.57-2.16-1.09-1.26-3.73-1.61-4.25-3.49-.07-.24-.61-.35-.92-.53l-.2-.7c-.31-.17-.89.48-1.19.3-1.9-1.29-4.53-2.35-4.52-4.89.24-.06,1.02-.02,1.05-.78Z"/>
          <path class="cls-10" d="M37.21,66.67c.23-.26-.04-.49-.25-.53.01.4-.07.82.16,1.26l-.51-.36c-.64.57.44.48-.03.61-.27-.23-.44-.48-.12-.77-.04.21.15.16.3.32.27-.47.07-.82.06-1.22l.84.47-.44.22Z"/>
          <path class="cls-10" d="M38.74,68.46l-.15-.16c-.23.26-.15.54-.06.82-.56-.86.44-.93.22-1.67-.13.24.22.75,0,1.01Z"/>
          <path class="cls-10" d="M37.06,69.32c-.03-.8-.63-.43-.35-1.21l.54,1.16-.19.05Z"/>
          <path class="cls-10" d="M43.18,71.93c.38-.1.19-.05.59.25l-.62-.34.03.09Z"/>
          <path class="cls-10" d="M55.63,78.95c-.16-.57-.22-1.16-.74-1.54.59.27.69,1.35.74,1.54Z"/>
          <path class="cls-10" d="M59.98,84.24c-.14.23,0,.4-.31.37-.05-.19.44-.69-.14-.57l.46.21Z"/>
          <path class="cls-10" d="M59.76,85.71v.57c.05-.07.07-.32,0-.57Z"/>
          <path class="cls-10" d="M47.38,71.85l-.03.15s.09-.04.14-.05c-.03-.03-.06-.07-.11-.1Z"/>
          <path class="cls-10" d="M48.05,72.69l-.35-.82c-.08.04-.14.06-.21.08.33.34-.02.7.56.74Z"/>
          <path class="cls-10" d="M47.3,72.28l.05-.27c-.73.17-.51-.87-1.37-1.01.32.73.85,1.1,1.32,1.29Z"/>
          <path class="cls-10" d="M46.44,72.5l-.35.19c-.15-.16-.02-.4.05-.52l-.44-.09c-.39.4.75,1.13,1.03,1.36l-.29-.94Z"/>
          <polygon class="cls-10" points="40.7 74.92 40.72 74.92 40.7 74.91 40.7 74.92"/>
          <path class="cls-10" d="M41.24,76.69l.46-.83c-.55-.15-.36-.8-.99-.94h-.02c-.21.96.48.88.54,1.77Z"/>
          <path class="cls-10" d="M48.32,73.94c-.5-.28-.87-.49-1.26-.08l.83.7c-.17-.56.2-.35.43-.61Z"/>
          <path class="cls-10" d="M48.31,75.97l-.47-.19.06.37c.07-.11.21-.19.4-.19Z"/>
          <path class="cls-10" d="M47.9,76.16c-.08.12-.08.28.07.4l-.07-.4Z"/>
          <path class="cls-10" d="M46.69,76.38c0,.71.31.02.74.42.34-.59-.49-.28-.74-.42Z"/>
          <polygon class="cls-10" points="48.62 77.71 48.56 78.23 48.9 77.64 48.62 77.71"/>
          <path class="cls-10" d="M53.64,76.99c-.74.28,0,.71-.12,1.04l.12-1.04Z"/>
          <path class="cls-10" d="M48.48,79.36l.12-.64-.23.26c-.12-.07-.34-.12-.33-.42-.43.61.26.54.44.8Z"/>
          <path class="cls-10" d="M51.11,78.91l.28.64-.28-.64Z"/>
          <path class="cls-10" d="M46.35,80.81c-.14.24.19,1.36-.5.73.27.23.73.42.21.75.49.28.34-.59.81-.71-.45.21-.35-.52-.53-.77Z"/>
          <path class="cls-10" d="M47.29,81.97c.17.26.38.61.64.44-.24-.14-.21-.75-.64-.44Z"/>
          <polygon class="cls-10" points="46.81 83.5 46.72 82.82 46.62 83.55 46.81 83.5"/>
          <path class="cls-10" d="M53.78,81.89l.39-.79-.39.79Z"/>
          <path class="cls-10" d="M48.24,84.24l-.92-.37.62.74c.66-.11.53-.44.3-.83.05.14.07.28,0,.45Z"/>
          <path class="cls-10" d="M47.82,82.74l-.38.1c-.08.14.32.33.6.63-.16-.25-.29-.51-.22-.73Z"/>
          <path class="cls-10" d="M48.03,83.47c.07.11.14.22.2.32-.04-.12-.11-.22-.2-.32Z"/>
          <path class="cls-10" d="M56.12,82.67l-.75-.53c.2.36.44.5.75.53Z"/>
          <path class="cls-10" d="M48.52,85.28l.12.07.34-.59c-.31-.02-.4.4-.46.52Z"/>
          <path class="cls-10" d="M48.98,86.97c.03.49.69.33.9.37-.06-.59-.39-.7-.68-1.03.29.33-.09.42-.23.66Z"/>
          <path class="cls-10" d="M49.63,88.3l-.71-.42c-.2.75.38.3.71.42Z"/>
          <path class="cls-10" d="M50.94,88.67c.09-.02.14-.23.33-.28.02-.31-.28-.33-.43-.5l.1.77Z"/>
          <path class="cls-10" d="M47.64,79.27c.24.1.45.18.66.25-.24-.3-.48-.59-.72-.87,0,.23.01.46.06.63Z"/>
          <path class="cls-10" d="M91.9,99.55c-1.72-.08-3.4-1.59-4.47-2.18-.71-.7-1.75-1.22-2.83-1.71-1.11-.43-2.27-.84-3.23-1.42l.18-.2c-1.15-1.42-3.43-2.1-4.99-3.2l-.12.36c.23.23.57.48.09.74-.25-.39-.63-.84-.58-1.14l-.57.26c-.06-.39.8-1.27-.03-1.38-1.07.81-.91-1.7-1.79-.4.26-.95-.78-.65-1.06-.9l-.17.74c-.44-.75-.5-2.02-.91-2.06-.89-.37-2.04-1.01-3.1-1.25.22-.84.93.56.8-.52-2.48.32-3.74-3-6.22-3.41.02.1.17.27-.03.31-.09-.78-.95-.52-1.43-1.23-.17.54.68,1.07.95,1.32-.85,1.07,0-.4-1.04-.5.02.1.07.29,0,.4-.97-.21.07-.92-.68-1.07l.15.58c-.61-.38-.29.06-1.14-.07.46-.6.38-1.29.23-1.45-.24.25-.81-.33-1.04.32-.17-1.77-1.29-.22-1.44-1.9-.63.34.01.8-.27,1.27-1.04-.07.08-.82-.12-1.19-.39.08-1.6-.25-1.82-1l-.28.47c-.46-.9-1.6-1.64-1.53-2.47-.66.56-.07.83.42,1.12-.08.42-.72.37-.89.11.12.07.01.4.27.24-.18.45-.41,0-.6.04-.79-.62.48-.11.25-.56-.41,0-1.18-.53-1.15.27-.71-.33.07-.82-.17-1.27.32.73.99-.14,1.11.64.26-.16.3-.38.22-.66-.66-.15-1.5-1.25-1.82-.57l-.07-.59-.52.33-.06-.19c-.06.83.32,1.44.23,2.17-.11.33-.41,0-.63-.05l.12-.64c-.43-.4-.89.83-1.47.26.78-.5-.23-1.46-.45-2.22-1.14,1-.42,1.02-1.4,1.87-.49-.28-1.44-.34-1.85-1.04,1.46.74-.27-1.24,1.11-1.1-.18-.26-.47-.18-.71-.32.29-1.09.75-.6.78-1.52l-.43.62c-.1-.68.05-1.54-.54-2.09-.23.26-.77.51-.98.16.14-.54.18-.76-.44-1.1-1.85.69.4,2.32.08,3.62,1.6,1.2.17,4.31,2.02,6.05.54-.24.49-.43,1.24-.31.98-.85-.51-1.39-.57-2.28.29-.07.57-.15.66.14l.16-.85c1.19.21,0,1.42,1.07,1.55l-.29.07.63.05-.06-.19c.34.12.71-.38,1.07.14l-.64.26c.45-.21.1.68.6.66-.36.17-.6.49-.74.44.41.63.88.99,1.34,1.33,1.89.54,3.42,1.67,4.72,3.17-.01-.14-.05-.28-.07-.35.38-.02.42.37.42.77.24.29.47.58.7.89.71.26,1.32.39,2.08.93-.16.38-.28.47-.39.45.32.09.57.07.49-.47.55.18.57.68.92.91l-1.17.15c.21.45.62-.33.95.2.86.22,0-.8.39-1.28l.26.24.08-.92c.55.59.54,1.39.58,1.98l-.33-.53c-.63.73.74.55.68,1.15l-.1.02c.71.45.08-.51.63-.33l.48,1.2.16-.63c.69-.03,1.2,1.37,1.94,2.02.39.42,1.28.35,1.94.63-.04-.19-.2-.46-.02-.59.35.23,1.13.71.52,1.1l.77-.13c.19.1.27.28.32.47v-.33s.74.18.74.18c-.08.11,0,.49-.33.35.29,1.04,1.88.37,2.73,1.36l-.48.06c.88-.02.35.94,1.25,1.02l.12-.51c.61.12,1.18,1.22.82,1.46.75-.97.07.48.96-.22l-.33,1.11c.49-.07.88,0,1-.61.19.75.51,1.1,1.2.69,0,0,.02-.01.03-.01h.02s-.01,0-.01,0c.16,0,.5.5.59-.07,1.08.79-.05,1.27,1.01,1.96l.53-.63c.67.72,1.82.78,2.72.84l-.35.6c.5.18.35-.6,1.07-.23.01.16-.05.39-.18.52.31.22.61.56.93.95.3.4.63.85,1.04,1.25-.1.1-.29.09-.39.09.39.3,1.18.6,1.78.81.12.85.33,1.78.69,2.6.35.83.89,1.53,1.53,2.09,2.06-.11,4.21-.59,5.85-1.67.38-.53.58-1.3.6-2.25.02-.93-.12-2.09-.47-3.15Z"/>
        </g>
        <g>
          <path class="cls-10" d="M46.6,36.38c-.04-.27-.07-.42-.08-.71-.32-.49-1.17-.91-1.22-1.34.08-.12,1.12-.56,1.24-.49,1.3.44,1.34,1.72,2.5,2.76.07.15.76-.21,1.35-.4,0,0-.07-.15-.17-.3.82-.26,1.58.38,2.44.35q-.07-.23-.08-.42c.15,1.08,1.54,1.19,2.46,1.48.12.18.18.36.23.55.93.1,1.54.71,2.8.6.98.04,1.87,1.04,3.04,1.37.87.53,1.6,1.38,2.42,2.04.82.67,1.73,1.12,3.02.82.43-.11.9.28.93,1.18,1.06-.55,1.94-.35,2.69.15.74.51,1.34,1.35,1.87,1.99.42.43.23,1.35.06,1.97,1.58.46,3.18,1.17,4.22,2.51.7.8,1.4,1.59,1.97,2.57.57.97,1.06,2.04,1.47,3.23.12.32.48.81.71,1.02v.56c.28.63.61,1.19.84,1.78.21.62.36,1.24.47,1.87.2,1.79.22,1.94.31,2.09-.4-.7-1.02-1.24-1.82-1.75-.76-.54-1.81-.94-2.49-1.93-.31-.61-1.33-1.03-2.15-1.38-.78-.21-.9-1.19-1.99-.91.02-.65-.27-1.44-.73-2.2-.46-.75-1.1-1.43-1.93-1.63,0-.19.19-.21.12-.48-1.3-.14-2.35-.64-3.42-1.19-1.06-.56-2.06-1.27-3.25-1.72-.64-.16-1.18-.57-1.77-.97-.61-.38-1.27-.75-2.11-.84-.2.06-.47-.77-.89-.87-.21.06-.41.13-.62.19-.9-.62-2.15-.93-2.47-1.97-.53-.96-1.38-1.16-1.9-1.9-.39-.56-1.12-.89-1.78-1.31-.66-.41-1.25-.91-1.45-1.68-.05-.19-.48-.29-.71-.44l-.16-.56c-.24-.14-.69.36-.92.21-1.5-1.03-3.48-2.08-3.76-3.49.17-.02.79.03.72-.41Z"/>
          <path class="cls-10" d="M39.51,34.19c.1-.03-.23,0-.44.05.18-.02.29-.04.64-.03-.19,0-.37.01-.57.04-.31.04.56-.03.22,0-.31.02-.56.04-.41.02.24-.02.21-.02.38-.04.04-.03-.27.01-.46.05.32-.06.63-.11.93-.14l-.3.05Z"/>
          <path class="cls-10" d="M41.42,34.21l-.17-.02c-.11.05.05.09.19.15-.71-.13.08-.18-.33-.28-.03.04.42.09.31.15Z"/>
          <path class="cls-10" d="M40.33,34.37c-.29-.09-.65-.06-.7-.11.29.02.56.05.83.11h-.13Z"/>
          <path class="cls-10" d="M45.84,35.06c.3-.07.15-.04.52.09l-.56-.13.04.04Z"/>
          <path class="cls-10" d="M56.53,38.95c-.11-.47-.15-.96-.58-1.23.5.16.55,1.07.58,1.23Z"/>
          <path class="cls-10" d="M59.84,43.39c-.14.23-.04.38-.3.36-.02-.18.43-.68-.06-.52l.36.16Z"/>
          <path class="cls-10" d="M59.51,44.79l-.05.53c.04-.07.08-.3.05-.53Z"/>
          <path class="cls-10" d="M49.33,34.62v.09s.07-.03.1-.05c-.03-.02-.06-.03-.1-.04Z"/>
          <path class="cls-10" d="M49.98,35.04l-.38-.44c-.07.04-.11.05-.17.07.32.16.06.42.55.37Z"/>
          <path class="cls-10" d="M49.31,34.88v-.16c-.59.19-.51-.44-1.27-.38.38.32.85.5,1.27.55Z"/>
          <path class="cls-10" d="M48.6,35.1l-.27.14c-.14-.08-.06-.23-.02-.3h-.38c-.27.23.75.57,1,.68l-.33-.53Z"/>
          <path class="cls-10" d="M44.35,36.45s0,0,.01,0h-.02s0,0,0,0Z"/>
          <path class="cls-10" d="M44.97,37.45l.25-.41c-.43-.14-.37-.46-.86-.58,0,0-.01,0-.01,0-.02.46.47.5.62,1Z"/>
          <path class="cls-10" d="M50.31,35.8c-.43-.14-.77-.22-1.06.06.25.12.5.24.74.38-.18-.36.14-.25.32-.44Z"/>
          <path class="cls-10" d="M50.41,37.17l-.39-.1.07.26c.06-.08.16-.14.32-.15Z"/>
          <path class="cls-10" d="M50.09,37.32c-.06.09-.05.2.07.28l-.07-.28Z"/>
          <path class="cls-10" d="M49.12,37.52c.04.48.25,0,.61.27.25-.42-.41-.18-.61-.27Z"/>
          <polygon class="cls-10" points="50.72 38.42 50.69 38.81 50.95 38.35 50.72 38.42"/>
          <path class="cls-10" d="M54.89,37.51c-.63.29-.01.57-.11.86l.11-.86Z"/>
          <path class="cls-10" d="M50.64,39.67l.09-.49-.18.2c-.1-.05-.27-.09-.27-.32-.33.46.21.41.36.61Z"/>
          <path class="cls-10" d="M52.76,39.24l.22.5-.22-.5Z"/>
          <path class="cls-10" d="M49,40.72c-.1.17.15,1.08-.37.53.2.21.54.39.16.61.36.27.25-.44.61-.5-.34.14-.26-.43-.4-.64Z"/>
          <path class="cls-10" d="M49.72,41.71c.13.22.28.52.48.4-.18-.13-.15-.62-.48-.4Z"/>
          <polygon class="cls-10" points="49.33 42.92 49.28 42.36 49.19 42.95 49.33 42.92"/>
          <path class="cls-10" d="M54.86,41.64l.36-.72-.36.72Z"/>
          <path class="cls-10" d="M50.38,43.66l-.68-.38.44.68c.5-.05.42-.35.25-.69.03.12.04.24-.01.38Z"/>
          <path class="cls-10" d="M50.1,42.37l-.29.06c-.06.11.23.3.43.57-.11-.22-.2-.45-.14-.62Z"/>
          <path class="cls-10" d="M50.25,43c.05.1.1.19.14.28-.03-.1-.08-.2-.14-.28Z"/>
          <path class="cls-10" d="M56.74,42.2l-.59-.44c.14.31.33.43.59.44Z"/>
          <path class="cls-10" d="M50.55,44.58l.09.07.29-.5c-.23-.04-.32.33-.38.43Z"/>
          <path class="cls-10" d="M50.79,46.11c-.01.45.49.35.65.4,0-.54-.25-.66-.44-.97.2.31-.09.38-.21.58Z"/>
          <path class="cls-10" d="M51.19,47.38l-.5-.43c-.21.67.26.31.5.43Z"/>
          <path class="cls-10" d="M52.14,47.79c.07-.02.13-.21.28-.25.04-.29-.19-.31-.29-.47v.72Z"/>
          <path class="cls-10" d="M49.98,39.6c.19.08.36.14.52.2-.19-.23-.38-.46-.58-.67.01.17.02.34.06.47Z"/>
          <path class="cls-10" d="M81.53,59.34c-.51-.73-1.29-2.25-1.78-3.07-.7-1.44-2.24-2.61-3.58-3.75l.14-.14c-.35-.65-.91-1.23-1.53-1.77-.63-.51-1.32-.98-1.88-1.5l-.14.31c.15.22.39.46-.01.65-.16-.34-.41-.77-.33-1.04l-.48.19c0-.35.79-1.1.15-1.26-.97.7-.53-1.57-1.41-.41.33-.86-.56-.61-.77-.83l-.24.68c-.27-.68-.14-1.91-.49-1.94-.7-.34-1.59-.91-2.46-1.09.29-.8.72.5.74-.52-1.06.16-1.76-.49-2.47-1.23-.71-.74-1.42-1.58-2.46-1.67.01.09.12.24-.05.29,0-.73-.77-.41-1.12-1.02-.19.51.49.94.7,1.15-.83,1.07.04-.38-.85-.38.01.09.04.26-.04.38-.81-.12.14-.86-.49-.94l.08.52c-.49-.3-.25.08-.97.03.44-.59.43-1.21.31-1.35-.23.25-.67-.22-.92.39-.03-1.58-1.08-.09-1.12-1.56-.55.36-.03.7-.3,1.14-.88.03.11-.73-.04-1.03-.34.11-1.36-.06-1.52-.67l-.25.42c-.36-.72-1.33-1.2-1.27-1.85-.56.51-.06.66.36.84-.08.35-.61.37-.76.17.1.05,0,.32.23.17-.16.38-.35.03-.51.09-.67-.42.41-.14.21-.47-.35.04-1-.29-.97.33-.6-.19.05-.64-.16-.96.28.52.84-.21.95.37.22-.16.26-.33.18-.53-.56-.04-1.31-.76-1.56-.22l-.08-.42-.43.29-.06-.13c-.02.59.32,1.01.25,1.57-.09.26-.34.03-.52,0l.09-.48c-.37-.26-.71.67-1.2.29.62-.41-.25-1.02-.49-1.48-.88.74-.28.71-1.02,1.32-.42-.16-1.17-.19-1.56-.62,1.23.42-.34-.74.79-.7-.17-.14-.4-.08-.61-.15.12-.63.55-.39.47-.91l-.29.38c-.17-.37-.15-.82-.73-1.01-.16.16-.57.33-.8.19.03-.26.03-.36-.57-.41-.72.26-.51.45-.16.72.36.25.85.61.8.95,1.45.56.59,2.47,2.05,3.85.41-.15.36-.29.95-.19.75-.63-.44-1.02-.54-1.63.22-.05.45-.11.53.08l.08-.59c.98.08.07.98.93,1.06l-.23.06.51.02-.05-.14c.28.08.57-.31.87.06l-.52.22c.36-.18.09.52.49.48-.29.14-.48.4-.59.36.33.49.71.77,1.07,1.03,1.51.4,2.73,1.28,3.69,2.58,0-.13-.02-.25-.03-.31.32-.04.32.31.29.68.17.25.34.51.5.78.56.2,1.06.29,1.63.75-.17.36-.28.46-.37.44.26.07.46.03.45-.46.44.14.4.6.68.79l-.99.21c.13.42.55-.35.77.13.69.15.09-.75.46-1.23l.19.21.16-.86c.4.51.31,1.27.28,1.82l-.22-.48c-.61.73.56.47.44,1.04l-.08.02c.55.38.12-.49.56-.35l.26,1.11.21-.61c.59-.08.85,1.21,1.4,1.77.28.36,1.04.24,1.55.47,0-.18-.11-.42.06-.55.26.2.87.59.3.99l.67-.17c.15.08.2.24.21.41l.05-.3.6.12c-.08.11-.06.45-.32.34.13.91,1.53.27,2.14,1.11l-.41.08c.75-.05.19.81.95.84l.15-.45c.5.09.87,1.02.54,1.23.72-.84.01.41.81-.19l-.38.95c.41-.06.74-.01.88-.51.1.62.35.89.95.57,0,0,.02-.01.02-.01h.02s0,0,0,0c.13,0,.38.4.49-.05.83.65-.11,1.01.7,1.59l.45-.46c.49.61,1.42.69,2.09.83l-.27.41c.38.17.27-.41.8-.06,0,.12-.04.28-.13.36.45.41.85,1.15,1.49,1.79-.06.05-.2.02-.27,0,.3.25.9.54,1.28.81.15.59.44,1.18.85,1.71.41.54.96,1.02,1.47,1.49,1.1.49,1.59,1.01,1.73,1.03-.03-.33-.19-1.57-.27-3.43Z"/>
        </g>
        <path class="cls-10" d="M128.73,167.57h.08c-.24.24-.45.17-1.02.28.97.42,1.21,1.2,1.32,1.28.11.08.05-.51.61-3.32-.13,1.32-.18,2.24-.27,2.83-.08.58-.12.76-.02.35.15-.57.32-1.09.48-1.56l.04-.11-.03.09c-.1.27-.2.56-.29.86.09-.3.19-.59.29-.86l.03-.09c.58-1.57,1.1-2.53,1.42-2.67.16-.08.31.06.35.46.05.43-.2,1.1-.45,1.64-.25.58-.58,1.25-.91,1.79-.33.54-.64.94-.95,1.21-.08.07-.15.13-.21.17q.19-.15.38-.32c.55-.43,1.03-.59,1.33-.53.29-.18.56-.32.97-.68l-.22.27c.78-.25.69.26,1.03.41-.41.05-.5.25-.55.39l.27-.1v.06s0,.04-.02-.01c0-.02,0,.07,0,.1.02.17.05.37.09.56.08.39.22.85.46,1.33.23.48.59,1.02,1.09,1.5.5.48,1.13.88,1.76,1.12,1.24.45,2.34.4,3.26.19.89-.22,1.52-.55,2-.81.27-.16.52-.14.71-.09.22-.22.44-.45.56-.61l.36-.49c.28.5,1.08-.22.86.4.27-1.08,1.23-1.34,1.42-2.41,2.22-2.02,4.23-4.61,5.52-7.54l-.21-.08c.42-1.06.15-2.46,1.22-3.24-.03-1.17.39-2.44-.38-3.4.44-.92.18-1.58.43-2.55-.63-.1-.09-1.17-.73-1-1.02.09-.46.49-1.29.57l.17.09c-2.07,1.55-3.92,3.13-5.74,4.76-.71,1.54-2.25,2.54-3.39,3.81-1.19,1.41-2.48,2.99-3.46,4.36-.1.19-.18.14-.3.07l-.08-.08-.04-.05-.02-.03s0-.02,0,0l.04.06c.19.3.35.58.48.81.6,1.09.71,1.77.69,1.96v.02s0,.01,0,.01h0s0,0,0,0h0c.02-.15,0-.04,0-.07h0s0,0,0,0c0,.07-.02.14-.04.21-.02.11-.06.2-.08.24-.05.08-.01-.02.21-.17.22-.15.61-.32,1.11-.43.12-.02.26-.06.39-.08l1.74-.3c.04-.26.03-.42.06-.64.1-.81.2-1.62.3-2.41-.02.06-.04.12-.06.17.13-.83.46-1.65.78-2.49.32-.83.66-1.7.76-2.48-.21.15-.17-.1-.25-.14.24-.22.37-.88.33-1.58-.01-.74-.25-1.43-.5-1.99-.56-1.09-1.12-1.67-.92-2.08-.04-.04-.08-.09-.11-.15.09-1.03.35-2.31.35-3.38,0-1.07-.2-2.01-1.21-2.54-.59.08-1.2.25-1.69.59-.15-.35-.5.26-.79.2-.06-.74-.23-.97-.39-.9-.15.07-.29.41-.25.67-.64.39-1.04.45-1.49.73-.25.25-.5.52-.76.83-.23.29-.23.02-.15-.48-.38.39-.37.24-.46.09-.04-.07-.12-.13-.28-.12.06-.39-.41.13-.9.77-.52.67-1.02,1.44-1.1,1.39l.14-.22c-.41.23-.64-.09-1-.22-.34-.16-.7-.34-1.26.17-1.5,1.06-3.2,3.36-4.73,4.88-.39.35-.79.71-1.17,1.06-.39.35-.79.57-1.18.86l-.56.38-.27.14c-.18.09-.36.18-.55.25.25.51.25-.28.62.37-.91.37-2.06.14-2.98.36-.21-.08-.5-.28-.63-.43-.35-.11-.08.31-.32.31l-.18-.48c-.18.5-.6-.41-.83-.13.04.2-.06.26-.17.27-.14-.52-.31.12-.41-.36v.04c-.06,0-.09.05-.19-.02-.05.2-.92,1.92-1.05,2.15l-.08-.08c-.18.05-.2.46-.07.54h-.24s.02-.03.02-.03h-.24s-.13-.27-.1-.52c-.1.21-.24.33-.38.25.41.3.93.67,1.42,1.16-.13.21-.47-.03-.64.06-.26-.31-.73-.56-1.09-.77-.07.04-.05.65-.25.4-.13-.41-.19.04-.36-.25.14-.24.3-.16.46-.16-.08-.49-.42-.29-.56-.41-.04.17-.37.02-.55.17.05-.48-.18-.29-.31-.54-.13-.05-.2.15-.14.31,0,.52.55.27.4.82-.07-.25-.32-.14-.46-.11.02.28.11.21.04.48-.16-.05-.31.3-.42.02.03-.08.09-.04.14-.03-.19-.02.98-1.91.72-1.73.1.24-1.03,1.75-.91,1.76.13.13-.07.51.07.6l.13-.35c.18.09.29.58.24.78-.3-.02.73-1.98.48-1.68l.11.13c-.09.19-.37.37-.5.08.02.28-.12.39-.24.49l-.05-.04c-.12.15-.3.1-.2.46.76-.1-.37,2.86.4,2.97-.36-.59.07-.64.41-.73.05.21.22.5.48.64.21-.06.11-.23.13-.39.13.13.37.23.37.55.13-.4.29.21.48.06.16-.2-.03-.16.07-.36.27.01.64.02.86.07.12.29.45.78.33,1.28-.42-.01.05-.78-.36-.63.27.67-.35.23-.37.76.17.29.46.26.68.15l-.06-.09c.2-.12.58-.33.86,0-.01.25.11.41-.03.5h.3c.02-.08.05-.17-.04-.21.1-.21.26-.13.39,0,.1.27,1.3-1.37,1.27-1.2.2-.05.34.32.47,0,0-.19-1.75,1.28-1.51,1.14.11.12.64-.32,1.14-.73.5-.42.97-.84,1.1-.61.14-.06.3-.16.2-.4.28.06.06.5.31.69,0-.04-.05-.12,0-.13l.26.26c.27-.52,1.01-.18,1.23-.84-.02.31.01.83-.17,1.16l-.09-.12c-.01.09-.21.24-.12.49.31.08.52-.02.7-.37.07.05.15.09.22.15-.01-.03-.02-.06-.04-.09.14.12.14.15.15.26,0,.02,0,.04,0,.06.43.65.84-.82,1.44-.66.09-.16-.04-.12.07-.33.59.08,1.01.13,1.58.04,0-.37-.04-.49-.38-.71l.41-.08c.07.96,1.07.36,1.12,1.33.21.11.46.02.6-.22-.1-.2-.2-.54,0-.66.32.14.23.08.49.24.16.24.16.37.27.58.03-.45.41.48.5.35.05-.13.19-.27.07-.8.13-.07.2.32.28.76Z"/>
        <rect class="cls-15" x="89.94" y="25.92" width="57.22" height="86.83"/>
        <g>
          <path class="cls-6" d="M160.58,146.82c.08.14.16.27.16.27l.07-.05c-.08-.08-.16-.15-.23-.22Z"/>
          <path class="cls-6" d="M159.53,147.11l.05.08s.03-.04.05-.05c-.03,0-.07-.02-.1-.03Z"/>
          <path class="cls-6" d="M160.81,147.04c.26-.18.46-.46.82-.49.09.15.28.45.37.61.24.07.3-.17.45-.26.09.15.19.31.26.27.25-.02.3-.25.16-.58-1.26-.2-2.54-1.61-2.06.46Z"/>
          <path class="cls-6" d="M159.49,146.26c.17.24.34.49.48.74.22-.03.45-.02.58-.2-.36-.33-.67-.47-1.06-.54Z"/>
          <path class="cls-6" d="M104.08,110.94c0,.05-.03.08-.17-.02.06,0,.11.01.17.02,0-.05.01-.12.09-.14-.6.02-1.28.02-1.94-.03-.1.08-.19.16-.27.25.81.08,1.61.15,2.39.23.77.08,1.52.11,2.22.01-.93-.18-1.6-.16-2.49-.31Z"/>
          <path class="cls-6" d="M101.78,111.51l-.16-.02c.14.1.15.07.16.02Z"/>
          <path class="cls-6" d="M128.94,120.11c.88.45,1.77.68,2.68.9-1.7-.81-3.41-1.7-4.81-2.15.71.4,1.42.82,2.13,1.24Z"/>
          <path class="cls-6" d="M135.91,122.5c-.91-.84-1.9-1.21-2.87-1.51.86.48,1.73.96,2.57,1.46.1.02.2.03.3.05Z"/>
          <path class="cls-6" d="M134.47,122.18c-.94-.62-1.89-.92-2.86-1.16.97.45,1.92.88,2.86,1.16Z"/>
          <path class="cls-6" d="M111.72,118.85c-.72,0-1.14-.02-1.36-.08-.14.08-.31.17-.54.29l.11.04c.69.09,1.4.17,2.1.32.31,0,.61,0,.88-.04-.39-.18-.79-.37-1.19-.53Z"/>
          <path class="cls-6" d="M110.36,118.77c1.17-.68-.88-.2,0,0h0Z"/>
          <path class="cls-6" d="M116.6,115.4l.1.05.32.08c-.14-.04-.28-.08-.42-.13Z"/>
          <path class="cls-6" d="M123.43,121.62c-.56-.27-1.13-.55-1.71-.75,1.16.53,2.31,1.09,3.36,1.4-.14-.08-.23-.24-.36-.32-.36,0-.86-.09-1.28-.33Z"/>
          <path class="cls-6" d="M99.51,117.04c1.73.37,3.43.75,5.1,1.15,3.14,1.35,6.13,2.7,9.06,3.58,2.64.7,6.4,3.3,9.35,3.65-.21-.19-.43-.36-.65-.5.39.11.77.21,1.14.27,1.88,1.11,3.71,2.26,5.5,3.47,1.82,1.24,3.46,2.41,5.25,3.73.52.39,1.08.48,1.6.87.54.4,1.08.78,1.61,1.17.01-.01.02-.03.02-.06,2.24,1.61,4.5,3.25,6.87,5.14,1.08.92,2.02,2.04,2.98,3.12.35.42.09.65.25.98.3.69.54,1.3.8,1.93.27.61.56,1.24.94,1.96,0,0-.15.1-.22.14.16.19.29.37.37.54-1.26-.12-2.59-1.44-2.04.57h0c-.08-.07-.16-.13-.24-.2l-.02-.03h0c-.38-.29-.67-.43-1.07-.47.18.23.33.48.5.71-.13.02-.25.06-.34.16l-.1-.02c-.07-.11-.13-.19-.13-.19-.08,0-.15.02-.22.04-.75-.39-1.61-1.18-1.76-.79-.04.25.4.57.86.99,0,.05,0,.1,0,.15-.55-.58-.49.36-.85.03-.38-.5-.82-.94-1.23-1.41-1.63-1.94-3.23-3.41-5.27-4.88l-.27-.2c-.99-.72-1.89-1.44-2.78-2.24.1,0,.2,0,.29.02-.72-.64-1.47-1.26-2.33-1.75-2.11-1.17-4.26-2.31-6.38-3.79-2.18-1.54-4.37-2.89-6.75-4.17,1.01.47,2.03.94,2.98,1.55.41.3.82.6,1.23.87-.4-.32-.81-.61-1.23-.87-1.57-1.16-3.17-2.38-4.88-2.53-.09-.15-.05-.22-.18-.31-.92-.62-1.81-1.26-2.79-1.48-.05.07-.44-.18-.4.05-.85-.41-1.78-.98-2.67-1.31-.38-.15-.81-.21-1.26-.23-3.11-1.24-6.22-2.3-9.54-3.2-.81-.25-1.72-.61-2.52-.88,1.27.13,2.57.42,3.89.74,1.17.59,2.3,1.1,3.43,1.18.26.04.51.08.76.11-.7-.24-1.4-.47-2.1-.71l-2.09-.59c-.69-.34-1.4-.68-2.11-.98h.05s1.82.4,1.82.4c1.04.53,2.06.98,3.07,1.13.13.02.25.03.38.04.26.04.51.08.76.12-.87-.3-1.74-.6-2.61-.84-.54-.15-1.07-.32-1.61-.45-.31-.15-.62-.29-.93-.44l.13-.02c.31.03,1.5-.58,1.18-.99-.55-.22-1.17-.44-1.78-.64-.61-.19-1.23-.35-1.77-.5-1.08-.31-1.89-.42-1.87-.47-.02-.17.96-.13,1.93.06.97.17,1.95.37,1.89.31-.2-.12-.4-.22-.61-.33.23,0,.46,0,.67,0,.46.1,1.01.41,1.37.37,1.23-.09,2.3.62,3.6.82.82.1,1.84.22,2.86.35.08-.16.47.15.41-.08.8.43,1.73.92,2.32.66l.07.02c.06.03.15.05.25.06,1.27.83,2.45.93,3.8,1.37.43.21.86.43,1.29.69-.28-.17-.65-.49-.98-.59l-.31-.1c-1.11-.55-2.26-.93-3.36-1.34-.11,0-.28,0-.44-.03l-.21-.14s-.07.04-.11.06c-1.11-.3-2.25-.84-3.22-1.02-1.73-.54-3.38-1.47-5.04-2.21.9.19,1.77.44,2.65.65-1.07-.33-2.07-.62-3.07-.83l-.43-.18-.9-.36c.27.14.53.28.79.42-.59-.14-1.18-.25-1.77-.33-3.15-.72-6.33-1.37-9.46-1.93.08-.1.16-.19.26-.28,1.54.16,3.05.48,4.41.36-.88-.23-1.52-.23-2.38-.36.01-.05.02-.12.09-.14-.57,0-1.22-.07-1.85-.1.23-.19.5-.39.76-.57.35-.11.83-.02,1.33,0,2.12.25,4.02.86,6.07,1.31,1.75.64,3.46,1.34,5.13,2.06-1.75-.5-3.38-.88-5-1.1ZM157.66,142.92c-.14-.1-.29-.22-.44-.33v.1c.11.13.28.2.44.23ZM155.07,139.93c.71.92,1.88,1.91,2.94,2.98.02,0,.05-.02.06-.03-.74-1.02-1.91-2.04-3-2.95ZM152.92,135.45v.04s.03-.03.03-.03h-.03ZM130.32,129.62c1.32.39,2.64,1.33,4.05,2.15.39.29.99.3,1.51.69.71.42,1.19.56,1.75.87l-.28-.42c.84.74,1.67.7,2.47,1.51.05-.07.29-.11.42-.02.7.41,1.25,1.04,1.88,1.3.71.43,1.36.92,1.99,1.2.13.1.55.1.87.24.34.22.67.47,1.01.71v-.09c-.25-.21-.52-.43-.82-.59-.9-.49-1.92-1.06-2.76-1.59-2.08-1.35-4.08-2.39-6.09-3.45-.44-.22-.94-.37-1.39-.59-1.38-.6-2.8-1.7-3.94-1.77-.18-.02-.45-.21-.69-.16ZM131.73,127.68c1.59.64,3.21,1.58,4.45,2.56,1.02.74,4.29,2.53,4.41,1.32-1.22.28-3.33-1.31-5.22-2.62-1.88-1.32-3.53-2.39-3.64-1.26ZM119.76,122.24c.63.19,1.25.36,1.89.73-.62-.26-1.26-.48-1.89-.73ZM127.35,122.53c-2.1-.57-4.06-1.62-6.05-2.28-1.51-.53-2.88-1.68-4.42-1.74l-.11.24h.18c.48.25.81.59,1.19.85l-.08-.02.13.05c.26.18.53.33.89.43l.51.12c1.81.77,3.65,1.64,5.48,2.09,1.08.36,2.14.46,3.23.85-.27-.17-.63-.51-.95-.59Z"/>
          <path class="cls-6" d="M114.31,115.53c-.68-.17-1.36-.33-2.06-.48-.55-.08-1.09-.16-1.63-.21-2.55-.36-5.36-1.23-8.06-1.36-.11.24-.15.5-.09.78,2.75.64,5.65.91,8.35,2h.07c1.35-.09,3.19.81,4.8,1.05,1.66.16,3.17.7,4.81,1.04-2.08-1.03-4.14-1.83-6.2-2.81Z"/>
          <path class="cls-6" d="M133.04,120.99c-.56-.32-1.15-.62-1.73-.93-1.64-.82-3.18-1.43-4.76-2,1.08.57,2.13,1.18,3.18,1.82,1.08.58,2.21.76,3.32,1.1Z"/>
          <path class="cls-6" d="M125.24,117.63c.44.15.87.29,1.3.44-1.59-.85-3.22-1.61-4.86-2.34-2.78-1.03-5.61-1.95-8.52-2.55-.33-.07-.65-.15-.97-.23,5.14,1.89,9.82,4.46,14.36,5.83.09.03.18.05.26.08-1.93-1.05-3.89-2-5.89-2.85,1.44.52,2.89,1.06,4.33,1.61Z"/>
          <polygon class="cls-6" points="114.97 115.69 114.54 115.51 114.02 115.39 114.31 115.53 114.97 115.69"/>
          <path class="cls-6" d="M118.14,119.6l.05.03c.47.18.94.36,1.41.55.69.19,1.41.42,2.12.69-1.25-.56-2.49-1.1-3.58-1.27Z"/>
          <path class="cls-6" d="M120.97,123.41c.13.08.4.23.54.31h.32s-.37-.23-.37-.23l-.49-.08Z"/>
          <path class="cls-6" d="M129.55,127.01c-2.52-1.26-4.91-2.33-7.31-3.28-.14,0-.28,0-.42-.01,1.46.88,2.97,1.67,4.57,2.1.31.09.85.13,1.11.3,1.3.71,2.62,1.29,3.95,1.87-.6-.33-1.22-.63-1.85-.95l-.05-.03Z"/>
        </g>
        <path class="cls-6" d="M113.66,124.33c-.43-.21-.86-.39-1.29-.58,3.51,1.97,7.11,4.2,10.68,6.64,1.78,1.21,3.57,2.48,5.34,3.77,1.87,1.34,3.36,2.48,4.78,3.81.29.41.89,1.2,1.17,1.61,2.75,2.56,6.23,5.42,8.35,7.73.57.57,1.25.84,1.93,1,.61.16,1.13.21,1.13.21.46.18,1.23.26,1.31-.24-.22-.81-1.43-2.64-.97-3.01.13-.1.41.27.65.66.26-.18.84-.15,1.41-.01.57.13,1.06.42,1.19.64.13.07.37.26.67.51.27.27.59.61.91.96.64.7,1.16,1.55,1.41,1.77.4.67.97-.13,1.19-1.76.14-.82.08-1.7.01-2.62-.12-.86-.31-1.69-.52-2.28-.4-1.18.66-.42,1.07-.66-.83-.95-.77-1.79-1.66-2.65.15-.14-2.06-3.03-3.32-4.23,0,0-.52-.29-1.78-1.47-.43-.38-.53-.26-.63-.14q.1-.12.21-.23c-.63-.14-1.27-1.13-1.81-1.35q.1-.12.2-.24c-1.06-.48-1.74-1.4-2.72-1.95q.09-.13.19-.25c-.45-.33-.89-.66-.8-.79q.09-.13.19-.25c-.35-.47-1.45-.84-1.26-1.1q-.09.13-.18.26c-1.8-1.26-3.13-2.3-4.4-3.28-2.98-2.6-7.52-5.27-11.96-7.44-.47-.27-1.1-.27-.78.28-.46-.27-.96-.53-1.44-.79-.97-.52-.71.16-1.67-.36-4.08-1.68-8.25-3.43-12.79-4.57-4.51-1.14-9.5-1.56-14.28-.49,1.22-.08,2.28-.09,3.34-.13,1.05.05,2.1.06,3.29-.02,0,.16-.01.47.57.51.87.11,1.79.15,2.68.27.88.14,1.76.29,2.58.42,1.59.39,2.99.77,3.68,1.35.48.33.89.9,2.43,1.46-.5-.21-1.04-.36-1.56-.53-.05.15-.14.45-.14.45,2.04.79,4.45,1.98,6.31,3.02,0,0-.13.28-.2.43l.94.47c.22.74-.92.38-2.46-.16-1.52-.57-3.47-1.32-4.73-1.66-.05.15-.15.45-.2.6.33.1.65.21.97.34l-.11.3c-2.88-1.01-5.36-1.66-8.38-2.05.5.08,1.51.24,2.01.32-.03.15-.06.31.44.39-1.97-.34-4.49-.83-6.49-.39-.49.17.03.62,1.47.76,1.46.12,2.43.13,3.88.4l-.05.31c-.48-.06-1.07-.24-1.67-.3-.6-.06-1.2-.11-1.69-.06-.48.12.93.54.44.66-.47-.02-.94-.1-1.41.09,1.39.02,3.29.04,4.66.46.44.21.87.47.8.79,1.15.2,2.17.49,3,.99.84.46,1.52,1.01,2.03,1.65.16.24.8.5,1.56.82.75.34,1.64.67,2.28.97Z"/>
      </g>
    </g>
    <text class="cls-27" transform="translate(93.82 41.32) scale(.97 1)"><tspan x="0" y="0">Ladies League</tspan></text>
    <text class="cls-19" transform="translate(101.21 68.21)"><tspan class="cls-34" x="0" y="0">J</tspan><tspan class="cls-36" x="1.74" y="0">une 11th @ 9:30 am</tspan></text>
    <text class="cls-18" transform="translate(95.44 86.87)"><tspan class="cls-33" x="0" y="0">F</tspan><tspan class="cls-29" x="2.41" y="0">r</tspan><tspan x="4" y="0">ee lesson</tspan><tspan class="cls-38" x="23.92" y="0" xml:space="preserve"> t</tspan><tspan class="cls-35" x="26.5" y="0">o help</tspan><tspan class="cls-31" x="40.23" y="0"> </tspan><tspan class="cls-40" x="41.27" y="0">y</tspan><tspan class="cls-35" x="43.68" y="0">ou </tspan><tspan x="1.76" y="6">domin</tspan><tspan class="cls-32" x="15.71" y="6">a</tspan><tspan class="cls-26" x="18.06" y="6">t</tspan><tspan x="19.51" y="6">e on</tspan><tspan class="cls-16" x="29.04" y="6"> </tspan><tspan x="30.16" y="6">the cl</tspan><tspan class="cls-21" x="41.71" y="6">a</tspan><tspan class="cls-31" x="44.03" y="6">y</tspan><tspan x="46.39" y="6" xml:space="preserve">  </tspan></text>
    <text class="cls-28" transform="translate(95.41 54.23)"><tspan x="0" y="0">Cl</tspan><tspan class="cls-23" x="8.6" y="0">a</tspan><tspan class="cls-24" x="13.36" y="0">y</tspan><tspan class="cls-37" x="18.12" y="0" xml:space="preserve"> Lesson</tspan></text>
    <g>
      <path class="cls-8" d="M143.85,133.67c-.07.24-.03.16-.04.19.03-.24.06-.21.05-.22,0,.01,0,.02,0,.02Z"/>
      <path class="cls-8" d="M142.25,134.77l.05-.06c-.17.07-.35.15-.52.25.15-.07.31-.14.46-.19Z"/>
      <path class="cls-8" d="M140.36,137.6c.1-.16.07-.46.08-.82,0-.35.07-.81.32-1.1.03-.03.07-.05.11-.07.02-.12.06-.24.11-.36-.37.33-.55.87-.58,1.3-.04.43-.01.8-.03,1.06Z"/>
      <path class="cls-8" d="M139.97,139.31c.08-.1.08.36.02-.39,0,.03-.01.05-.02.07,0,.07,0,.16,0,.32Z"/>
      <path class="cls-8" d="M139.97,138.99c-.01-.33-.06.22,0,0h0Z"/>
      <path class="cls-8" d="M140.01,140.51l-.06-.44c-.05.09-.07.48-.1.33.03.45.08.36.16.1Z"/>
      <path class="cls-8" d="M140.15,140.93l-.02-.23s-.03.1.02.23Z"/>
      <path class="cls-8" d="M140.07,140.22l.05.48c.03-.06.1-.07-.02-.22.06.04,0-.06-.03-.26Z"/>
      <path class="cls-8" d="M140.11,139.95c.05-.24.07-.56.15-.12-.03-.84-.17-.71-.15.12Z"/>
      <path class="cls-8" d="M140.58,137.76l.05-.34-.07-.3c.03.15-.04.67.02.64Z"/>
      <path class="cls-8" d="M139.72,143.21s.13-.13.19-.16l-.02-.33c-.05.16-.11.47-.17.48Z"/>
      <path class="cls-8" d="M139.91,143.05l.02.49c.06-.43.03-.51-.02-.49Z"/>
      <polygon class="cls-8" points="140.37 141.02 140.24 140.22 140.37 141.17 140.37 141.02"/>
      <polygon class="cls-8" points="139.45 145.02 139.4 144.74 139.47 145.24 139.45 145.02"/>
      <path class="cls-8" d="M139.35,145.64c-.06-.08-.12-.1-.15-.16.02,0,.05.11.01.18.03-.04.05-.03.14-.02Z"/>
      <path class="cls-8" d="M139.12,145.74s.07-.04.08-.08c-.02.02-.04.05-.08.08Z"/>
      <path class="cls-8" d="M139.8,144.35s-.11.09-.18.36l.15-.17c0-.06.02-.12.03-.19Z"/>
      <path class="cls-8" d="M139.77,144.53h0c-.04.21-.06.35-.07.41,0-.05.03-.18.08-.41Z"/>
      <path class="cls-8" d="M139.8,144.3v.05s.01-.03,0-.05Z"/>
      <path class="cls-8" d="M140.18,142.29c.05.29.06.89.22.33-.07-.21-.16.11-.22-.33Z"/>
      <path class="cls-8" d="M139.99,144.09l.09-.51s-.09.09-.11-.05v.56Z"/>
      <polygon class="cls-8" points="139.99 144.35 139.99 144.09 139.95 144.28 139.99 144.35"/>
      <path class="cls-8" d="M139.37,145.88c-.04.1-.15.11-.25.07.1.08.25.1.35.02,0-.06-.02-.14-.1-.08Z"/>
      <path class="cls-8" d="M139.58,145.59v.02s.02-.02,0-.02Z"/>
      <polygon class="cls-8" points="137.85 144.25 137.86 144.3 137.88 144.3 137.85 144.25"/>
      <path class="cls-8" d="M139.5,145.98c.09-.05.09-.14.08-.21-.01.07-.04.15-.11.2,0,.02,0,.04.03.01Z"/>
      <path class="cls-8" d="M138.9,145.61c.06.1.07.14.08.18,0-.03-.01-.07,0-.09-.03-.05-.06-.1-.08-.09Z"/>
      <path class="cls-8" d="M139.54,145.63h0s-.02,0,0,0Z"/>
      <path class="cls-8" d="M139.54,145.63l.04.14c.01-.06.01-.11,0-.16-.01,0-.03.01-.04.01Z"/>
      <path class="cls-8" d="M136.74,143.96c.12-.02.51.43.68.93.34.38.48-.1.43-.58-.05.01-.09.04-.42-.36.04.19.48,1.05.16.73-.41-.55-.26-.5-.38-.81.02.32-.63-.64-.73-.41l.37.48s-.18-.13-.12.03Z"/>
      <path class="cls-8" d="M138.37,145.13l.13.17c-.11-.21-.17-.38-.26-.7-.23-.27-.31-.31-.35-.31l.54.89-.05-.05Z"/>
      <path class="cls-8" d="M138.93,145.85c-.08.11-.47-.25-.38.06.35.34.29.14.48.21-.44-.28.13.02-.11-.25.07.04.13.07.19.09-.06-.05-.11-.1-.13-.16h0s0,.01,0,.01h0s0,.04,0,.02h0s-.02.02-.04.02c-.07-.1,0-.04.04-.03h.01s0-.02,0-.02l-.07-.04s-.1-.09-.14-.13c-.1-.1-.17-.19-.27-.32.05.1.1.17.17.27.06.09.21.24.26.27Z"/>
      <path class="cls-8" d="M140.62,143.17s-.02.03-.03.03c0,.07.02.09.03-.03Z"/>
      <path class="cls-8" d="M140.5,143.58c0-.07-.05-.14-.01-.38.06-.2.06,0,.1,0-.02-.15-.04-.51-.14-.07v.07c-.08.4-.3.89-.31.82.13-.1.22-.19.36-.45Z"/>
      <path class="cls-8" d="M139.9,145.78c-.02.19-.07.41-.23.56.1-.03.2-.09.28-.17l-.06-.03c.16-.33.04-.3,0-.36Z"/>
      <polygon class="cls-8" points="137.86 144.14 138.03 144.16 137.62 143.85 137.86 144.14"/>
      <polygon class="cls-8" points="137.28 143.22 137.4 143.2 137.2 142.99 137.28 143.22"/>
      <path class="cls-8" d="M125.75,146.04l-.13-.21c.06.1.1.17.13.21Z"/>
      <path class="cls-8" d="M126.45,147.69l.07.02c-.06-.06-.1-.09-.07-.02Z"/>
      <path class="cls-8" d="M131.64,149.38c-.04.38-.11.81,0,.74l.1-.13c-.07-.24-.1-.44-.1-.6Z"/>
      <path class="cls-8" d="M132.9,160.92v.13c.08.05.14.09.2.12-.06-.08-.13-.16-.2-.25Z"/>
      <path class="cls-8" d="M132.34,160.93c-.08-.26-.09-.34-.14-.52.03.13.03.21.14.52Z"/>
      <path class="cls-8" d="M121.74,137.11l-.23-.21c.18.41.16.21.23.21Z"/>
      <path class="cls-8" d="M131.42,133.3c-.39.06-.64.24-.82.44.35-.29.72-.3.82-.44Z"/>
      <path class="cls-8" d="M127.25,146.16c-.08-.13-.13-.18-.15-.16.08.13.14.21.15.16Z"/>
      <path class="cls-8" d="M130.01,134.82c.04-.08.07-.14.1-.21.1-.32.25-.62.48-.87-.26.2-.52.57-.59,1.08Z"/>
      <path class="cls-8" d="M124.66,146.52l.02.08s0-.03-.02-.08Z"/>
      <path class="cls-8" d="M127.64,156.51c-.04-.09-.11-.25-.16-.39.02.07.07.19.16.39Z"/>
      <path class="cls-8" d="M135.24,139.38c.11.2.03.03,0,0h0Z"/>
      <path class="cls-8" d="M135.31,140.6s-.07-.06-.1-.05c.04,0,.07.02.1.05Z"/>
      <path class="cls-8" d="M130.73,137.67v.02c.02-.07.02-.06,0-.02Z"/>
      <path class="cls-8" d="M135.35,139.71c-.03-.08-.06-.18-.1-.28.01.05.04.13.1.28Z"/>
      <path class="cls-8" d="M135.38,139.64c.03.07.06.13.08.18.03.02.03-.01-.08-.18Z"/>
      <path class="cls-8" d="M135.1,139.09c.06.12.11.23.15.34-.01-.04-.01-.06,0-.06-.03-.06-.08-.14-.15-.28Z"/>
      <path class="cls-8" d="M116.62,129.39s0,.03,0,.05c.11.21.08.11,0-.05Z"/>
      <polygon class="cls-8" points="134.27 154.98 134.26 154.96 134.27 154.99 134.27 154.98"/>
      <path class="cls-8" d="M134.58,155.76c-.24-.3-.27-.5-.31-.77l-.28.36.59.41Z"/>
      <path class="cls-8" d="M124.01,142.12l.13.58c-.45-.58-.6-1.07-.52-.5.39-.08.94,2.07,1.33,1.99l.08.39c-.04-.1-.07-.11-.11-.21.13.76.48.4.82,1.31.11.32.15.56.01.37l.39.65c.08.2,0,.18-.08-.02l.48,1.04h-.01c.12.12.36.42.47.57.06.29-.1-.12-.11-.03l.34.54c0,.28-.29-.17-.45-.57-.13.7.3.44.6,1.71l-.28-.53c-.05.44.21.84.35,1.52,0-.18-.22-1.38.15-.79.05.19.14.43.36.74-.13.06.05.38.24.79l-.18.05c.24.43.32.36.51.59.2.51.11.67.05.84.32.82-.03-.65.41.29.22.7.5,1.14.94,1.89.14.49-.14-.04-.12.15l.32.36c.04.1-.02.09-.04.08.2.33.18-.04.47.48.25.07.21,1.25.72,1.83.02.19-.14-.04-.18.04.54.87.45.76.97,1.44l.17.7c-.08-.53.33,0,.7.5-.02-.23-.02-.37-.04-.48l.39.66c.02.12-.05.13-.16.07.03.04.07.08.09.1.08.36-.03.38-.2.23-.02-.15-.05-.3-.07-.45-.18-.13-.4-.33-.47-.23.05.07.13.2.21.35-.06-.05-.1-.08-.1-.04,0,.05.09.15.2.3-.01.15-.02.31-.02.48l.08-.02.32.91.17.48c.06.16.11.22.16.34.26.16.48.28.68.51l.08.09s.02.06.04.02l.05-.12c.06-.16.14-.31.2-.47.12-.32.24-.65.31-1.02-.02.54.1.4.2.65-.13.07-.22.35-.38.71-.07.18-.18.38-.28.59-.06.17-.1.03-.14-.02-.05-.08-.09-.15-.14-.23.2.35.17.42.12.39l.08.1.04.05s.03-.06.05-.1l.2-.4c.11-.26.23-.51.31-.76.05.23.18-.12.36-.39-.13-.05-.07-.36,0-.76.06-.4.13-.92.08-1.28.09.01.22.29.07,1.05.17-.31.13-.73.03-1.08-.08-.36-.2-.65-.15-1.08.03.21.02.31.07.4-.12-.58-.22-1.38-.1-1.21l.03.16c-.14-1.08-.79-3.09-1.05-3.17.03-.02.32.05.39.1l-1.28-1.56c.25.1.58-.62.91.17-.03-.24-.08-.54-.27-1.03.01.17-.2.48-.27.26.08-.67.01-.45.03-1.25.01.25-.37.06-.45-.33.06.05.31-.11.38.03l-.54-.88c.11.23.28-.02.32-.25-.04.11-.18-.83-.26-1.08v.42c-.17-1.1-.67-.98-.86-2.07.09.12.47.24.4-.31-.21-.22-1-.97-1.3-1.92l.06-.2-.23-.73c.32.43,1.07,1.63,1.4,2.29,0-.42.09-.13-.03-.74.05-.23.19.31.23.49l-.2-1.43c-.18.1-.38-1.06-.53-.98l.46,1.52c-.18.1-.7-.8-.83-1.82.04-.27.37.14.43.11-.09-.12-.28-.94-.24-1.04l.17.41c-.02-.57-.39-.88-.3-1.59-.02-.24.16-.73.04-.76-.17.41-.84.58-1.04.34,0-.09.05-1.27.13-1.55.13-.41.48.54.59.19-.05,0-.14-.21-.18-.3.02-.25.18.08.09-.45-.21-.07-.1-1.1-.19-.24-.11-.52-.02-.56-.09-1.18-.11.21-.48-.52-.59-1.04.05.03.11-.1.13-.16-.04-.54-.04-.97-.05-1.37,0-.38.05-.72.17-1.15.06-.04.27-.31.26-.03.02-.14.01-.35.19-.55.23.02.11.11.02.23-.09.12-.15.27,0,.32-.03-.11.02-.29.18-.45.07-.08.18-.13.28-.16.05-.02.1-.02.16-.03.03.02.04.05.07.08-.01-.09.02-.26-.08-.3-.09-.04-.22-.05-.34.01-.26.11-.41.47-.46.66-.08-.16-.13-.61.12-.9.12-.16.32-.3.57-.33.31-.08.34.19.53.33.12.13.19.24.22.37.03.11.03.16.02.19-.02.06-.09.02-.05.08.17.46.31.75.45,1,.13.22.23.33.33.46.21.24.37.46.56,1.09.07.54-.27.15-.33.3-.34-.6-.34-1-.53-1.43l.16.55c-.14-.18-.35-.58-.41-.84.03.47,1.04,2.47,1.48,3.62.14.17.36.48.34.3l-.19-.34c-.05-.37.48.57.31.11.31.42.69.87.98,1.55l-.09.2s-.13-.47-.27-.62c.21.23.31,1.1.68,1.28l-.14-.51c.33.41.8.88,1.08,1.46,0-.34-.09-.12-.14-.61-.03.47-.79-1.43-.71-.75-.02-.52-.3-.76-.4-1.39-.04.04,0,.24-.22-.25-.03-.01-.07-.05-.1-.08,0-.01,0-.02-.01-.03v.03s-.01-.02.01.01c.04.13.06.23.05.28-.24-.17-.63-.94-.81-1.17-.11-.3.12.09.1-.09l-.28-.34c.1-.09-.16-.86.22-.21l-.28-.61c-.1-.39-.3-.9-.48-1.19-.1-.3-.45-.68-.25-.47l-.27-.54-.36-.79.02-.05c-.16-.39-.32-.92-.53-.95-.22-.12-.32-.36-.75-.31-.76.07-1.21.62-1.62,1.31-.07.26-.14.53-.17.86-.02.16-.03.34-.03.54,0,.17,0,.35.01.56l-.1.12c.07.46,0,1.39.13,1.58-.26.52.15,2.24.2,3.05h.15c.06.57.17,1.09.32,1.77l.12-.06c.19.57.12,1.53.29,2.46-.06-.06-.08-.29-.08-.47-.12,1.16.6,2.31.58,3.35.1.24.11.42.12.61,0-.02-.01-.04-.02-.06,0,.03.01.06.02.1,0,.12,0,.24,0,.36.01-.11.02-.22.01-.31.04.19.11.48.21.76l-.11.15s.01.04.02.07c0,.29.11.21.18.04.05.14.11.27.16.36-.17.28.24.73.07,1.09.15.17.41,1.41.69,1.5-.03.02-.02.1-.06-.05.05.32.1.64.24.91l-.14.18.4.63c0,.44-.01.63-.25.25.47.95.29.79.72,1.58h-.12c.09.29.37.73.33.94-.02.36.22,1.19.39,2.14.02.12.04.24.06.36l.03.23c.01.15.02.29.01.43-.01.28-.08.52-.18.61.18.27.12.32.03.34-.09.03-.18-.02-.11.39-.08-.17-.15-.23-.14-.55-.01.07-.04.12-.06.17-.02.04-.04.1-.06.02-.03-.09-.06-.18-.09-.26-.05-.16-.08-.21-.15-.1,0-.21.05-.18.04-.33,0,.02-.05.05-.06-.08,0-.12.03-.09.05-.13-.09-.16-.24.11-.38.36-.07-.44-.1-.48-.35-.66,0-.2,0-.41.2,0-.07-.2-.68-1.85-.85-1.78,0-.11-.17-.43-.22-.5-.28-.68-.29-.74-.59-1.4l.05.2c-.32-.17-.28-.53-.54-1.05h.03c-.38-1.28-.3-.49-.65-1.77l-.1.12c-.32,0-.3-1.14-.71-1.79l.04.28c-.26-.34-.09-1.23-.22-1.63-.01-.09.1.12.16.22-.27-1.08-.22-.06-.59-.79.03-.18.31.08.1-.43-.04-.28-.93-1.34-1.05-2.1,0,.18,0,.36-.21.04-.26-.52-.36-1.56-.79-1.94-.01-.08,0-.11.01-.12-.23-.38-.67-1.29-.89-1.48.28-.57-1.31-2.44-.9-2.61l-.56-1.25h.06c-.32-.8-.54-1.04-.76-1.28-.05-.2.04-.08.07-.07-.42-1.21-.49-1.32-1.12-2.21l.09-.16c-.18-.23-.55-1.8-1.15-2.85.02,0,.05.02.11.1-.65-1.22-.74-3.3-1.44-3.61l-.47-.83c.43,1.14-.28-.08-.17.42-.2-.43-.36-1.19-.08-.67v.09c.37.08-.55-1.42-.41-1.47-.31-.54-.69-1.05-1.14-1.51l-.36-.33-.52-.33c-.17-.13-.36-.17-.55-.24-.19-.07-.38-.15-.56-.13-.37-.03-.75.21-.9.55-.15.33-.22.73-.2,1.16-.01.19.03.47.04.6.02.15.05.3.07.44.05.29.11.58.18.85l.14-.31c.06.26.12.51.19.77.01.21-.08.31-.23-.23-.04.32.36.88.41.88.25,1.07-.37-.33-.27-.01l.15.43v-.11c.19.33.28.33.49.97.1.41-.05.25,0,.41-.01,0,0,.06.08.24l.33.93.02-.43c.23.38.32.86.34.37-.05.73,1.29,3.42,1.38,3.82.36.51.6,1.05.91,1.73-.05-.18.08-.36.33.23-.45-.04.35,1.13.34,1.72-.05-.5.88,1.61.78.84.22.49-.11.1,0,.5.73,1.04,1.2,2.51,1.94,3.89.06,0,.01-.27.23,0l.13.85c.16.27.39.13.47.71,0-.09.01-.23.12-.05,1.09,2.86,2.79,5.61,3.5,8.67-.07-.43.05-.17.17.13-.05-.2.12-.04.17-.11l.3,1.28c.27.15.51,1.3.73,1.36l-.18-.37c.4.44.18-.89.46-.91-.45-.49-.25-1.65-.96-2.46-.03-.23.15.14.17,0-.21-.19-.34-.47-.52-1.02l.05.05c-.65-1.48-.81-2.16-1.47-3.85l-.07.18c-.14-.36-.14-.46-.18-.64-.37-.32.44,1,.06.73.05-.59-1.13-2.5-1-2.95-.26-.54-.07.23-.32-.32v-.18s-.16-.09-.16-.09c-.15-.36-.14-.59-.08-.63.03.09.14.24.19.32-.13-.5-.66-1.28-.71-1.45l.21.54c-.79-1.44-1.6-3.27-2.5-4.58v.14c-.66-1-.38-.88-1.01-2.03l.03.04c-.17-.21-.35-.51-.5-.84.21.27-.13-.63.13-.27-.66-1.12-.36-.54-.94-1.22l.02-.22c-.21-.23-.27-.23-.55-.82.3.46-.02-.45.34.06-.33-1.35-1.01-1.79-.93-2.51-.51-.48.29,1.17.1.86.02.31-.4-.4-.54-.81-.15-.41.08-.83-.3-1.86.04.1.06.1.1.21-.07-.41-.37-.73-.41-1.24-.26-.21-.19-.62-.43-.63l.36.94c-.24-.52-.67-.96-.78-1.9.06.06.19.31.28.49-.01-.28-.18-.5-.18-.79.23.02.35,1.16.71,1.69,0-.31-.49-1.05-.17-.83-.43-.34-.25-1.03-.6-1.68l.14.02s-.05-.15-.08-.2c-.03-.04-.05-.1-.05-.16.06.08.13.12.2.18-.1-.12-.07-.24-.02-.31.06-.07.12-.09.17-.18-.14.1-.13.13-.2.07-.05-.05-.11-.17-.18-.07-.03-.24.08-.38.19-.37.11.01.19.09.26.17.07.08.12.17.17.24.03.03.05.06.08.1.05.05.03.01.19.15-.03-.02-.1-.09-.12-.11-.02-.02-.03-.04-.04-.07-.02-.05-.04-.11.03-.1.04.04.34.38.39.53.65.69,0-.21.34.04.1.35.36.34.66.7l-.12.08c.51,1.08.43.12.82,1.17-.13-.11-.24-.23-.37-.34.1.16.19.33.29.5l-.19-.04c.36.52.41.72.59,1.32.04-.17.27-.02.46.51.05.39-.2-.16.09.59-.14-.14-.31-.29-.31-.66-.05-.02-.14-.14-.2-.15.05.42.33.98.42,1.25-.03-.11-.07-.23-.07-.31l.57,1.03c.01.19-.08.07-.16-.06.09.22.21.35.34.68-.14-.05-.24.01-.46-.44l.51,1.02c-.02.09.09.6,0,.47.18.63.8,1.31,1.04,2.1.04.03.09.1.17.25.28.71.42,1.39.92,2.16l.02.55c.32.63-.04-.74.5.31.39.74-.04.36.03.65.26.34.74.92.89,1.69-.14-.22-.19-.41-.3-.63ZM127.57,150.12c-.09-.14-.31-.42-.29-.56.22.11.21.28.29.56ZM133.34,162.6c-.08-.07-.18-.35-.26-.67.08.17.17.37.26.67ZM134.06,137.15h-.01c-.1-.38-.07-.25.01,0ZM134.33,137.89c.05.06.07.05.07.01-.05-.03-.13-.19-.21-.38,0,.07,0,.17.14.36ZM116.5,132.04l-.02-.16c.16.31.09.23.02.16Z"/>
      <path class="cls-8" d="M132.41,160.95c0-.08,0-.1.03-.13-.06-.07-.08-.07-.03.13Z"/>
      <path class="cls-8" d="M121.78,137.15v-.03s-.03-.01-.04-.01l.04.04Z"/>
      <path class="cls-8" d="M131.59,140.73c0,.16-.02.25-.04.32.03,0,.06-.07.04-.32Z"/>
      <path class="cls-8" d="M136.41,141.45l-.27-.42c.12.21.14.3.17.41.02-.03.02-.13.1,0Z"/>
      <path class="cls-8" d="M137.89,145.61c.05.05.08.13.14.18l.04-.05c-.17-.26-.33-.42-.18-.13Z"/>
      <path class="cls-8" d="M136.22,142.08c-.08.09.11.35.3.64l-.03-.05c.19,0-.04-.29-.27-.59Z"/>
      <path class="cls-8" d="M136.57,142.78c.06.09.12.18.17.28.08,0-.05-.12-.17-.28Z"/>
      <path class="cls-8" d="M134.82,138.74c.04.16.18.03.18.13.21.1-.64-.91-.18-.13Z"/>
      <polygon class="cls-8" points="136.02 142.51 136.09 142.33 135.89 142.22 136.02 142.51"/>
      <path class="cls-8" d="M134.8,140.01l.22.52s.06.04.11.11c-.15-.31-.3-.66-.34-.63Z"/>
      <path class="cls-8" d="M135.14,140.64c.08.16.17.31.23.39-.05-.09-.15-.27-.23-.39Z"/>
      <polygon class="cls-8" points="135.61 141.86 135.56 141.7 135.38 141.35 135.61 141.86"/>
      <path class="cls-8" d="M132.28,134.37c-.1-.16-.18-.33-.28-.48-.04.03,0,.02.02.1.02.07.06.16.1.26.06.1.17.27.15.13Z"/>
      <path class="cls-8" d="M132.69,136.37c-.04-.17-.01-.19,0-.29l-.17.05.18.24Z"/>
      <path class="cls-8" d="M132.1,135.06s-.27-.29-.09.13c.03-.06.21.3.09-.13Z"/>
      <polygon class="cls-8" points="131.21 141.73 131.19 141.57 130.9 141.63 131.21 141.73"/>
      <path class="cls-8" d="M133.23,149.63c-.08-.72-.21-.13-.26-.79-.1-.15.03.54-.06.38.16.41.17.65.32.41Z"/>
      <path class="cls-8" d="M132.91,149.22c-.03-.06-.05-.13-.09-.21.04.12.07.18.09.21Z"/>
      <polygon class="cls-8" points="128.11 158.16 128.21 158.62 128.2 158.31 128.11 158.16"/>
      <path class="cls-8" d="M128.63,158.93l-.14.17.26.2c-.04-.1-.13-.28-.12-.37Z"/>
      <path class="cls-8" d="M127.74,151.46h.06c.02-.07-.02-.17-.1-.38l.05.38Z"/>
      <polygon class="cls-8" points="125.35 145.57 125.39 145.68 125.46 145.42 125.35 145.57"/>
      <path class="cls-8" d="M123.03,140.77c.08.2.22.42.3.63-.22-.42-.13-.76-.3-.63Z"/>
    </g>
    <g>
      <path class="cls-8" d="M124.2,121.87c-.19-.12-.16,0-.2,0,.33.17.2-.02.2,0Z"/>
      <polygon class="cls-8" points="127.48 123.68 127.4 123.67 127.9 123.93 127.48 123.68"/>
      <path class="cls-8" d="M130.24,125.85c-.16-.32-.99-.81-1.45-1.23l-.06-.09-.3-.07c.63.42,1.42,1.02,1.81,1.39Z"/>
      <path class="cls-8" d="M131.4,127.35c-.04-.12.33.24-.31-.31.02.03.03.04.05.06.05.05.13.12.26.24Z"/>
      <path class="cls-8" d="M131.14,127.11c-.27-.25.14.2,0,0h0Z"/>
      <path class="cls-8" d="M132.38,128.26l-.38-.31c.05.1.34.41.21.31.37.33.32.24.17,0Z"/>
      <path class="cls-8" d="M132.78,128.51l-.19-.16s.06.09.19.16Z"/>
      <path class="cls-8" d="M132.18,128l.41.35c-.03-.07,0-.11-.18-.16.06,0-.04-.05-.22-.18Z"/>
      <path class="cls-8" d="M131.99,127.77c-.16-.22-.41-.47-.02-.17-.69-.62-.66-.45.02.17Z"/>
      <path class="cls-8" d="M130.48,125.84l-.25-.27-.28-.16c.14.08.52.48.53.43Z"/>
      <path class="cls-8" d="M134.37,130.52s-.04-.18-.03-.23l-.27-.24c.11.15.32.43.3.47Z"/>
      <path class="cls-8" d="M134.33,130.29c.13.12.27.24.4.37-.31-.37-.39-.41-.4-.37Z"/>
      <polygon class="cls-8" points="132.97 128.45 132.26 127.91 133.09 128.57 132.97 128.45"/>
      <polygon class="cls-8" points="135.66 132.1 135.41 131.92 135.84 132.26 135.66 132.1"/>
      <path class="cls-8" d="M136.49,133.18c-.18-.14.1.31-.07.14.23.29.46.51.67.71-.2-.23-.39-.49-.59-.85Z"/>
      <path class="cls-8" d="M137.4,134.38c-.1-.12-.21-.23-.32-.35.1.12.21.24.32.35Z"/>
      <path class="cls-8" d="M135.29,131.38s.02.14.19.39l-.06-.22c-.04-.05-.09-.11-.13-.16Z"/>
      <path class="cls-8" d="M135.42,131.53h0c.14.19.24.31.28.36-.04-.05-.12-.16-.29-.36Z"/>
      <path class="cls-8" d="M135.26,131.34l.03.04s-.01-.03-.03-.04Z"/>
      <path class="cls-8" d="M133.87,129.54c.25.2.73.66.36.13-.2-.13.01.17-.36-.13Z"/>
      <path class="cls-8" d="M135.18,131.06l-.34-.46s.03.13-.09.02l.44.43Z"/>
      <polygon class="cls-8" points="135.38 131.26 135.18 131.06 135.31 131.23 135.38 131.26"/>
      <path class="cls-8" d="M136.91,133.54c.18.17.35.39.52.64-.16-.28-.36-.56-.55-.82-.05-.02-.18-.1.03.18Z"/>
      <path class="cls-8" d="M136.21,132.55l.04.04s-.03-.05-.04-.04Z"/>
      <polygon class="cls-8" points="139.06 136.69 139.05 136.64 139.03 136.63 139.06 136.69"/>
      <path class="cls-8" d="M136.86,133.3c-.13-.21-.24-.31-.34-.41.12.15.23.3.36.46.02,0,.03,0-.02-.05Z"/>
      <path class="cls-8" d="M137.91,135.05c-.06-.12-.13-.25-.2-.38.05.12.15.36.2.38Z"/>
      <path class="cls-8" d="M136.28,132.67l-.03-.03c.03.08.03.06.03.03Z"/>
      <path class="cls-8" d="M136.28,132.67c.09.09.16.16.24.23-.09-.11-.18-.21-.27-.31.01.03.02.06.03.08Z"/>
      <path class="cls-8" d="M140.05,137.16c-.1,0-.51-.51-.72-1.03-.34-.44-.39.02-.27.51.04,0,.07-.02.41.43-.06-.19-.57-1.13-.25-.76.43.62.3.54.45.87-.06-.33.62.75.67.53-.13-.18-.24-.37-.38-.55.01-.02.17.16.1,0Z"/>
      <path class="cls-8" d="M138.5,135.72l-.14-.19c.14.22.2.41.33.74.24.31.31.36.34.37l-.59-.98.05.06Z"/>
      <path class="cls-8" d="M137.78,134.66c.18.1.52.54.42.2-.39-.56-.33-.35-.59-.67.64.9-.22-.23.18.46-.13-.17-.25-.33-.35-.48.1.17.19.33.28.49v-.02s-.01,0-.01,0h0s-.02-.06,0-.01c0,0,.01.01.01.02.01,0,.04,0,.06.02.16.27,0,.05-.06-.02,0,0-.01,0-.02,0h0s.66.89.66.89c-.12-.2-.29-.44-.58-.86Z"/>
      <path class="cls-8" d="M134.77,129.98s.01.03,0,.04c.06.05.08.06,0-.04Z"/>
      <path class="cls-8" d="M135.03,130.36c-.06-.06-.13-.08-.3-.28-.13-.19.03-.03.05-.06-.12-.1-.42-.37-.12.03l.06.05c.28.35.54.88.48.82-.02-.15-.04-.28-.17-.56Z"/>
      <path class="cls-8" d="M136.5,132.49l.59.71-.22-.42-.02.05c-.3-.43-.28-.31-.35-.34Z"/>
      <polygon class="cls-8" points="139.08 136.8 138.93 136.75 139.33 137.13 139.08 136.8"/>
      <polygon class="cls-8" points="139.7 137.81 139.61 137.82 139.81 138.07 139.7 137.81"/>
      <path class="cls-8" d="M119.11,140.5l.2.19c-.09-.09-.15-.15-.2-.19Z"/>
      <path class="cls-8" d="M117.84,139h-.06c.08.04.11.06.06,0Z"/>
      <path class="cls-8" d="M131.99,141.67c-.23-.33-.47-.72-.5-.62l.02.15c.21.18.36.33.47.47Z"/>
      <path class="cls-8" d="M116.3,129l.1.07c.1,0,.2.01.28.02-.12-.03-.24-.06-.38-.09Z"/>
      <path class="cls-8" d="M115.91,129.27l-.46-.19c.1.05.25.11.46.19Z"/>
      <path class="cls-8" d="M122.7,149.64c-.13.04-.26.07-.39.09.61.02.34-.05.39-.09Z"/>
      <path class="cls-8" d="M144.53,148.87c0,.29-.05.48-.1.61.13-.22.18-.54.1-.61Z"/>
      <path class="cls-8" d="M117.85,140.55c.12.12.18.16.19.14-.12-.12-.2-.18-.19-.14Z"/>
      <path class="cls-8" d="M144.16,149.79s.05,0,.07,0c.07-.05.13-.13.2-.3-.11.17-.18.21-.27.31Z"/>
      <path class="cls-8" d="M105.41,159.14l-.05.07s.03-.02.05-.07Z"/>
      <path class="cls-8" d="M96.45,160.74c.06.09.15.22.26.34-.04-.07-.13-.16-.26-.34Z"/>
      <path class="cls-8" d="M141.88,142.08c-.11-.23-.03-.03,0,0h0Z"/>
      <path class="cls-8" d="M141.68,140.81s.06.07.09.07c-.03,0-.06-.03-.09-.07Z"/>
      <path class="cls-8" d="M141.89,149.7h-.02c.06.04.05.03.02,0Z"/>
      <path class="cls-8" d="M141.76,141.72c.03.1.07.2.11.31-.02-.05-.05-.15-.11-.31Z"/>
      <path class="cls-8" d="M141.74,141.78c-.03-.08-.06-.14-.08-.2-.03-.02-.02,0,.08.2Z"/>
      <path class="cls-8" d="M142.03,142.4c-.06-.13-.11-.26-.16-.38.01.05.02.07.01.06.03.07.08.16.15.32Z"/>
      <path class="cls-8" d="M107.92,139.25s-.02,0-.04-.01c-.17.04-.1.02.04.01Z"/>
      <polygon class="cls-8" points="126.56 137.74 126.58 137.75 126.56 137.72 126.56 137.74"/>
      <path class="cls-8" d="M125.85,137.14c.36.19.51.35.7.58l-.03-.4-.67-.18Z"/>
      <path class="cls-8" d="M122.17,144.11l-.34-.56c.6.52.91,1.01.63.45-.28.1-1.62-1.95-1.91-1.82l-.23-.36c.08.09.1.11.18.19-.43-.72-.56-.33-1.22-1.17-.22-.3-.36-.52-.17-.35l-.59-.58c-.15-.19-.08-.17.08.01l-.83-.94h.01c-.15-.11-.47-.37-.62-.5-.17-.27.13.1.1.02l-.5-.49c-.12-.27.3.13.6.5-.19-.69-.43-.39-1.18-1.58l.44.48c-.14-.43-.51-.79-.88-1.43.06.17.72,1.32.19.78-.11-.18-.28-.4-.58-.69.08-.07-.18-.36-.48-.75l.13-.06c-.35-.4-.38-.33-.61-.55-.33-.49-.31-.65-.31-.82-.49-.79.21.64-.42-.28-.37-.69-.7-1.12-1.11-1.93-.14-.51.11.06.08-.13-.09-.13-.16-.26-.24-.4-.02-.11.02-.08.04-.07-.12-.35-.17,0-.26-.58-.09-.07-.03-.4.15-.68.19-.27.49-.46.79-.67.18-.02-.05.11.03.14.88-.38.77-.32,1.62-.44.24.07.48.11.71.22-.51-.24.2-.21.84-.08-.17-.13-.32-.22-.43-.27.35.06.66.2,1,.29.11.07,0,.07-.19.06.07.01.13.03.19.04.31.22.1.19-.16.16l-.31-.21c-.26-.02-.51,0-.49.09.07,0,.19.04.32.08-.07,0-.11,0-.09.03.03.03.13.04.3.06l.15.22.07-.04c.37.22.75.43,1.1.69.88.34,1.7.63,2.93,1.53-.36-.15-.18.09-.28.18-.23-.37-.95-.68-1.57-1.14.33.24.22.24.12.2.4.24.8.47,1.19.73-.09.07.18.25.43.51-.07-.35.89.55,1.36.88-.02.08-.17.04-.69-.42.48.61.91.46,1.39,1.06-.13-.11-.19-.18-.26-.2.34.21,1.02.92.81.8l-.13-.11c.82.78,2.49,2.37,2.74,2.36,0,.02-.26.05-.33.03l1.87.98c-.24-.01-.01.73-.74.14.18.21.4.46.84.82-.12-.15-.17-.48.02-.32.37.61.28.4.78,1.11-.17-.22.22-.18.52.13-.07-.02-.14.2-.28.11l.95.59c-.22-.16-.18.11-.05.33-.05-.11.67.66.9.84l-.29-.36c.86.88,1.11.59,1.99,1.44-.14-.06-.48-.02-.04.42.29.11,1.33.42,2.19,1.05l.11.19.67.48c-.51-.19-1.85-.85-2.54-1.27.3.35.04.15.56.61.14.21-.35-.18-.5-.31l1.17,1.11c.04-.16,1.03.7,1.06.56l-1.42-1.03c.04-.15,1.02.37,1.88,1.11.19.23-.33.06-.35.11.15.06.89.62.96.71l-.42-.25c.45.45.93.49,1.45,1.08.21.16.53.62.62.57-.25-.39-.01-.85.29-.78.06.07,1.02.92,1.23,1.15.29.35-.71-.11-.47.19.04-.02.26.07.35.11.21.18-.17.05.36.35.16-.07,1.04.65.31.04.52.27.52.36,1.13.68-.15-.19.69.02,1.24.22-.05.02.05.12.1.17.54.26.97.42,1.39.6.4.13.94.33,1.46-.08.15-.02.45-.56.39-.3.06-.19.07-.36.08-.73.06-.36.08-.16.07.08,0,.23-.07.51.07.23-.04-.03-.02-.3-.07-.59-.04-.3-.14-.63-.23-.87-.08.18.27,1.13.1,1.7-.09-.03-.09-.28-.17-.62-.08-.35-.23-.81-.45-1.33-.35-.85-.02-.41-.1-.56-.57-1.64-.78-1.28-1.21-2.66-.11-.57.2-.11.23-.26.32.68.38,1.09.55,1.58-.05-.2-.11-.41-.17-.61.13.21.32.67.39.94-.05-.49-1.03-2.76-1.53-4.01-.13-.2-.34-.56-.3-.36l.19.38c.08.39-.45-.67-.27-.17-.29-.49-.66-1.02-.98-1.75l.05-.19s.17.5.3.68c-.2-.27-.4-1.18-.71-1.42l.17.54c-.31-.48-.78-1.02-1.09-1.66.04.34.09.14.2.65-.03-.48.85,1.59.69.88.08.54.34.83.5,1.49.03-.04-.03-.25.21.29.02.02.06.07.09.1,0,.02,0,.02.01.04v-.03s0,.02-.01-.01c-.04-.14-.07-.25-.07-.3.22.22.6,1.08.78,1.35.13.33-.11-.11-.07.08l.27.4c-.06.08.22.92-.16.18.11.22.19.46.28.69.12.43.32.99.5,1.32.12.33.41.79.24.53l.45,1.08-.02.02c.19.55.46,1.09.57,1.62.06.27.08.54.02.76-.05.22-.19.38-.32.38-.11.09-.43.14-.99-.11l-.09-.12c-.47-.13-1.3-.63-1.53-.65-.37-.41-2.06-1.16-2.74-1.72l-.09.07c-.49-.33-.97-.64-1.6-1.06l-.02.11c-.56-.33-1.27-1.07-2.05-1.73.08.02.27.19.4.32-.8-.94-2.06-1.56-2.77-2.44-.23-.16-.37-.31-.49-.46l.05.04s-.05-.05-.08-.08c-.08-.1-.16-.2-.25-.3.07.1.14.19.2.26-.16-.14-.4-.36-.65-.56l-.03-.17s-.03-.03-.06-.05c-.2-.24-.22-.14-.15.03-.13-.1-.25-.18-.35-.24-.07-.3-.64-.54-.76-.91-.22-.09-1.19-1.07-1.44-1.06,0-.02-.05-.1.07.02-.24-.26-.48-.53-.74-.72v-.2s-.69-.42-.69-.42c-.28-.39-.39-.56.02-.3-.92-.68-.7-.6-1.49-1.16l.09-.03c-.25-.24-.72-.54-.82-.73-.44-.65-2.73-2.66-4.2-4.02.14.44-.65-.67-.84-.56-.06-.12-.26-.31.03-.16-.85-.57-1.2-.99-1.9-1.21-.07-.11.24.04.16-.05-.08-.03-.31-.13-.39-.21-.07-.09.16.03.31.1-.93-.54-1.14-.38-1.27-.27-.45-.29-.72-.39-1.12-.4-.16-.1-.46-.25.2-.08-.18-.04-.72-.27-1.27-.31-.54-.08-1.06,0-1.07.07-.12-.01-.54.1-.63.14-.42.13-.64.24-.85.39-.2.15-.42.31-.62.75l.14-.22c-.04.38-.3.72-.21,1.42l-.02-.02c.07.78.18.93.24,1.07.07.15.12.3.39.99l.05-.12c.25.02.5,1.21,1.07,1.86l-.12-.29c.31.34.48,1.24.74,1.63.04.09-.12-.11-.22-.22.63,1.06.2.05.77.75.04.18-.28-.06.08.43.14.28,1.29,1.23,1.71,1.95-.07-.18-.15-.35.15-.06.43.48.96,1.46,1.47,1.78.04.07.05.1.04.12.35.34,1.09,1.15,1.36,1.32.03.57,2.08,2.21,1.81,2.42.32.38.62.77.92,1.17h-.05c.54.76.77,1,1,1.24.09.2-.02.08-.04.07.3.59.41.95.45,1.19.03.18.08.45-.36.63l-.13-.08c-.11.07-.58.07-1.14-.09-.56-.15-1.22-.47-1.83-.75.02,0,.05,0,.15.03-1.4-.6-2.79-2.3-3.46-2.36l-.83-.59c.98.88-.26,0,.11.4-.41-.32-.93-.97-.44-.57l.06.08c.31,0-1.18-1.14-1.06-1.22-.96-.88-1.9-1.75-2.83-2.62-.96-.84-1.87-1.71-3.11-2.28l.22.27c-.29-.13-.53-.27-.92-.3-.14-.04-.25-.04-.22-.07.02-.04.26-.07.62.03-.14-.11-.57-.15-.87-.02-.3.14-.44.37-.43.39-.27.28-.32.41-.36.42-.03.01,0-.09.06-.22.08-.27.52-.63.28-.44-.21.18-.33.38-.42.57l.09-.12c-.17.48-.13.53-.28,1.29-.1.47-.13.23-.16.42,0,0-.03.06-.03.29-.03.37-.05.74-.06,1.1l.14-.43c.04.49-.02,1.02.12.52-.26.74.04,4.01,0,4.46.12.66.15,1.31.16,2.12.02-.2.16-.33.16.37-.29-.25-.09,1.28-.32,1.84.16-.5-.03,1.97.19,1.19-.05.58-.11.03-.2.46.01.69-.09,1.44-.29,2.19-.18.75-.52,1.48-.86,2.27.02.04.19-.19.09.16-.18.24-.37.48-.57.71-.14.3.05.38-.37.84.07-.06.18-.14.07.06-.92,1.35-1.98,2.73-3.47,3.4-.73.34-1.54.39-2.29.13-.74-.26-1.41-.76-1.84-1.41.23.36.02.17-.18-.09.12.18-.08.06-.09.12-.26-.37-.43-.8-.58-1.21-.1-.09-.26-.41-.33-.76-.1-.33-.11-.67-.2-.73l.09.42c-.12-.27-.19-.06-.22.23-.03.28-.03.65-.13.64.21.3.31.75.55,1.23.22.48.6.98,1.13,1.26.18.2-.22-.09-.14.04.29.12.57.35,1.16.67h-.08c.86.39,1.57.5,2.31.44.74-.07,1.46-.33,2.35-.92h-.19c.35-.21.46-.28.64-.4.15-.22-.1-.02-.35.18-.26.19-.53.37-.39.17.31-.07.93-.58,1.44-1.14.51-.56.92-1.16,1.13-1.26.37-.57-.2.11.16-.47l.15-.12.02-.19c.23-.38.41-.53.46-.52-.06.09-.14.27-.19.38.36-.46.72-1.45.82-1.62l-.31.57c.36-.83.81-1.76,1.03-2.8.22-1.01.3-2.01.28-2.89l-.05.13c-.03-1.34.1-1.07.06-2.53v.05c-.04-.29-.07-.68-.08-1.08.07.37.09-.7.16-.22-.15-1.44-.1-.71-.32-1.65l.07-.22c-.09-.32-.13-.34-.18-1.07.1.59.1-.47.22.19.1-1.52-.27-2.25-.03-2.94-.24-.69-.1,1.31-.15.92-.06.33-.19-.57-.16-1.05.01-.48.25-.83.35-2-.01.12,0,.12-.01.24.1-.42.02-.88.27-1.3-.02-.15.06-.27.11-.37.06-.07.1-.12.09-.2-.19.13-.32.45-.39.78.05-.28.1-.57.27-.79.17-.25.57-.26,1.02,0-.08,0-.39-.07-.53-.06.21.07.5.11.74.29-.07.06-.37-.09-.68-.16-.27-.06-.46.08-.51.36.1-.1.15-.25.25-.29.1-.05.17-.05.1.05.08-.12.34-.07.61.08.27.14.57.34.95.5l-.1.05c.11.06.36.17.54.32-.14-.05-.28-.1-.42-.14.59.28.93.84,1.45,1.2-1.02-.85-.15-.29-.53-.7,1.35.94.55.8,1.96,1.99-.2-.16-.66-.67-.33-.45.25.25.57.59.69.78.92.81-.07-.21.36.1.23.37.48.37.91.7l-.07.08c1,.99.42.09,1.31.99l-.5-.25.52.41h-.18c.6.41.75.57,1.28,1.05-.08-.16.19-.08.68.31.3.31-.25-.07.46.47-.2-.07-.42-.15-.67-.46-.05,0-.19-.08-.25-.08.31.35.9.74,1.16.93-.1-.08-.21-.17-.27-.23.37.23.75.44,1.14.65.15.15,0,.08-.16.02.22.12.42.23.74.4-.13.02-.16.11-.65-.17.36.21.74.41,1.13.59.05.08.53.4.37.35.63.36,1.7.62,2.77.62.06-.03.16-.02.4-.09l.39-.08c.16-.06.32-.12.46-.22.28-.19.46-.51.51-.86.03-.18,0-.36-.01-.52-.03-.14-.06-.28-.11-.4-.09-.26-.22-.48-.36-.71-.05-.2-.11-.4-.17-.6-.47-.67.27.77-.51-.34-.57-.75-.09-.36-.25-.66-.34-.34-.95-.88-1.39-1.62.2.2.32.39.49.59ZM115.94,136.78c.13.13.42.38.46.52-.23-.09-.28-.25-.46-.52ZM117.48,129.77c-.14-.03-.32-.14-.51-.28.16.07.33.16.51.28ZM143.06,144.59v.02c.13.4.09.26,0-.02ZM142.78,143.78c-.05-.07-.06-.06-.06-.02.05.05.12.22.2.43,0-.07-.02-.18-.14-.4ZM106.27,141.01l.05-.17c-.01.4-.03.28-.05.17Z"/>
      <path class="cls-8" d="M115.96,129.24s-.05-.05-.05-.08c-.07,0-.08.01.05.08Z"/>
      <path class="cls-8" d="M122.77,149.62h-.04s-.03.01-.03.02l.07-.02Z"/>
      <path class="cls-8" d="M138.65,148.37c-.14-.11-.21-.19-.26-.24-.02.02.03.08.26.24Z"/>
      <path class="cls-8" d="M140.68,139.76l.27.48c-.12-.23-.15-.33-.19-.46-.02.02,0,.13-.08-.02Z"/>
      <path class="cls-8" d="M138.83,135.32c-.06-.06-.1-.14-.15-.2l-.03.04c.2.28.36.47.18.16Z"/>
      <path class="cls-8" d="M140.75,139.15c.06-.08-.14-.37-.34-.7l.03.06c-.16-.04.07.3.31.64Z"/>
      <path class="cls-8" d="M140.36,138.38c-.06-.1-.12-.21-.18-.31-.06-.02.06.13.18.31Z"/>
      <path class="cls-8" d="M142.29,142.81c-.06-.17-.15-.06-.16-.17-.19-.14.63,1.05.16.17Z"/>
      <polygon class="cls-8" points="140.85 138.74 140.82 138.91 141 139.06 140.85 138.74"/>
      <path class="cls-8" d="M142.17,141.5c-.07-.19-.16-.38-.24-.57-.01.02-.06-.05-.11-.13.17.34.33.73.35.7Z"/>
      <path class="cls-8" d="M141.82,140.8c-.09-.18-.18-.35-.24-.44.05.1.16.3.24.44Z"/>
      <polygon class="cls-8" points="141.28 139.47 141.34 139.64 141.53 140.04 141.28 139.47"/>
      <path class="cls-8" d="M144.65,147.66c.08.21.16.42.22.63.05.06.03-.13-.05-.36-.07-.15-.17-.38-.17-.27Z"/>
      <path class="cls-8" d="M144.23,145.63c.04.18.02.2.03.31l.13-.03-.16-.28Z"/>
      <path class="cls-8" d="M144.93,147.48c.07.04.41.94.14.09-.06-.05-.32-.68-.14-.09Z"/>
      <polygon class="cls-8" points="137.99 147.47 138.13 147.57 138.24 147.38 137.99 147.47"/>
      <path class="cls-8" d="M130.78,142.06c.55.59.23.03.71.58.17.09-.4-.45-.22-.35-.39-.29-.55-.49-.49-.23Z"/>
      <path class="cls-8" d="M131.27,142.29c.06.04.13.09.2.15-.11-.09-.17-.12-.2-.15Z"/>
      <path class="cls-8" d="M95.87,159.13c-.03-.15-.03-.31-.04-.46l-.03.31.07.15Z"/>
      <path class="cls-8" d="M95.59,158.26l.14-.12-.14-.28c.01.11.03.32,0,.4Z"/>
      <path class="cls-8" d="M115.29,135.49h-.05c.02.07.09.17.23.36l-.18-.36Z"/>
      <polygon class="cls-8" points="119.64 140.9 119.56 140.81 119.61 141.06 119.64 140.9"/>
      <path class="cls-8" d="M123.49,145.42c-.14-.21-.33-.43-.47-.63.34.42.38.78.47.63Z"/>
    </g>
    <text class="cls-17" transform="translate(99.26 109.59)"><tspan x="0" y="0">1832 S Glen</tspan><tspan class="cls-30" x="14.75" y="0">r</tspan><tspan class="cls-41" x="15.7" y="0">ose</tspan></text>
    <text class="cls-17" transform="translate(99.26 102.45)"><tspan x="0" y="0">509</tspan><tspan class="cls-39" x="4.88" y="0">-</tspan><tspan class="cls-1" x="5.98" y="0">535</tspan><tspan class="cls-25" x="10.33" y="0">-</tspan><tspan x="11.4" y="0">1239</tspan></text>
    <text class="cls-20" transform="translate(107.94 97.07)"><tspan x="0" y="0"> </tspan></text>
    <g>
      <path class="cls-9" d="M135.84,104.16h-3c-1.02,0-1.85.83-1.85,1.85v3.01c0,1.02.83,1.85,1.85,1.85h3c1.02,0,1.85-.83,1.85-1.85v-3.01c0-1.02-.83-1.85-1.85-1.85ZM137.09,109.02c0,.69-.56,1.26-1.26,1.26h-3c-.69,0-1.26-.56-1.26-1.26v-3.01c0-.69.56-1.26,1.26-1.26h3c.69,0,1.26.56,1.26,1.26v3.01h0Z"/>
      <path class="cls-9" d="M134.33,105.79c-.95,0-1.73.78-1.73,1.73s.78,1.73,1.73,1.73,1.73-.78,1.73-1.73-.78-1.73-1.73-1.73ZM134.33,108.65c-.62,0-1.13-.51-1.13-1.13s.51-1.13,1.13-1.13,1.13.51,1.13,1.13c0,.63-.51,1.13-1.13,1.13Z"/>
      <path class="cls-9" d="M136.13,105.28c-.11,0-.23.05-.31.13-.08.08-.13.19-.13.31s.05.23.13.31c.08.08.19.13.31.13s.23-.05.31-.13c.08-.08.13-.19.13-.31s-.05-.23-.13-.31c-.08-.08-.19-.13-.31-.13Z"/>
    </g>
    <g>
      <path class="cls-9" d="M142.75,105.35c.16,0,.29-.13.29-.29,0-.29.24-.53.53-.53h.82c.16,0,.29-.13.29-.29s-.13-.29-.29-.29h-.82c-.62,0-1.12.5-1.12,1.12,0,.16.13.29.29.29Z"/>
      <path class="cls-9" d="M144.33,106.26h-2.98c-.16,0-.29.13-.29.29s.13.29.29.29h1.11v3.02c0,.16.13.29.29.29s.29-.13.29-.29v-3.02h1.29c.16,0,.29-.13.29-.29s-.13-.29-.29-.29Z"/>
    </g>
  </g>
  <g id="Layer_8" data-name="Layer 8">
    <g id="Layer_1-2" data-name="Layer 1-2">
      <path class="cls-15" d="M62.12,139.72c-1.66-2.15-2.71-4.87-2.71-7.65,0-2.26.71-4.42,2.21-5.93l.34-.3c1.46-1.28,3.28-1.78,5.14-1.64.26.02.57,1.84.83,1.88l-.44-19.36,2.13,19c.12.04.12-.91.24-.86.19.07.37.16.55.24l-.45-14.8,1.97,16.37c.14.09.18-.57.32-.47.17.13.35.26.51.4l-2.3-23.1,4.77,27.63c.06.08.22-1.5.4-1.21,1.15,1.91,1.85,4.14,1.85,6.41,0,2.42-.82,4.71-2.55,6.23l-1.07.93.88,1.19,8.25,10.69,1.06-.93c4.41-3.87,6.59-9.67,6.59-15.86,0-6.63-2.48-13.11-6.43-18.23l-.02-.03c-1.46-1.89-3.12-3.6-4.94-5.07,1.45-.07,2.8-.38,4.06-.91,2.35-1,4.17-2.69,5.49-5.05,1.32-2.37,1.97-5.24,1.97-8.6v-21.6s-25.14-5.01-25.14-5.01c.2-.07.4-.14.6-.22,1.78-.74,3.32-2.04,4.61-3.88,1.28-1.84,2.47-4.27,3.58-7.28l.35-.93c.55-1.46.98-2.5,1.26-3.15.29-.65.55-1.12.81-1.43.25-.31.54-.39.86-.37.85.06,1.13.43,1.47.9.34.47.51,1.23.51,2.29,0,1.75-.37,3.44-1.11,5.06-.08.19-.54,1.1-.92,1.87l10.43,8.31c.76-1.15,1.41-2.37,1.95-3.66,1.12-2.71,1.69-5.97,1.69-9.8s-.64-7.28-1.91-10.01c-1.27-2.73-2.93-4.85-4.97-6.35-2.04-1.5-4.24-2.5-6.62-2.97-4.12-.82-7.28-.07-9.49,2.25-2.21,2.32-3.84,5.21-4.9,8.69-.59,2.03-1.13,3.5-1.63,4.42-.5.92-.69,1.31-1.3,1.64-.35.19-.76.2-1.21.12-1.44-.29-2.16-1.83-2.16-4.62,0-1.87.39-3.6,1.17-5.21.29-.6,1.22-2.31,1.94-3.51l-10.56-8.67c-3.22,4.16-4.84,9.27-4.84,15.32,0,3.74.62,7.12,1.85,10.16,1.23,3.04,2.95,5.53,5.16,7.45.52.46,1.06.87,1.62,1.25l-7.79-1.55v5.58s4.82,2.81,4.82,2.81v-1.55s5.31,3.09,5.31,3.09l-5.31,3.09v-1.55s-3.47,2.02-3.47,2.02l7.05,4.1v-3.1s7.84,4.56,7.84,4.56v-2.38s8.19,4.77,8.19,4.77l-8.19,4.77v-2.38s-7.84,4.56-7.84,4.56v-3.1s-8.4,4.89-8.4,4.89v11.51s17.22-6.09,17.22-6.09c.79,1.46,1.72,2.77,2.77,3.93-4.77-.38-9.46.94-13.2,4.23l-.5.44v.04c-4.07,3.86-6.09,9.44-6.09,15.38,0,6.64,2.47,13.13,6.43,18.26l.9,1.17,9.47-8.32-.92-1.2h0ZM75.26,100.3c-.66-.13-1.28-.43-1.88-.91s-1.07-1.07-1.43-1.76c-.36-.69-.54-1.41-.54-2.15l.43-5.73,6.96,1.39v5.95c0,1.02-.31,1.87-.92,2.54-.62.67-1.49.89-2.61.67h0Z"/>
      <path class="cls-13" d="M62.08,135.29h0c-.36-1.19-.47-2.39-.34-3.5.01-.1.02-.2.04-.3,0-.05.02-.11.03-.16,0-.02,0-.05.02-.08.01-.06.02-.12.04-.19.2-.91.58-1.73,1.12-2.42.11.43.27.84.43,1.24.55,1.36.9,2.7.65,3.71-.19.8-.78,1.41-1.98,1.7h0Z"/>
      <path class="cls-13" d="M68.44,141.67c-2.01-.47-4-1.91-5.33-4.09-.16-.26-.31-.52-.44-.79-.01-.02-.02-.05-.04-.07-.03-.06-.06-.12-.09-.19-.01-.02-.02-.05-.03-.07,1.59-.36,2.32-1.21,2.6-2.34.32-1.31-.08-2.93-.73-4.52-.19-.46-.38-.96-.45-1.42-.02-.14-.14-.39-.02-.47.08-.06.16-.11.24-.16.04-.03.08-.06.13-.09.32-.2.66-.36,1.01-.48.06-.02.12-.04.19-.06,0,0,.01,0,.02,0,.04-.01.09-.03.14-.04.04-.02.09-.03.14-.04,0,0,.02,0,.02,0,1.16-.27,2.41-.14,3.62.33.05.02.1.04.16.07.06.03.13.06.2.09.01,0,.02,0,.03.01,1.27.58,2.47,1.55,3.43,2.83.02.03.05.06.07.1.16.22.32.45.46.69.17.28.33.56.47.85.04.09.09.19.13.28.18.39.33.79.44,1.18,0,0,0,.02,0,.02-.82.85-1.86.95-3.05,1.06l-.55.05c-1.68.17-2.79.89-3.41,1.85-.42.67-.61,1.45-.59,2.26.03.81.27,1.65.7,2.42.14.24.29.47.46.69l.05.05h0Z"/>
      <path class="cls-13" d="M70.04,141.83h-.01c-.61,0-.92-.87-1.19-1.36-.31-.55-.49-1.16-.5-1.74-.02-.59.12-1.16.43-1.66.49-.77,1.4-1.34,2.8-1.48l.54-.05c1.14-.1,2.15-.2,3.04-.83.35,2.64-.53,5.12-2.53,6.36-.78.49-1.66.73-2.56.76h0Z"/>
      <path class="cls-13" d="M73.29,140.58c1.58-1.36,2.19-3.57,1.85-5.87,0,0,0,0,0,0-.89.64-1.89.73-3.04.83l-.54.05c-1.4.14-2.31.71-2.8,1.48-.31.49-.45,1.07-.43,1.66.02.59.19,1.19.5,1.74.28.49.59,1.36,1.19,1.36h.01c1.21-.02,2.32-.45,3.25-1.25ZM68.44,141.67l-.05-.05c-.17-.22-.32-.45-.46-.69-.43-.77-.67-1.6-.7-2.42-.03-.81.16-1.59.59-2.26.62-.96,1.73-1.68,3.41-1.85l.55-.05c1.2-.11,2.23-.21,3.05-1.06,0,0,0-.02,0-.02-.13-.39-.27-.79-.44-1.18-.04-.09-.08-.19-.13-.28-.25-.53-.56-1.05-.93-1.54-.02-.03-.05-.07-.07-.1-.99-1.27-2.18-2.24-3.43-2.83-.01,0-.02,0-.03-.01-.06-.03-.13-.06-.2-.09-.05-.02-.1-.05-.16-.07-1.2-.49-2.45-.62-3.62-.33,0,0-.02,0-.02,0-.04.01-.09.02-.14.04-.05.01-.1.03-.14.04,0,0-.01,0-.02,0-.06.02-.12.04-.19.06-.39.14-.78.33-1.14.57-.08.05-.16.11-.24.16-.11.08,0,.32.02.47.07.45.26.96.45,1.42.65,1.6,1.05,3.21.73,4.52-.28,1.14-1.01,1.99-2.6,2.34.01.02.02.05.03.07.03.06.06.12.09.19.01.02.02.05.04.07.27.56.57,1.11.97,1.63,1.32,1.69,3.03,2.86,4.8,3.25h0ZM64.05,133.59c.25-1.01-.1-2.35-.65-3.71-.16-.39-.32-.81-.43-1.24,0,0,0-.01,0-.02-.55.65-.91,1.51-1.11,2.44-.01.06-.02.12-.04.19,0,.03-.01.05-.02.08,0,.05-.02.11-.03.16-.02.1-.03.2-.04.3-.16,1.26-.03,2.56.34,3.49h0c1.19-.28,1.78-.89,1.98-1.69h0Z"/>
    </g>
    <path class="cls-9" d="M92.69,99.72c0,1.9,1.54,3.44,3.44,3.44.09,0,.17,0,.26,0,.1,0,.15-.01.19-.04.04-.02.07-.06.09-.1.02-.05.02-.1.02-.21v-.63c0-.09,0-.13-.01-.17-.01-.03-.03-.06-.06-.09-.03-.03-.07-.04-.16-.07l-.71-.26c-.1-.04-.15-.05-.19-.05-.04,0-.08.02-.11.04-.04.03-.06.07-.12.16l-.18.3c-.59-.27-1.07-.74-1.33-1.33l.3-.18c.09-.05.13-.08.16-.12.02-.03.04-.07.04-.11,0-.05-.01-.1-.05-.19l-.26-.71c-.03-.08-.05-.13-.07-.16-.02-.03-.05-.05-.09-.06-.04-.01-.08-.01-.17-.01h-.63c-.11,0-.16,0-.21.02-.04.02-.08.05-.1.09-.03.04-.03.09-.04.19,0,.08,0,.17,0,.26Z"/>
    <path class="cls-9" d="M95.61,109.54c.77-.8,1.55-1.51,1.55-2.39s-.69-1.59-1.55-1.59-1.55.71-1.55,1.59.77,1.59,1.55,2.39Z"/>
  </g>
</svg>